G75*
G70*
%OFA0B0*%
%FSLAX24Y24*%
%IPPOS*%
%LPD*%
%AMOC8*
5,1,8,0,0,1.08239X$1,22.5*
%
%ADD10C,0.0050*%
%ADD11C,0.0080*%
%ADD12C,0.0060*%
%ADD13C,0.0070*%
%ADD14C,0.0100*%
%ADD15C,0.0120*%
%ADD16C,0.0160*%
%ADD17C,0.0150*%
%ADD18R,0.0200X1.2200*%
D10*
X003746Y000626D02*
X003746Y001076D01*
X003971Y001076D01*
X004046Y001001D01*
X004046Y000851D01*
X003971Y000776D01*
X003746Y000776D01*
X004207Y000701D02*
X004207Y001001D01*
X004282Y001076D01*
X004432Y001076D01*
X004507Y001001D01*
X004507Y000701D01*
X004432Y000626D01*
X004282Y000626D01*
X004207Y000701D01*
X004667Y000626D02*
X004667Y001076D01*
X004967Y001076D02*
X004967Y000626D01*
X004817Y000776D01*
X004667Y000626D01*
X005127Y000626D02*
X005428Y000626D01*
X005588Y000626D02*
X005588Y001076D01*
X005813Y001076D01*
X005888Y001001D01*
X005888Y000851D01*
X005813Y000776D01*
X005588Y000776D01*
X005738Y000776D02*
X005888Y000626D01*
X005428Y001076D02*
X005127Y001076D01*
X005127Y000626D01*
X005127Y000851D02*
X005277Y000851D01*
X010315Y003616D02*
X010390Y003541D01*
X010540Y003541D01*
X010615Y003616D01*
X010776Y003541D02*
X011076Y003541D01*
X010926Y003541D02*
X010926Y003991D01*
X010776Y003841D01*
X010615Y003916D02*
X010540Y003991D01*
X010390Y003991D01*
X010315Y003916D01*
X010315Y003616D01*
X013316Y003107D02*
X013316Y002807D01*
X013391Y002732D01*
X013541Y002732D01*
X013616Y002807D01*
X013777Y002732D02*
X014077Y003032D01*
X014077Y003107D01*
X014002Y003182D01*
X013852Y003182D01*
X013777Y003107D01*
X013616Y003107D02*
X013541Y003182D01*
X013391Y003182D01*
X013316Y003107D01*
X013777Y002732D02*
X014077Y002732D01*
X015815Y003616D02*
X015890Y003541D01*
X016040Y003541D01*
X016115Y003616D01*
X016276Y003616D02*
X016351Y003541D01*
X016501Y003541D01*
X016576Y003616D01*
X016576Y003691D01*
X016501Y003766D01*
X016426Y003766D01*
X016501Y003766D02*
X016576Y003841D01*
X016576Y003916D01*
X016501Y003991D01*
X016351Y003991D01*
X016276Y003916D01*
X016115Y003916D02*
X016040Y003991D01*
X015890Y003991D01*
X015815Y003916D01*
X015815Y003616D01*
X018256Y004286D02*
X018406Y004136D01*
X018556Y004286D01*
X018556Y004586D01*
X018717Y004586D02*
X018942Y004586D01*
X019017Y004511D01*
X019017Y004361D01*
X018942Y004286D01*
X018717Y004286D01*
X018867Y004286D02*
X019017Y004136D01*
X019177Y004136D02*
X019477Y004136D01*
X019327Y004136D02*
X019327Y004586D01*
X019177Y004436D01*
X018717Y004586D02*
X018717Y004136D01*
X018256Y004286D02*
X018256Y004586D01*
X019396Y003076D02*
X019396Y002626D01*
X019246Y002626D02*
X019546Y002626D01*
X019246Y002926D02*
X019396Y003076D01*
X018047Y001086D02*
X017747Y001086D01*
X017586Y000936D02*
X017586Y000636D01*
X017747Y000636D02*
X017747Y000711D01*
X018047Y001011D01*
X018047Y001086D01*
X017586Y000936D02*
X017436Y001086D01*
X017286Y000936D01*
X017286Y000636D01*
X017286Y000861D02*
X017586Y000861D01*
X015467Y001001D02*
X015467Y000701D01*
X015392Y000626D01*
X015167Y000626D01*
X015167Y001076D01*
X015392Y001076D01*
X015467Y001001D01*
X015007Y001076D02*
X015007Y000626D01*
X014707Y001076D01*
X014707Y000626D01*
X014546Y000701D02*
X014546Y000851D01*
X014396Y000851D01*
X014246Y001001D02*
X014246Y000701D01*
X014321Y000626D01*
X014471Y000626D01*
X014546Y000701D01*
X014546Y001001D02*
X014471Y001076D01*
X014321Y001076D01*
X014246Y001001D01*
X012862Y000874D02*
X012561Y000874D01*
X012786Y001099D01*
X012786Y000649D01*
X012401Y000724D02*
X012401Y001024D01*
X012326Y001099D01*
X012101Y001099D01*
X012101Y000649D01*
X012326Y000649D01*
X012401Y000724D01*
X011941Y000649D02*
X011641Y000649D01*
X011641Y001099D01*
X011941Y001099D01*
X011791Y000874D02*
X011641Y000874D01*
X011481Y000649D02*
X011180Y000649D01*
X011180Y001099D01*
X006226Y004231D02*
X006151Y004156D01*
X006001Y004156D01*
X005926Y004231D01*
X006226Y004531D01*
X006226Y004231D01*
X006226Y004531D02*
X006151Y004606D01*
X006001Y004606D01*
X005926Y004531D01*
X005926Y004231D01*
X005766Y004156D02*
X005465Y004156D01*
X005616Y004156D02*
X005616Y004606D01*
X005465Y004456D01*
X005305Y004606D02*
X005305Y004156D01*
X005155Y004306D01*
X005005Y004156D01*
X005005Y004606D01*
X004845Y004531D02*
X004770Y004606D01*
X004620Y004606D01*
X004545Y004531D01*
X004545Y004456D01*
X004620Y004381D01*
X004770Y004381D01*
X004845Y004306D01*
X004845Y004231D01*
X004770Y004156D01*
X004620Y004156D01*
X004545Y004231D01*
X011746Y008126D02*
X011896Y008126D01*
X011821Y008126D02*
X011821Y008576D01*
X011746Y008576D02*
X011896Y008576D01*
X012053Y008501D02*
X012053Y008201D01*
X012128Y008126D01*
X012278Y008126D01*
X012353Y008201D01*
X012514Y008126D02*
X012814Y008126D01*
X012664Y008126D02*
X012664Y008576D01*
X012514Y008426D01*
X012353Y008501D02*
X012278Y008576D01*
X012128Y008576D01*
X012053Y008501D01*
X010946Y011995D02*
X010496Y011995D01*
X010496Y012220D01*
X010571Y012295D01*
X010721Y012295D01*
X010796Y012220D01*
X010796Y011995D01*
X010796Y012145D02*
X010946Y012295D01*
X010946Y012455D02*
X010946Y012755D01*
X010946Y012605D02*
X010496Y012605D01*
X010646Y012455D01*
X010571Y012915D02*
X010496Y012990D01*
X010496Y013141D01*
X010571Y013216D01*
X010646Y013216D01*
X010721Y013141D01*
X010796Y013216D01*
X010871Y013216D01*
X010946Y013141D01*
X010946Y012990D01*
X010871Y012915D01*
X010721Y013065D02*
X010721Y013141D01*
X009396Y013240D02*
X009396Y013391D01*
X009321Y013466D01*
X009246Y013466D01*
X009171Y013391D01*
X009171Y013165D01*
X009321Y013165D01*
X009396Y013240D01*
X009396Y013005D02*
X008946Y013005D01*
X009171Y013165D02*
X009021Y013315D01*
X008946Y013466D01*
X009396Y013005D02*
X008946Y012705D01*
X009396Y012705D01*
X009321Y012545D02*
X009396Y012470D01*
X009396Y012320D01*
X009321Y012245D01*
X009021Y012245D01*
X008946Y012320D01*
X008946Y012470D01*
X009021Y012545D01*
X005717Y009501D02*
X005642Y009576D01*
X005417Y009576D01*
X005417Y009126D01*
X005642Y009126D01*
X005717Y009201D01*
X005717Y009501D01*
X005257Y009576D02*
X005257Y009126D01*
X004957Y009576D01*
X004957Y009126D01*
X004796Y009201D02*
X004721Y009126D01*
X004571Y009126D01*
X004496Y009201D01*
X004496Y009501D01*
X004571Y009576D01*
X004721Y009576D01*
X004796Y009501D01*
X004796Y009351D02*
X004646Y009351D01*
X004796Y009351D02*
X004796Y009201D01*
X004107Y010126D02*
X004257Y010276D01*
X004257Y010576D01*
X003957Y010576D02*
X003957Y010276D01*
X004107Y010126D01*
X003796Y010201D02*
X003796Y010351D01*
X003721Y010426D01*
X003646Y010426D01*
X003496Y010351D01*
X003496Y010576D01*
X003796Y010576D01*
X003796Y010201D02*
X003721Y010126D01*
X003571Y010126D01*
X003496Y010201D01*
X011096Y017701D02*
X011171Y017626D01*
X011471Y017626D01*
X011546Y017701D01*
X011546Y017851D01*
X011471Y017926D01*
X011471Y018086D02*
X011546Y018161D01*
X011546Y018311D01*
X011471Y018386D01*
X011321Y018386D01*
X011246Y018311D01*
X011246Y018236D01*
X011321Y018086D01*
X011096Y018086D01*
X011096Y018386D01*
X011171Y017926D02*
X011096Y017851D01*
X011096Y017701D01*
X013096Y017701D02*
X013171Y017626D01*
X013471Y017626D01*
X013546Y017701D01*
X013546Y017851D01*
X013471Y017926D01*
X013471Y018086D02*
X013546Y018161D01*
X013546Y018311D01*
X013471Y018386D01*
X013396Y018386D01*
X013321Y018311D01*
X013321Y018086D01*
X013471Y018086D01*
X013321Y018086D02*
X013171Y018236D01*
X013096Y018386D01*
X013171Y017926D02*
X013096Y017851D01*
X013096Y017701D01*
X015104Y017709D02*
X015179Y017634D01*
X015479Y017634D01*
X015554Y017709D01*
X015554Y017859D01*
X015479Y017934D01*
X015479Y018094D02*
X015554Y018169D01*
X015554Y018319D01*
X015479Y018394D01*
X015179Y018394D01*
X015104Y018319D01*
X015104Y018169D01*
X015179Y018094D01*
X015254Y018094D01*
X015329Y018169D01*
X015329Y018394D01*
X015179Y017934D02*
X015104Y017859D01*
X015104Y017709D01*
X011414Y019601D02*
X011339Y019526D01*
X011189Y019526D01*
X011114Y019601D01*
X011114Y019751D02*
X011264Y019826D01*
X011339Y019826D01*
X011414Y019751D01*
X011414Y019601D01*
X011114Y019751D02*
X011114Y019976D01*
X011414Y019976D01*
X010953Y019901D02*
X010878Y019976D01*
X010728Y019976D01*
X010653Y019901D01*
X010653Y019601D01*
X010728Y019526D01*
X010878Y019526D01*
X010953Y019601D01*
X010496Y019526D02*
X010346Y019526D01*
X010421Y019526D02*
X010421Y019976D01*
X010346Y019976D02*
X010496Y019976D01*
X007946Y020126D02*
X007946Y020426D01*
X007946Y020276D02*
X007496Y020276D01*
X007646Y020126D01*
X006946Y020201D02*
X006946Y020351D01*
X006871Y020426D01*
X006796Y020426D01*
X006721Y020351D01*
X006721Y020126D01*
X006871Y020126D01*
X006946Y020201D01*
X006721Y020126D02*
X006571Y020276D01*
X006496Y020426D01*
X008746Y021951D02*
X008821Y021876D01*
X009121Y021876D01*
X009196Y021951D01*
X009196Y022101D01*
X009121Y022176D01*
X009121Y022336D02*
X009196Y022336D01*
X009121Y022336D02*
X008821Y022636D01*
X008746Y022636D01*
X008746Y022336D01*
X008821Y022176D02*
X008746Y022101D01*
X008746Y021951D01*
X010071Y025626D02*
X010371Y025626D01*
X010446Y025701D01*
X010446Y025851D01*
X010371Y025926D01*
X010371Y026086D02*
X010296Y026086D01*
X010221Y026161D01*
X010221Y026311D01*
X010296Y026386D01*
X010371Y026386D01*
X010446Y026311D01*
X010446Y026161D01*
X010371Y026086D01*
X010221Y026161D02*
X010146Y026086D01*
X010071Y026086D01*
X009996Y026161D01*
X009996Y026311D01*
X010071Y026386D01*
X010146Y026386D01*
X010221Y026311D01*
X010071Y025926D02*
X009996Y025851D01*
X009996Y025701D01*
X010071Y025626D01*
X007946Y025951D02*
X007871Y025876D01*
X007946Y025951D02*
X007946Y026101D01*
X007871Y026176D01*
X007721Y026176D01*
X007646Y026101D01*
X007646Y026026D01*
X007721Y025876D01*
X007496Y025876D01*
X007496Y026176D01*
X006946Y026101D02*
X006871Y026176D01*
X006571Y026176D01*
X006496Y026101D01*
X006496Y025951D01*
X006571Y025876D01*
X006646Y025876D01*
X006721Y025951D01*
X006721Y026176D01*
X006946Y026101D02*
X006946Y025951D01*
X006871Y025876D01*
X012846Y025976D02*
X012996Y025976D01*
X012921Y025976D02*
X012921Y026426D01*
X012846Y026426D02*
X012996Y026426D01*
X013153Y026351D02*
X013153Y026051D01*
X013228Y025976D01*
X013378Y025976D01*
X013453Y026051D01*
X013614Y026051D02*
X013689Y025976D01*
X013839Y025976D01*
X013914Y026051D01*
X013914Y026126D01*
X013839Y026201D01*
X013614Y026201D01*
X013614Y026051D01*
X013614Y026201D02*
X013764Y026351D01*
X013914Y026426D01*
X013453Y026351D02*
X013378Y026426D01*
X013228Y026426D01*
X013153Y026351D01*
X008011Y031376D02*
X008011Y031826D01*
X007786Y031601D01*
X008086Y031601D01*
X007626Y031376D02*
X007325Y031376D01*
X007476Y031376D02*
X007476Y031826D01*
X007325Y031676D01*
X007165Y031601D02*
X007090Y031526D01*
X006865Y031526D01*
X006865Y031376D02*
X006865Y031826D01*
X007090Y031826D01*
X007165Y031751D01*
X007165Y031601D01*
X007015Y031526D02*
X007165Y031376D01*
X007165Y032376D02*
X007015Y032526D01*
X007090Y032526D02*
X006865Y032526D01*
X006865Y032376D02*
X006865Y032826D01*
X007090Y032826D01*
X007165Y032751D01*
X007165Y032601D01*
X007090Y032526D01*
X007325Y032676D02*
X007476Y032826D01*
X007476Y032376D01*
X007626Y032376D02*
X007325Y032376D01*
X007786Y032451D02*
X007861Y032376D01*
X008011Y032376D01*
X008086Y032451D01*
X008086Y032601D01*
X008011Y032676D01*
X007936Y032676D01*
X007786Y032601D01*
X007786Y032826D01*
X008086Y032826D01*
X004196Y032886D02*
X003746Y032886D01*
X003896Y033046D02*
X003746Y033197D01*
X004196Y033197D01*
X004196Y033347D02*
X004196Y033046D01*
X004196Y032886D02*
X003746Y032586D01*
X004196Y032586D01*
X004121Y032426D02*
X004196Y032351D01*
X004196Y032201D01*
X004121Y032126D01*
X003821Y032126D01*
X003746Y032201D01*
X003746Y032351D01*
X003821Y032426D01*
X003446Y032426D02*
X003296Y032276D01*
X003296Y032351D02*
X003296Y032126D01*
X003446Y032126D02*
X002996Y032126D01*
X002996Y032351D01*
X003071Y032426D01*
X003221Y032426D01*
X003296Y032351D01*
X003371Y032586D02*
X003446Y032661D01*
X003446Y032811D01*
X003371Y032886D01*
X003296Y032886D01*
X003221Y032811D01*
X003221Y032661D01*
X003146Y032586D01*
X003071Y032586D01*
X002996Y032661D01*
X002996Y032811D01*
X003071Y032886D01*
X003221Y033046D02*
X003221Y033347D01*
X003071Y033507D02*
X002996Y033582D01*
X002996Y033732D01*
X003071Y033807D01*
X003146Y033807D01*
X003446Y033507D01*
X003446Y033807D01*
X003371Y033967D02*
X003446Y034042D01*
X003446Y034192D01*
X003371Y034267D01*
X003296Y034267D01*
X003221Y034192D01*
X003221Y034117D01*
X003221Y034192D02*
X003146Y034267D01*
X003071Y034267D01*
X002996Y034192D01*
X002996Y034042D01*
X003071Y033967D01*
X003071Y034428D02*
X002996Y034503D01*
X002996Y034653D01*
X003071Y034728D01*
X003146Y034728D01*
X003446Y034428D01*
X003446Y034728D01*
X009246Y037126D02*
X009471Y037126D01*
X009546Y037201D01*
X009546Y037276D01*
X009471Y037351D01*
X009246Y037351D01*
X009246Y037126D02*
X009246Y037576D01*
X009471Y037576D01*
X009546Y037501D01*
X009546Y037426D01*
X009471Y037351D01*
X009707Y037426D02*
X009707Y037201D01*
X009782Y037126D01*
X010007Y037126D01*
X010007Y037051D02*
X009932Y036976D01*
X009857Y036976D01*
X010007Y037051D02*
X010007Y037426D01*
X010627Y037576D02*
X010928Y037576D01*
X010777Y037576D02*
X010777Y037126D01*
X011088Y037126D02*
X011163Y037126D01*
X011163Y037201D01*
X011088Y037201D01*
X011088Y037126D01*
X011318Y037126D02*
X011318Y037576D01*
X011393Y037351D02*
X011618Y037126D01*
X011778Y037126D02*
X011853Y037126D01*
X011853Y037201D01*
X011778Y037201D01*
X011778Y037126D01*
X011618Y037576D02*
X011318Y037276D01*
X012929Y037126D02*
X012929Y037426D01*
X013004Y037426D01*
X013079Y037351D01*
X013154Y037426D01*
X013229Y037351D01*
X013229Y037126D01*
X013079Y037126D02*
X013079Y037351D01*
X013389Y037201D02*
X013464Y037276D01*
X013690Y037276D01*
X013690Y037351D02*
X013690Y037126D01*
X013464Y037126D01*
X013389Y037201D01*
X013464Y037426D02*
X013615Y037426D01*
X013690Y037351D01*
X013850Y037351D02*
X013925Y037426D01*
X014150Y037426D01*
X014150Y037576D02*
X014150Y037126D01*
X013925Y037126D01*
X013850Y037201D01*
X013850Y037351D01*
X014310Y037351D02*
X014385Y037426D01*
X014535Y037426D01*
X014610Y037351D01*
X014610Y037276D01*
X014310Y037276D01*
X014310Y037201D02*
X014310Y037351D01*
X014310Y037201D02*
X014385Y037126D01*
X014535Y037126D01*
X015231Y037126D02*
X015381Y037126D01*
X015306Y037126D02*
X015306Y037426D01*
X015231Y037426D01*
X015306Y037576D02*
X015306Y037651D01*
X015538Y037426D02*
X015763Y037426D01*
X015838Y037351D01*
X015838Y037126D01*
X015538Y037126D02*
X015538Y037426D01*
X016458Y037201D02*
X016533Y037126D01*
X016609Y037126D01*
X016684Y037201D01*
X016684Y037576D01*
X016609Y037576D02*
X016759Y037576D01*
X016919Y037426D02*
X017069Y037576D01*
X017219Y037426D01*
X017219Y037126D01*
X017379Y037126D02*
X017379Y037576D01*
X017604Y037576D01*
X017679Y037501D01*
X017679Y037351D01*
X017604Y037276D01*
X017379Y037276D01*
X017219Y037351D02*
X016919Y037351D01*
X016919Y037426D02*
X016919Y037126D01*
X017839Y037126D02*
X017839Y037426D01*
X017990Y037576D01*
X018140Y037426D01*
X018140Y037126D01*
X018300Y037126D02*
X018300Y037576D01*
X018600Y037126D01*
X018600Y037576D01*
X018140Y037351D02*
X017839Y037351D01*
X027116Y037381D02*
X027191Y037306D01*
X027341Y037306D01*
X027416Y037381D01*
X027577Y037306D02*
X027577Y037756D01*
X027877Y037306D01*
X027877Y037756D01*
X028037Y037681D02*
X028112Y037756D01*
X028262Y037756D01*
X028337Y037681D01*
X028337Y037606D01*
X028262Y037531D01*
X028337Y037456D01*
X028337Y037381D01*
X028262Y037306D01*
X028112Y037306D01*
X028037Y037381D01*
X028187Y037531D02*
X028262Y037531D01*
X027416Y037681D02*
X027341Y037756D01*
X027191Y037756D01*
X027116Y037681D01*
X027116Y037381D01*
X028996Y038526D02*
X029146Y038676D01*
X029446Y038676D01*
X029371Y038836D02*
X029446Y038911D01*
X029446Y039061D01*
X029371Y039136D01*
X029221Y039136D01*
X029146Y039061D01*
X029146Y038986D01*
X029221Y038836D01*
X028996Y038836D01*
X028996Y039136D01*
X029221Y038676D02*
X029221Y038376D01*
X029146Y038376D02*
X028996Y038526D01*
X029146Y038376D02*
X029446Y038376D01*
X029996Y038526D02*
X030146Y038676D01*
X030446Y038676D01*
X030221Y038676D02*
X030221Y038376D01*
X030146Y038376D02*
X029996Y038526D01*
X030146Y038376D02*
X030446Y038376D01*
X030221Y038836D02*
X030221Y039136D01*
X029996Y039061D02*
X030221Y038836D01*
X030446Y039061D02*
X029996Y039061D01*
X030996Y039061D02*
X030996Y038911D01*
X031071Y038836D01*
X031146Y038676D02*
X031446Y038676D01*
X031371Y038836D02*
X031446Y038911D01*
X031446Y039061D01*
X031371Y039136D01*
X031296Y039136D01*
X031221Y039061D01*
X031221Y038986D01*
X031221Y039061D02*
X031146Y039136D01*
X031071Y039136D01*
X030996Y039061D01*
X031146Y038676D02*
X030996Y038526D01*
X031146Y038376D01*
X031446Y038376D01*
X031221Y038376D02*
X031221Y038676D01*
X031996Y038526D02*
X032146Y038676D01*
X032446Y038676D01*
X032446Y038836D02*
X032146Y039136D01*
X032071Y039136D01*
X031996Y039061D01*
X031996Y038911D01*
X032071Y038836D01*
X032221Y038676D02*
X032221Y038376D01*
X032146Y038376D02*
X031996Y038526D01*
X032146Y038376D02*
X032446Y038376D01*
X032446Y038836D02*
X032446Y039136D01*
X032996Y038986D02*
X033146Y038836D01*
X033146Y038676D02*
X033446Y038676D01*
X033446Y038836D02*
X033446Y039136D01*
X033446Y038986D02*
X032996Y038986D01*
X033146Y038676D02*
X032996Y038526D01*
X033146Y038376D01*
X033446Y038376D01*
X033221Y038376D02*
X033221Y038676D01*
X033996Y038526D02*
X034146Y038676D01*
X034446Y038676D01*
X034371Y038836D02*
X034071Y039136D01*
X034371Y039136D01*
X034446Y039061D01*
X034446Y038911D01*
X034371Y038836D01*
X034071Y038836D01*
X033996Y038911D01*
X033996Y039061D01*
X034071Y039136D01*
X034221Y038676D02*
X034221Y038376D01*
X034146Y038376D02*
X033996Y038526D01*
X034146Y038376D02*
X034446Y038376D01*
X035996Y038376D02*
X036446Y038676D01*
X035996Y038676D01*
X036071Y038836D02*
X036371Y038836D01*
X036446Y038911D01*
X036446Y039061D01*
X036371Y039136D01*
X036071Y039136D02*
X035996Y039061D01*
X035996Y038911D01*
X036071Y038836D01*
X035996Y038376D02*
X036446Y038376D01*
X036996Y038451D02*
X036996Y038601D01*
X037071Y038676D01*
X037221Y038676D02*
X037221Y038526D01*
X037221Y038676D02*
X037371Y038676D01*
X037446Y038601D01*
X037446Y038451D01*
X037371Y038376D01*
X037071Y038376D01*
X036996Y038451D01*
X037996Y038451D02*
X037996Y038601D01*
X038071Y038676D01*
X038221Y038676D02*
X038221Y038526D01*
X038221Y038676D02*
X038371Y038676D01*
X038446Y038601D01*
X038446Y038451D01*
X038371Y038376D01*
X038071Y038376D01*
X037996Y038451D01*
X038996Y038376D02*
X039221Y038376D01*
X039146Y038526D01*
X039146Y038601D01*
X039221Y038676D01*
X039371Y038676D01*
X039446Y038601D01*
X039446Y038451D01*
X039371Y038376D01*
X038996Y038376D02*
X038996Y038676D01*
X038996Y038836D02*
X039296Y038836D01*
X039446Y038986D01*
X039296Y039136D01*
X038996Y039136D01*
X039996Y039136D02*
X040296Y039136D01*
X040446Y038986D01*
X040296Y038836D01*
X039996Y038836D01*
X040071Y038676D02*
X040146Y038676D01*
X040221Y038601D01*
X040296Y038676D01*
X040371Y038676D01*
X040446Y038601D01*
X040446Y038451D01*
X040371Y038376D01*
X040221Y038526D02*
X040221Y038601D01*
X040071Y038676D02*
X039996Y038601D01*
X039996Y038451D01*
X040071Y038376D01*
X040996Y038376D02*
X041446Y038676D01*
X040996Y038676D01*
X041071Y038836D02*
X041371Y038836D01*
X041446Y038911D01*
X041446Y039061D01*
X041371Y039136D01*
X041071Y039136D02*
X040996Y039061D01*
X040996Y038911D01*
X041071Y038836D01*
X040996Y038376D02*
X041446Y038376D01*
X041996Y038376D02*
X041996Y038526D01*
X041996Y038451D02*
X042446Y038451D01*
X042446Y038376D02*
X042446Y038526D01*
X042371Y038683D02*
X042071Y038683D01*
X041996Y038758D01*
X041996Y038908D01*
X042071Y038983D01*
X042371Y038983D01*
X042446Y038908D01*
X042446Y038758D01*
X042371Y038683D01*
X042996Y038676D02*
X043446Y038676D01*
X042996Y038376D01*
X043446Y038376D01*
X043371Y038836D02*
X043446Y038911D01*
X043446Y039061D01*
X043371Y039136D01*
X043371Y038836D02*
X043071Y038836D01*
X042996Y038911D01*
X042996Y039061D01*
X043071Y039136D01*
X041996Y036864D02*
X041996Y036564D01*
X042446Y036564D01*
X042446Y036404D02*
X042446Y036103D01*
X041996Y036103D01*
X041996Y036404D01*
X042221Y036254D02*
X042221Y036103D01*
X042221Y035943D02*
X042296Y035868D01*
X042296Y035643D01*
X042296Y035793D02*
X042446Y035943D01*
X042221Y035943D02*
X042071Y035943D01*
X041996Y035868D01*
X041996Y035643D01*
X042446Y035643D01*
X042371Y035483D02*
X042071Y035483D01*
X041996Y035408D01*
X041996Y035258D01*
X042071Y035183D01*
X042371Y035183D01*
X042446Y035258D01*
X042446Y035408D01*
X042371Y035483D01*
X042446Y035026D02*
X042446Y034876D01*
X042446Y034951D02*
X041996Y034951D01*
X041996Y034876D02*
X041996Y035026D01*
X041446Y035126D02*
X040996Y035126D01*
X041446Y035426D01*
X040996Y035426D01*
X041071Y035586D02*
X041371Y035586D01*
X041446Y035661D01*
X041446Y035811D01*
X041371Y035886D01*
X041071Y035886D02*
X040996Y035811D01*
X040996Y035661D01*
X041071Y035586D01*
X040446Y035586D02*
X040446Y035661D01*
X040371Y035661D01*
X040371Y035586D01*
X040446Y035586D01*
X040371Y035426D02*
X040446Y035351D01*
X040446Y035201D01*
X040371Y035126D01*
X040221Y035276D02*
X040221Y035351D01*
X040296Y035426D01*
X040371Y035426D01*
X040221Y035351D02*
X040146Y035426D01*
X040071Y035426D01*
X039996Y035351D01*
X039996Y035201D01*
X040071Y035126D01*
X039446Y035201D02*
X039371Y035126D01*
X039446Y035201D02*
X039446Y035351D01*
X039371Y035426D01*
X039221Y035426D01*
X039146Y035351D01*
X039146Y035276D01*
X039221Y035126D01*
X038996Y035126D01*
X038996Y035426D01*
X038996Y035586D02*
X039296Y035586D01*
X039446Y035736D01*
X039296Y035886D01*
X038996Y035886D01*
X038446Y035886D02*
X037996Y035886D01*
X037996Y036046D02*
X037996Y036272D01*
X038071Y036347D01*
X038371Y036347D01*
X038446Y036272D01*
X038446Y036046D01*
X037996Y036046D01*
X037996Y035586D02*
X038446Y035886D01*
X038446Y035586D02*
X037996Y035586D01*
X038071Y035426D02*
X037996Y035351D01*
X037996Y035201D01*
X038071Y035126D01*
X038371Y035126D01*
X038446Y035201D01*
X038446Y035351D01*
X038371Y035426D01*
X038221Y035426D01*
X038221Y035276D01*
X037446Y035351D02*
X037371Y035426D01*
X037221Y035426D01*
X037221Y035276D01*
X037071Y035426D02*
X036996Y035351D01*
X036996Y035201D01*
X037071Y035126D01*
X037371Y035126D01*
X037446Y035201D01*
X037446Y035351D01*
X037446Y035586D02*
X036996Y035586D01*
X037446Y035886D01*
X036996Y035886D01*
X036996Y036046D02*
X036996Y036272D01*
X037071Y036347D01*
X037371Y036347D01*
X037446Y036272D01*
X037446Y036046D01*
X036996Y036046D01*
X036446Y035811D02*
X036446Y035661D01*
X036371Y035586D01*
X036071Y035586D01*
X035996Y035661D01*
X035996Y035811D01*
X036071Y035886D01*
X036371Y035886D02*
X036446Y035811D01*
X036446Y035426D02*
X035996Y035426D01*
X035996Y035126D02*
X036446Y035426D01*
X036446Y035126D02*
X035996Y035126D01*
X034446Y035126D02*
X034146Y035126D01*
X033996Y035276D01*
X034146Y035426D01*
X034446Y035426D01*
X034371Y035586D02*
X034071Y035886D01*
X034371Y035886D01*
X034446Y035811D01*
X034446Y035661D01*
X034371Y035586D01*
X034071Y035586D01*
X033996Y035661D01*
X033996Y035811D01*
X034071Y035886D01*
X034221Y035426D02*
X034221Y035126D01*
X033446Y035126D02*
X033146Y035126D01*
X032996Y035276D01*
X033146Y035426D01*
X033446Y035426D01*
X033446Y035586D02*
X033446Y035886D01*
X033446Y035736D02*
X032996Y035736D01*
X033146Y035586D01*
X033221Y035426D02*
X033221Y035126D01*
X032446Y035126D02*
X032146Y035126D01*
X031996Y035276D01*
X032146Y035426D01*
X032446Y035426D01*
X032446Y035586D02*
X032146Y035886D01*
X032071Y035886D01*
X031996Y035811D01*
X031996Y035661D01*
X032071Y035586D01*
X032221Y035426D02*
X032221Y035126D01*
X032446Y035586D02*
X032446Y035886D01*
X031446Y035811D02*
X031446Y035661D01*
X031371Y035586D01*
X031446Y035426D02*
X031146Y035426D01*
X030996Y035276D01*
X031146Y035126D01*
X031446Y035126D01*
X031221Y035126D02*
X031221Y035426D01*
X031071Y035586D02*
X030996Y035661D01*
X030996Y035811D01*
X031071Y035886D01*
X031146Y035886D01*
X031221Y035811D01*
X031296Y035886D01*
X031371Y035886D01*
X031446Y035811D01*
X031221Y035811D02*
X031221Y035736D01*
X030446Y035811D02*
X029996Y035811D01*
X030221Y035586D01*
X030221Y035886D01*
X030221Y035426D02*
X030221Y035126D01*
X030146Y035126D02*
X029996Y035276D01*
X030146Y035426D01*
X030446Y035426D01*
X030446Y035126D02*
X030146Y035126D01*
X029446Y035126D02*
X029146Y035126D01*
X028996Y035276D01*
X029146Y035426D01*
X029446Y035426D01*
X029371Y035586D02*
X029446Y035661D01*
X029446Y035811D01*
X029371Y035886D01*
X029221Y035886D01*
X029146Y035811D01*
X029146Y035736D01*
X029221Y035586D01*
X028996Y035586D01*
X028996Y035886D01*
X029221Y035426D02*
X029221Y035126D01*
X024196Y030061D02*
X024196Y029911D01*
X024121Y029836D01*
X023821Y030136D01*
X024121Y030136D01*
X024196Y030061D01*
X024121Y029836D02*
X023821Y029836D01*
X023746Y029911D01*
X023746Y030061D01*
X023821Y030136D01*
X023971Y029676D02*
X023971Y029376D01*
X023746Y029601D01*
X024196Y029601D01*
X022696Y029601D02*
X022696Y029451D01*
X022621Y029376D01*
X022471Y029526D02*
X022471Y029601D01*
X022546Y029676D01*
X022621Y029676D01*
X022696Y029601D01*
X022471Y029601D02*
X022396Y029676D01*
X022321Y029676D01*
X022246Y029601D01*
X022246Y029451D01*
X022321Y029376D01*
X022321Y029836D02*
X022396Y029836D01*
X022471Y029911D01*
X022471Y030136D01*
X022621Y030136D02*
X022321Y030136D01*
X022246Y030061D01*
X022246Y029911D01*
X022321Y029836D01*
X022621Y029836D02*
X022696Y029911D01*
X022696Y030061D01*
X022621Y030136D01*
X030996Y029272D02*
X031071Y029347D01*
X031371Y029046D01*
X031446Y029122D01*
X031446Y029272D01*
X031371Y029347D01*
X031071Y029347D01*
X030996Y029272D02*
X030996Y029122D01*
X031071Y029046D01*
X031371Y029046D01*
X031446Y028886D02*
X031446Y028586D01*
X031446Y028736D02*
X030996Y028736D01*
X031146Y028586D01*
X031071Y028426D02*
X030996Y028351D01*
X030996Y028201D01*
X031071Y028126D01*
X031371Y028126D01*
X031446Y028201D01*
X031446Y028351D01*
X031371Y028426D01*
X033146Y026426D02*
X033296Y026426D01*
X033221Y026426D02*
X033221Y025976D01*
X033146Y025976D02*
X033296Y025976D01*
X033453Y026051D02*
X033528Y025976D01*
X033678Y025976D01*
X033753Y026051D01*
X033914Y026051D02*
X033989Y025976D01*
X034139Y025976D01*
X034214Y026051D01*
X034214Y026126D01*
X034139Y026201D01*
X034064Y026201D01*
X034139Y026201D02*
X034214Y026276D01*
X034214Y026351D01*
X034139Y026426D01*
X033989Y026426D01*
X033914Y026351D01*
X033753Y026351D02*
X033678Y026426D01*
X033528Y026426D01*
X033453Y026351D01*
X033453Y026051D01*
X035256Y025976D02*
X035256Y026276D01*
X035406Y026426D01*
X035556Y026276D01*
X035556Y025976D01*
X035717Y025976D02*
X036017Y026426D01*
X036177Y026426D02*
X036402Y026426D01*
X036477Y026351D01*
X036477Y026051D01*
X036402Y025976D01*
X036177Y025976D01*
X036177Y026426D01*
X035556Y026201D02*
X035256Y026201D01*
X042996Y027951D02*
X043071Y027876D01*
X043371Y027876D01*
X043446Y027951D01*
X043446Y028101D01*
X043371Y028176D01*
X043446Y028336D02*
X043446Y028636D01*
X043446Y028486D02*
X042996Y028486D01*
X043146Y028336D01*
X043071Y028176D02*
X042996Y028101D01*
X042996Y027951D01*
X043146Y028796D02*
X042996Y028947D01*
X043446Y028947D01*
X043446Y029097D02*
X043446Y028796D01*
X045296Y026426D02*
X045446Y026426D01*
X045371Y026426D02*
X045371Y025976D01*
X045296Y025976D02*
X045446Y025976D01*
X045603Y026051D02*
X045678Y025976D01*
X045828Y025976D01*
X045903Y026051D01*
X046064Y026201D02*
X046364Y026201D01*
X046289Y025976D02*
X046289Y026426D01*
X046064Y026201D01*
X045903Y026351D02*
X045828Y026426D01*
X045678Y026426D01*
X045603Y026351D01*
X045603Y026051D01*
X047256Y025976D02*
X047481Y025976D01*
X047556Y026051D01*
X047556Y026351D01*
X047481Y026426D01*
X047256Y026426D01*
X047256Y025976D01*
X047717Y025976D02*
X048017Y026426D01*
X048177Y026276D02*
X048177Y025976D01*
X048177Y026201D02*
X048477Y026201D01*
X048477Y026276D02*
X048477Y025976D01*
X048477Y026276D02*
X048327Y026426D01*
X048177Y026276D01*
X052346Y024251D02*
X052346Y023951D01*
X052421Y023876D01*
X052571Y023876D01*
X052646Y023951D01*
X052807Y023876D02*
X053107Y023876D01*
X052957Y023876D02*
X052957Y024326D01*
X052807Y024176D01*
X052646Y024251D02*
X052571Y024326D01*
X052421Y024326D01*
X052346Y024251D01*
X053267Y024251D02*
X053342Y024326D01*
X053492Y024326D01*
X053567Y024251D01*
X053567Y024176D01*
X053267Y023876D01*
X053567Y023876D01*
X053571Y022597D02*
X053496Y022522D01*
X053496Y022296D01*
X053946Y022296D01*
X053946Y022522D01*
X053871Y022597D01*
X053571Y022597D01*
X053496Y022136D02*
X053946Y022136D01*
X053496Y021836D01*
X053946Y021836D01*
X053871Y021676D02*
X053721Y021676D01*
X053721Y021526D01*
X053571Y021676D02*
X053496Y021601D01*
X053496Y021451D01*
X053571Y021376D01*
X053871Y021376D01*
X053946Y021451D01*
X053946Y021601D01*
X053871Y021676D01*
X052946Y021601D02*
X052946Y021451D01*
X052871Y021376D01*
X052721Y021451D02*
X052721Y021601D01*
X052796Y021676D01*
X052871Y021676D01*
X052946Y021601D01*
X052946Y021836D02*
X052946Y022061D01*
X052871Y022136D01*
X052571Y022136D01*
X052496Y022061D01*
X052496Y021836D01*
X052946Y021836D01*
X052571Y021676D02*
X052496Y021601D01*
X052496Y021451D01*
X052571Y021376D01*
X052646Y021376D01*
X052721Y021451D01*
X051946Y021451D02*
X051871Y021376D01*
X051946Y021451D02*
X051946Y021601D01*
X051871Y021676D01*
X051796Y021676D01*
X051721Y021601D01*
X051721Y021451D01*
X051646Y021376D01*
X051571Y021376D01*
X051496Y021451D01*
X051496Y021601D01*
X051571Y021676D01*
X051571Y021836D02*
X051871Y021836D01*
X051946Y021911D01*
X051946Y022061D01*
X051871Y022136D01*
X051946Y022296D02*
X051946Y022597D01*
X051946Y022296D02*
X051496Y022296D01*
X051571Y022136D02*
X051496Y022061D01*
X051496Y021911D01*
X051571Y021836D01*
X050946Y021836D02*
X050946Y022061D01*
X050871Y022136D01*
X050571Y022136D01*
X050496Y022061D01*
X050496Y021836D01*
X050946Y021836D01*
X050796Y021676D02*
X050496Y021676D01*
X050796Y021676D02*
X050946Y021526D01*
X050796Y021376D01*
X050496Y021376D01*
X049928Y021376D02*
X049627Y021376D01*
X049777Y021376D02*
X049777Y021826D01*
X049627Y021676D01*
X049467Y021751D02*
X049392Y021826D01*
X049167Y021826D01*
X049167Y021376D01*
X049392Y021376D01*
X049467Y021451D01*
X049467Y021751D01*
X049007Y021751D02*
X048932Y021826D01*
X048782Y021826D01*
X048707Y021751D01*
X048707Y021451D01*
X048782Y021376D01*
X048932Y021376D01*
X049007Y021451D01*
X048546Y021376D02*
X048246Y021376D01*
X048246Y021826D01*
X050496Y022296D02*
X050496Y022522D01*
X050571Y022597D01*
X050871Y022597D01*
X050946Y022522D01*
X050946Y022296D01*
X050496Y022296D01*
X052496Y022447D02*
X052646Y022597D01*
X052946Y022597D01*
X052721Y022597D02*
X052721Y022296D01*
X052646Y022296D02*
X052946Y022296D01*
X052646Y022296D02*
X052496Y022447D01*
X057746Y022251D02*
X057746Y021951D01*
X057821Y021876D01*
X057971Y021876D01*
X058046Y021951D01*
X058046Y022101D01*
X057896Y022101D01*
X057746Y022251D02*
X057821Y022326D01*
X057971Y022326D01*
X058046Y022251D01*
X058207Y022326D02*
X058507Y021876D01*
X058507Y022326D01*
X058667Y022326D02*
X058667Y021876D01*
X058892Y021876D01*
X058967Y021951D01*
X058967Y022251D01*
X058892Y022326D01*
X058667Y022326D01*
X058207Y022326D02*
X058207Y021876D01*
X058207Y021326D02*
X058432Y021326D01*
X058507Y021251D01*
X058507Y020951D01*
X058432Y020876D01*
X058207Y020876D01*
X058207Y021326D01*
X058046Y021251D02*
X057971Y021326D01*
X057821Y021326D01*
X057746Y021251D01*
X057746Y021176D01*
X057821Y021101D01*
X057971Y021101D01*
X058046Y021026D01*
X058046Y020951D01*
X057971Y020876D01*
X057821Y020876D01*
X057746Y020951D01*
X057821Y020326D02*
X057746Y020251D01*
X057746Y020176D01*
X057821Y020101D01*
X057971Y020101D01*
X058046Y020026D01*
X058046Y019951D01*
X057971Y019876D01*
X057821Y019876D01*
X057746Y019951D01*
X057821Y020326D02*
X057971Y020326D01*
X058046Y020251D01*
X058207Y020251D02*
X058207Y019951D01*
X058282Y019876D01*
X058432Y019876D01*
X058507Y019951D01*
X058667Y019876D02*
X058967Y019876D01*
X058667Y019876D02*
X058667Y020326D01*
X058507Y020251D02*
X058432Y020326D01*
X058282Y020326D01*
X058207Y020251D01*
X058667Y020876D02*
X058667Y021176D01*
X058817Y021326D01*
X058967Y021176D01*
X058967Y020876D01*
X058967Y021101D02*
X058667Y021101D01*
X058814Y022876D02*
X058514Y022876D01*
X058814Y023176D01*
X058814Y023251D01*
X058739Y023326D01*
X058589Y023326D01*
X058514Y023251D01*
X058353Y023251D02*
X058278Y023326D01*
X058128Y023326D01*
X058053Y023251D01*
X058053Y022951D01*
X058128Y022876D01*
X058278Y022876D01*
X058353Y022951D01*
X057896Y022876D02*
X057746Y022876D01*
X057821Y022876D02*
X057821Y023326D01*
X057746Y023326D02*
X057896Y023326D01*
X057114Y025976D02*
X057114Y026051D01*
X057414Y026351D01*
X057414Y026426D01*
X057114Y026426D01*
X056953Y026351D02*
X056878Y026426D01*
X056728Y026426D01*
X056653Y026351D01*
X056653Y026051D01*
X056728Y025976D01*
X056878Y025976D01*
X056953Y026051D01*
X056496Y025976D02*
X056346Y025976D01*
X056421Y025976D02*
X056421Y026426D01*
X056346Y026426D02*
X056496Y026426D01*
X055788Y030926D02*
X055788Y031376D01*
X055563Y031151D01*
X055863Y031151D01*
X055403Y030926D02*
X055102Y030926D01*
X055253Y030926D02*
X055253Y031376D01*
X055102Y031226D01*
X054942Y031301D02*
X054867Y031376D01*
X054717Y031376D01*
X054642Y031301D01*
X054642Y031001D01*
X054717Y030926D01*
X054867Y030926D01*
X054942Y031001D01*
X054236Y031001D02*
X054236Y031076D01*
X054161Y031151D01*
X054086Y031151D01*
X054161Y031151D02*
X054236Y031226D01*
X054236Y031301D01*
X054161Y031376D01*
X054011Y031376D01*
X053936Y031301D01*
X053936Y031001D02*
X054011Y030926D01*
X054161Y030926D01*
X054236Y031001D01*
X053776Y030926D02*
X053475Y030926D01*
X053626Y030926D02*
X053626Y031376D01*
X053475Y031226D01*
X053315Y031301D02*
X053240Y031376D01*
X053090Y031376D01*
X053015Y031301D01*
X053015Y031001D01*
X053090Y030926D01*
X053240Y030926D01*
X053315Y031001D01*
X057496Y033232D02*
X057796Y033232D01*
X057646Y033232D02*
X057646Y033682D01*
X057496Y033532D01*
X058496Y032576D02*
X058496Y032276D01*
X058646Y032126D01*
X058796Y032276D01*
X058796Y032576D01*
X058957Y032576D02*
X059182Y032576D01*
X059257Y032501D01*
X059257Y032351D01*
X059182Y032276D01*
X058957Y032276D01*
X059107Y032276D02*
X059257Y032126D01*
X059417Y032126D02*
X059717Y032426D01*
X059717Y032501D01*
X059642Y032576D01*
X059492Y032576D01*
X059417Y032501D01*
X059417Y032126D02*
X059717Y032126D01*
X058957Y032126D02*
X058957Y032576D01*
X060654Y033307D02*
X060729Y033232D01*
X060879Y033232D01*
X060954Y033307D01*
X060954Y033382D01*
X060879Y033457D01*
X060804Y033457D01*
X060879Y033457D02*
X060954Y033532D01*
X060954Y033607D01*
X060879Y033682D01*
X060729Y033682D01*
X060654Y033607D01*
X063746Y032691D02*
X063746Y032391D01*
X063821Y032316D01*
X063971Y032316D01*
X064046Y032391D01*
X064207Y032316D02*
X064207Y032766D01*
X064507Y032316D01*
X064507Y032766D01*
X064667Y032541D02*
X064892Y032766D01*
X064892Y032316D01*
X064967Y032541D02*
X064667Y032541D01*
X064046Y032691D02*
X063971Y032766D01*
X063821Y032766D01*
X063746Y032691D01*
X063773Y031826D02*
X063998Y031826D01*
X064074Y031751D01*
X064074Y031451D01*
X063998Y031376D01*
X063773Y031376D01*
X063773Y031826D01*
X064234Y031751D02*
X064309Y031826D01*
X064459Y031826D01*
X064534Y031751D01*
X064234Y031451D01*
X064309Y031376D01*
X064459Y031376D01*
X064534Y031451D01*
X064534Y031751D01*
X064234Y031751D02*
X064234Y031451D01*
X064207Y030826D02*
X064507Y030376D01*
X064507Y030826D01*
X064667Y030826D02*
X064892Y030826D01*
X064967Y030751D01*
X064967Y030451D01*
X064892Y030376D01*
X064667Y030376D01*
X064667Y030826D01*
X064207Y030826D02*
X064207Y030376D01*
X064046Y030451D02*
X064046Y030601D01*
X063896Y030601D01*
X063746Y030751D02*
X063746Y030451D01*
X063821Y030376D01*
X063971Y030376D01*
X064046Y030451D01*
X064046Y030751D02*
X063971Y030826D01*
X063821Y030826D01*
X063746Y030751D01*
X063773Y029826D02*
X063998Y029826D01*
X064074Y029751D01*
X064074Y029451D01*
X063998Y029376D01*
X063773Y029376D01*
X063773Y029826D01*
X064234Y029676D02*
X064384Y029826D01*
X064384Y029376D01*
X064234Y029376D02*
X064534Y029376D01*
X064507Y028826D02*
X064507Y028376D01*
X064207Y028826D01*
X064207Y028376D01*
X064046Y028451D02*
X064046Y028601D01*
X063896Y028601D01*
X063746Y028751D02*
X063746Y028451D01*
X063821Y028376D01*
X063971Y028376D01*
X064046Y028451D01*
X064046Y028751D02*
X063971Y028826D01*
X063821Y028826D01*
X063746Y028751D01*
X063773Y027953D02*
X063998Y027953D01*
X064074Y027878D01*
X064074Y027728D01*
X063998Y027653D01*
X063773Y027653D01*
X063773Y027503D02*
X063773Y027953D01*
X064234Y027953D02*
X064234Y027503D01*
X064534Y027503D01*
X064694Y027578D02*
X064769Y027503D01*
X064919Y027503D01*
X064994Y027578D01*
X064994Y027653D01*
X064919Y027728D01*
X064769Y027728D01*
X064694Y027803D01*
X064694Y027878D01*
X064769Y027953D01*
X064919Y027953D01*
X064994Y027878D01*
X064892Y028376D02*
X064967Y028451D01*
X064967Y028751D01*
X064892Y028826D01*
X064667Y028826D01*
X064667Y028376D01*
X064892Y028376D01*
X064892Y026826D02*
X064667Y026826D01*
X064667Y026376D01*
X064892Y026376D01*
X064967Y026451D01*
X064967Y026751D01*
X064892Y026826D01*
X064507Y026826D02*
X064507Y026376D01*
X064207Y026826D01*
X064207Y026376D01*
X064046Y026451D02*
X064046Y026601D01*
X063896Y026601D01*
X063746Y026751D02*
X063746Y026451D01*
X063821Y026376D01*
X063971Y026376D01*
X064046Y026451D01*
X064046Y026751D02*
X063971Y026826D01*
X063821Y026826D01*
X063746Y026751D01*
X058892Y019326D02*
X058667Y019326D01*
X058667Y018876D01*
X058892Y018876D01*
X058967Y018951D01*
X058967Y019251D01*
X058892Y019326D01*
X058507Y019251D02*
X058507Y018951D01*
X058432Y018876D01*
X058207Y018876D01*
X058207Y019326D01*
X058432Y019326D01*
X058507Y019251D01*
X058046Y019326D02*
X058046Y019026D01*
X057896Y018876D01*
X057746Y019026D01*
X057746Y019326D01*
X046946Y016847D02*
X046946Y016546D01*
X046496Y016546D01*
X046571Y016386D02*
X046496Y016311D01*
X046496Y016161D01*
X046571Y016086D01*
X046871Y016086D01*
X046946Y016161D01*
X046946Y016311D01*
X046871Y016386D01*
X046871Y015926D02*
X046946Y015851D01*
X046946Y015701D01*
X046871Y015626D01*
X046721Y015701D02*
X046721Y015851D01*
X046796Y015926D01*
X046871Y015926D01*
X046721Y015701D02*
X046646Y015626D01*
X046571Y015626D01*
X046496Y015701D01*
X046496Y015851D01*
X046571Y015926D01*
X045946Y015851D02*
X045946Y015701D01*
X045871Y015626D01*
X045721Y015701D02*
X045721Y015851D01*
X045796Y015926D01*
X045871Y015926D01*
X045946Y015851D01*
X045946Y016086D02*
X045946Y016311D01*
X045871Y016386D01*
X045571Y016386D01*
X045496Y016311D01*
X045496Y016086D01*
X045946Y016086D01*
X045571Y015926D02*
X045496Y015851D01*
X045496Y015701D01*
X045571Y015626D01*
X045646Y015626D01*
X045721Y015701D01*
X044946Y015626D02*
X044496Y015626D01*
X044946Y015926D01*
X044496Y015926D01*
X044571Y016086D02*
X044871Y016086D01*
X044946Y016161D01*
X044946Y016311D01*
X044871Y016386D01*
X044571Y016386D02*
X044496Y016311D01*
X044496Y016161D01*
X044571Y016086D01*
X043946Y016086D02*
X043496Y016086D01*
X043946Y016386D01*
X043496Y016386D01*
X043496Y016546D02*
X043496Y016772D01*
X043571Y016847D01*
X043871Y016847D01*
X043946Y016772D01*
X043946Y016546D01*
X043496Y016546D01*
X042946Y016546D02*
X042496Y016546D01*
X042571Y016386D02*
X042496Y016311D01*
X042496Y016161D01*
X042571Y016086D01*
X042871Y016086D01*
X042946Y016161D01*
X042946Y016311D01*
X042871Y016386D01*
X042796Y016546D02*
X042496Y016847D01*
X042721Y016622D02*
X042946Y016847D01*
X042871Y015926D02*
X042946Y015851D01*
X042946Y015701D01*
X042871Y015626D01*
X042721Y015701D02*
X042721Y015851D01*
X042796Y015926D01*
X042871Y015926D01*
X042721Y015701D02*
X042646Y015626D01*
X042571Y015626D01*
X042496Y015701D01*
X042496Y015851D01*
X042571Y015926D01*
X041946Y015926D02*
X041496Y015926D01*
X041646Y015776D01*
X041496Y015626D01*
X041946Y015626D01*
X041946Y016086D02*
X041946Y016236D01*
X041946Y016161D02*
X041496Y016161D01*
X041496Y016086D02*
X041496Y016236D01*
X041571Y016393D02*
X041646Y016393D01*
X041721Y016468D01*
X041721Y016618D01*
X041796Y016693D01*
X041871Y016693D01*
X041946Y016618D01*
X041946Y016468D01*
X041871Y016393D01*
X041571Y016393D02*
X041496Y016468D01*
X041496Y016618D01*
X041571Y016693D01*
X041571Y016853D02*
X041871Y016853D01*
X041946Y016928D01*
X041946Y017079D01*
X041871Y017154D01*
X041571Y017154D01*
X041496Y017079D01*
X041496Y016928D01*
X041571Y016853D01*
X040946Y016772D02*
X040946Y016622D01*
X040871Y016546D01*
X040871Y016386D02*
X040571Y016386D01*
X040496Y016311D01*
X040496Y016161D01*
X040571Y016086D01*
X040871Y016086D01*
X040946Y016161D01*
X040946Y016311D01*
X040871Y016386D01*
X040646Y016546D02*
X040721Y016622D01*
X040721Y016772D01*
X040796Y016847D01*
X040871Y016847D01*
X040946Y016772D01*
X040946Y017007D02*
X040946Y017157D01*
X040946Y017082D02*
X040496Y017082D01*
X040496Y017007D02*
X040496Y017157D01*
X040571Y016847D02*
X040496Y016772D01*
X040496Y016622D01*
X040571Y016546D01*
X040646Y016546D01*
X040496Y015926D02*
X040946Y015926D01*
X040946Y015626D02*
X040496Y015626D01*
X040646Y015776D01*
X040496Y015926D01*
X039946Y016046D02*
X039946Y016197D01*
X039946Y016122D02*
X039496Y016122D01*
X039496Y016197D02*
X039496Y016046D01*
X039571Y015886D02*
X039721Y015886D01*
X039796Y015811D01*
X039796Y015586D01*
X039946Y015586D02*
X039496Y015586D01*
X039496Y015811D01*
X039571Y015886D01*
X039571Y015426D02*
X039496Y015351D01*
X039496Y015201D01*
X039571Y015126D01*
X039871Y015126D01*
X039946Y015201D01*
X039946Y015351D01*
X039871Y015426D01*
X039721Y015426D01*
X039721Y015276D01*
X038946Y015351D02*
X038871Y015426D01*
X038721Y015426D01*
X038721Y015276D01*
X038571Y015426D02*
X038496Y015351D01*
X038496Y015201D01*
X038571Y015126D01*
X038871Y015126D01*
X038946Y015201D01*
X038946Y015351D01*
X038946Y015586D02*
X038496Y015586D01*
X038496Y015811D01*
X038571Y015886D01*
X038721Y015886D01*
X038796Y015811D01*
X038796Y015586D01*
X038946Y016046D02*
X038946Y016197D01*
X038946Y016122D02*
X038496Y016122D01*
X038496Y016197D02*
X038496Y016046D01*
X038571Y016353D02*
X038871Y016353D01*
X038946Y016428D01*
X038946Y016579D01*
X038871Y016654D01*
X038571Y016654D01*
X038496Y016579D01*
X038496Y016428D01*
X038571Y016353D01*
X038646Y016814D02*
X038496Y016964D01*
X038946Y016964D01*
X038946Y016814D02*
X038946Y017114D01*
X038871Y017274D02*
X038946Y017349D01*
X038946Y017499D01*
X038871Y017574D01*
X038571Y017574D01*
X038496Y017499D01*
X038496Y017349D01*
X038571Y017274D01*
X038646Y017274D01*
X038721Y017349D01*
X038721Y017574D01*
X037946Y017274D02*
X037871Y017274D01*
X037571Y017574D01*
X037496Y017574D01*
X037496Y017274D01*
X037496Y016964D02*
X037946Y016964D01*
X037946Y016814D02*
X037946Y017114D01*
X037646Y016814D02*
X037496Y016964D01*
X037571Y016654D02*
X037496Y016579D01*
X037496Y016428D01*
X037571Y016353D01*
X037871Y016353D01*
X037946Y016428D01*
X037946Y016579D01*
X037871Y016654D01*
X037571Y016654D01*
X037496Y016197D02*
X037496Y016046D01*
X037496Y016122D02*
X037946Y016122D01*
X037946Y016197D02*
X037946Y016046D01*
X037721Y015886D02*
X037796Y015811D01*
X037796Y015586D01*
X037946Y015586D02*
X037496Y015586D01*
X037496Y015811D01*
X037571Y015886D01*
X037721Y015886D01*
X037721Y015426D02*
X037721Y015276D01*
X037721Y015426D02*
X037871Y015426D01*
X037946Y015351D01*
X037946Y015201D01*
X037871Y015126D01*
X037571Y015126D01*
X037496Y015201D01*
X037496Y015351D01*
X037571Y015426D01*
X036446Y015351D02*
X036371Y015426D01*
X036221Y015426D01*
X036221Y015276D01*
X036071Y015426D02*
X035996Y015351D01*
X035996Y015201D01*
X036071Y015126D01*
X036371Y015126D01*
X036446Y015201D01*
X036446Y015351D01*
X036446Y015586D02*
X035996Y015586D01*
X035996Y015811D01*
X036071Y015886D01*
X036221Y015886D01*
X036296Y015811D01*
X036296Y015586D01*
X036446Y016046D02*
X036446Y016197D01*
X036446Y016122D02*
X035996Y016122D01*
X035996Y016197D02*
X035996Y016046D01*
X036071Y016353D02*
X036371Y016353D01*
X036446Y016428D01*
X036446Y016579D01*
X036371Y016654D01*
X036071Y016654D01*
X035996Y016579D01*
X035996Y016428D01*
X036071Y016353D01*
X036071Y016814D02*
X035996Y016889D01*
X035996Y017039D01*
X036071Y017114D01*
X036146Y017114D01*
X036446Y016814D01*
X036446Y017114D01*
X036446Y017274D02*
X036371Y017274D01*
X036071Y017574D01*
X035996Y017574D01*
X035996Y017274D01*
X035446Y017349D02*
X035446Y017499D01*
X035371Y017574D01*
X035296Y017574D01*
X035221Y017499D01*
X035221Y017424D01*
X035221Y017499D02*
X035146Y017574D01*
X035071Y017574D01*
X034996Y017499D01*
X034996Y017349D01*
X035071Y017274D01*
X035371Y017274D02*
X035446Y017349D01*
X035446Y017114D02*
X035446Y016814D01*
X035446Y016964D02*
X034996Y016964D01*
X035146Y016814D01*
X035071Y016654D02*
X034996Y016579D01*
X034996Y016428D01*
X035071Y016353D01*
X035371Y016353D01*
X035446Y016428D01*
X035446Y016579D01*
X035371Y016654D01*
X035071Y016654D01*
X034996Y016197D02*
X034996Y016046D01*
X034996Y016122D02*
X035446Y016122D01*
X035446Y016197D02*
X035446Y016046D01*
X035221Y015886D02*
X035296Y015811D01*
X035296Y015586D01*
X035446Y015586D02*
X034996Y015586D01*
X034996Y015811D01*
X035071Y015886D01*
X035221Y015886D01*
X035221Y015426D02*
X035221Y015276D01*
X035221Y015426D02*
X035371Y015426D01*
X035446Y015351D01*
X035446Y015201D01*
X035371Y015126D01*
X035071Y015126D01*
X034996Y015201D01*
X034996Y015351D01*
X035071Y015426D01*
X034446Y015351D02*
X034371Y015426D01*
X034221Y015426D01*
X034221Y015276D01*
X034071Y015426D02*
X033996Y015351D01*
X033996Y015201D01*
X034071Y015126D01*
X034371Y015126D01*
X034446Y015201D01*
X034446Y015351D01*
X034446Y015586D02*
X033996Y015586D01*
X033996Y015811D01*
X034071Y015886D01*
X034221Y015886D01*
X034296Y015811D01*
X034296Y015586D01*
X034446Y016046D02*
X034446Y016197D01*
X034446Y016122D02*
X033996Y016122D01*
X033996Y016197D02*
X033996Y016046D01*
X034071Y016353D02*
X034371Y016353D01*
X034446Y016428D01*
X034446Y016579D01*
X034371Y016654D01*
X034071Y016654D01*
X033996Y016579D01*
X033996Y016428D01*
X034071Y016353D01*
X034146Y016814D02*
X033996Y016964D01*
X034446Y016964D01*
X034446Y016814D02*
X034446Y017114D01*
X034446Y017274D02*
X034146Y017574D01*
X034071Y017574D01*
X033996Y017499D01*
X033996Y017349D01*
X034071Y017274D01*
X034446Y017274D02*
X034446Y017574D01*
X033446Y017499D02*
X033446Y017349D01*
X033371Y017274D01*
X033071Y017574D01*
X033371Y017574D01*
X033446Y017499D01*
X033371Y017274D02*
X033071Y017274D01*
X032996Y017349D01*
X032996Y017499D01*
X033071Y017574D01*
X033071Y017114D02*
X032996Y017039D01*
X032996Y016889D01*
X033071Y016814D01*
X033071Y016654D02*
X032996Y016579D01*
X032996Y016428D01*
X033071Y016353D01*
X033371Y016353D01*
X033446Y016428D01*
X033446Y016579D01*
X033371Y016654D01*
X033071Y016654D01*
X033446Y016814D02*
X033146Y017114D01*
X033071Y017114D01*
X033446Y017114D02*
X033446Y016814D01*
X032446Y016814D02*
X032446Y017114D01*
X032446Y016964D02*
X031996Y016964D01*
X032146Y016814D01*
X032071Y016654D02*
X031996Y016579D01*
X031996Y016428D01*
X032071Y016353D01*
X032371Y016353D01*
X032446Y016428D01*
X032446Y016579D01*
X032371Y016654D01*
X032071Y016654D01*
X031996Y016197D02*
X031996Y016046D01*
X031996Y016122D02*
X032446Y016122D01*
X032446Y016197D02*
X032446Y016046D01*
X032221Y015886D02*
X032296Y015811D01*
X032296Y015586D01*
X032446Y015586D02*
X031996Y015586D01*
X031996Y015811D01*
X032071Y015886D01*
X032221Y015886D01*
X032221Y015426D02*
X032221Y015276D01*
X032221Y015426D02*
X032371Y015426D01*
X032446Y015351D01*
X032446Y015201D01*
X032371Y015126D01*
X032071Y015126D01*
X031996Y015201D01*
X031996Y015351D01*
X032071Y015426D01*
X031446Y015351D02*
X031371Y015426D01*
X031221Y015426D01*
X031221Y015276D01*
X031071Y015426D02*
X030996Y015351D01*
X030996Y015201D01*
X031071Y015126D01*
X031371Y015126D01*
X031446Y015201D01*
X031446Y015351D01*
X031446Y015586D02*
X030996Y015586D01*
X030996Y015811D01*
X031071Y015886D01*
X031221Y015886D01*
X031296Y015811D01*
X031296Y015586D01*
X031446Y016046D02*
X031446Y016197D01*
X031446Y016122D02*
X030996Y016122D01*
X030996Y016197D02*
X030996Y016046D01*
X031071Y016353D02*
X031371Y016353D01*
X031446Y016428D01*
X031446Y016579D01*
X031371Y016654D01*
X031071Y016654D01*
X030996Y016579D01*
X030996Y016428D01*
X031071Y016353D01*
X031071Y016814D02*
X030996Y016889D01*
X030996Y017039D01*
X031071Y017114D01*
X031146Y017114D01*
X031446Y016814D01*
X031446Y017114D01*
X031446Y017274D02*
X031446Y017574D01*
X031446Y017424D02*
X030996Y017424D01*
X031146Y017274D01*
X031996Y017349D02*
X031996Y017499D01*
X032071Y017574D01*
X032146Y017574D01*
X032221Y017499D01*
X032221Y017349D01*
X032146Y017274D01*
X032071Y017274D01*
X031996Y017349D01*
X032221Y017349D02*
X032296Y017274D01*
X032371Y017274D01*
X032446Y017349D01*
X032446Y017499D01*
X032371Y017574D01*
X032296Y017574D01*
X032221Y017499D01*
X030446Y016272D02*
X030371Y016347D01*
X030071Y016347D01*
X029996Y016272D01*
X029996Y016046D01*
X030446Y016046D01*
X030446Y016272D01*
X030446Y015886D02*
X029996Y015586D01*
X029996Y015426D02*
X029996Y015126D01*
X029996Y015276D02*
X030446Y015276D01*
X030446Y015586D02*
X029996Y015886D01*
X029446Y015886D02*
X028996Y015586D01*
X029071Y015426D02*
X029221Y015426D01*
X029296Y015351D01*
X029296Y015126D01*
X029296Y015276D02*
X029446Y015426D01*
X029446Y015586D02*
X028996Y015886D01*
X028996Y016046D02*
X028996Y016272D01*
X029071Y016347D01*
X029371Y016347D01*
X029446Y016272D01*
X029446Y016046D01*
X028996Y016046D01*
X029071Y015426D02*
X028996Y015351D01*
X028996Y015126D01*
X029446Y015126D01*
X030721Y013476D02*
X030646Y013401D01*
X030646Y013101D01*
X030721Y013026D01*
X030871Y013026D01*
X030946Y013101D01*
X030946Y013251D01*
X030796Y013251D01*
X030946Y013401D02*
X030871Y013476D01*
X030721Y013476D01*
X031107Y013476D02*
X031107Y013026D01*
X031107Y013176D02*
X031332Y013176D01*
X031407Y013251D01*
X031407Y013401D01*
X031332Y013476D01*
X031107Y013476D01*
X031567Y013476D02*
X031717Y013476D01*
X031642Y013476D02*
X031642Y013026D01*
X031567Y013026D02*
X031717Y013026D01*
X031874Y013101D02*
X031949Y013026D01*
X032099Y013026D01*
X032174Y013101D01*
X032174Y013401D01*
X032099Y013476D01*
X031949Y013476D01*
X031874Y013401D01*
X031874Y013101D01*
X032334Y013026D02*
X032634Y013326D01*
X032634Y013401D01*
X032559Y013476D01*
X032409Y013476D01*
X032334Y013401D01*
X032334Y013026D02*
X032634Y013026D01*
X032795Y013026D02*
X033095Y013026D01*
X032945Y013026D02*
X032945Y013476D01*
X032795Y013326D01*
X032832Y012726D02*
X032907Y012651D01*
X032907Y012501D01*
X032832Y012426D01*
X032607Y012426D01*
X032607Y012276D02*
X032607Y012726D01*
X032832Y012726D01*
X033067Y012726D02*
X033217Y012726D01*
X033142Y012726D02*
X033142Y012276D01*
X033067Y012276D02*
X033217Y012276D01*
X033374Y012351D02*
X033449Y012276D01*
X033599Y012276D01*
X033674Y012351D01*
X033674Y012651D01*
X033599Y012726D01*
X033449Y012726D01*
X033374Y012651D01*
X033374Y012351D01*
X033834Y012276D02*
X034134Y012576D01*
X034134Y012651D01*
X034059Y012726D01*
X033909Y012726D01*
X033834Y012651D01*
X033834Y012276D02*
X034134Y012276D01*
X034295Y012351D02*
X034595Y012651D01*
X034595Y012351D01*
X034520Y012276D01*
X034370Y012276D01*
X034295Y012351D01*
X034295Y012651D01*
X034370Y012726D01*
X034520Y012726D01*
X034595Y012651D01*
X034567Y013026D02*
X034717Y013026D01*
X034642Y013026D02*
X034642Y013476D01*
X034567Y013476D02*
X034717Y013476D01*
X034874Y013401D02*
X034874Y013101D01*
X034949Y013026D01*
X035099Y013026D01*
X035174Y013101D01*
X035174Y013401D01*
X035099Y013476D01*
X034949Y013476D01*
X034874Y013401D01*
X035334Y013401D02*
X035409Y013476D01*
X035559Y013476D01*
X035634Y013401D01*
X035634Y013326D01*
X035334Y013026D01*
X035634Y013026D01*
X035795Y013026D02*
X035795Y013101D01*
X036095Y013401D01*
X036095Y013476D01*
X035795Y013476D01*
X036356Y013311D02*
X036356Y013011D01*
X036431Y012936D01*
X036581Y012936D01*
X036656Y013011D01*
X036656Y013161D01*
X036506Y013161D01*
X036356Y013311D02*
X036431Y013386D01*
X036581Y013386D01*
X036656Y013311D01*
X036817Y013386D02*
X037042Y013386D01*
X037117Y013311D01*
X037117Y013161D01*
X037042Y013086D01*
X036817Y013086D01*
X036817Y012936D02*
X036817Y013386D01*
X037277Y013386D02*
X037427Y013386D01*
X037352Y013386D02*
X037352Y012936D01*
X037277Y012936D02*
X037427Y012936D01*
X037584Y013011D02*
X037584Y013311D01*
X037659Y013386D01*
X037809Y013386D01*
X037884Y013311D01*
X037884Y013011D01*
X037809Y012936D01*
X037659Y012936D01*
X037584Y013011D01*
X037595Y012726D02*
X037595Y012651D01*
X037295Y012351D01*
X037295Y012276D01*
X037134Y012276D02*
X036834Y012276D01*
X036984Y012276D02*
X036984Y012726D01*
X036834Y012576D01*
X036674Y012651D02*
X036599Y012726D01*
X036449Y012726D01*
X036374Y012651D01*
X036374Y012351D01*
X036449Y012276D01*
X036599Y012276D01*
X036674Y012351D01*
X036674Y012651D01*
X036217Y012726D02*
X036067Y012726D01*
X036142Y012726D02*
X036142Y012276D01*
X036067Y012276D02*
X036217Y012276D01*
X035907Y012501D02*
X035832Y012426D01*
X035607Y012426D01*
X035607Y012276D02*
X035607Y012726D01*
X035832Y012726D01*
X035907Y012651D01*
X035907Y012501D01*
X035446Y012501D02*
X035296Y012501D01*
X035446Y012501D02*
X035446Y012351D01*
X035371Y012276D01*
X035221Y012276D01*
X035146Y012351D01*
X035146Y012651D01*
X035221Y012726D01*
X035371Y012726D01*
X035446Y012651D01*
X034407Y013251D02*
X034332Y013176D01*
X034107Y013176D01*
X034107Y013026D02*
X034107Y013476D01*
X034332Y013476D01*
X034407Y013401D01*
X034407Y013251D01*
X033946Y013251D02*
X033946Y013101D01*
X033871Y013026D01*
X033721Y013026D01*
X033646Y013101D01*
X033646Y013401D01*
X033721Y013476D01*
X033871Y013476D01*
X033946Y013401D01*
X033946Y013251D02*
X033796Y013251D01*
X032446Y012651D02*
X032371Y012726D01*
X032221Y012726D01*
X032146Y012651D01*
X032146Y012351D01*
X032221Y012276D01*
X032371Y012276D01*
X032446Y012351D01*
X032446Y012501D01*
X032296Y012501D01*
X030867Y012351D02*
X030792Y012276D01*
X030567Y012276D01*
X030567Y012726D01*
X030792Y012726D01*
X030867Y012651D01*
X030867Y012351D01*
X030407Y012276D02*
X030107Y012726D01*
X029946Y012726D02*
X029646Y012726D01*
X029796Y012726D02*
X029796Y012276D01*
X030107Y012276D02*
X030407Y012726D01*
X029367Y012651D02*
X029292Y012726D01*
X029067Y012726D01*
X029067Y012276D01*
X029292Y012276D01*
X029367Y012351D01*
X029367Y012651D01*
X028907Y012726D02*
X028607Y012276D01*
X028446Y012276D02*
X028296Y012426D01*
X028371Y012426D02*
X028146Y012426D01*
X028146Y012276D02*
X028146Y012726D01*
X028371Y012726D01*
X028446Y012651D01*
X028446Y012501D01*
X028371Y012426D01*
X028607Y012726D02*
X028907Y012276D01*
X028832Y008976D02*
X028907Y008901D01*
X028907Y008826D01*
X028832Y008751D01*
X028907Y008676D01*
X028907Y008601D01*
X028832Y008526D01*
X028682Y008526D01*
X028607Y008601D01*
X028446Y008526D02*
X028146Y008526D01*
X028446Y008826D01*
X028446Y008901D01*
X028371Y008976D01*
X028221Y008976D01*
X028146Y008901D01*
X028607Y008901D02*
X028682Y008976D01*
X028832Y008976D01*
X028832Y008751D02*
X028757Y008751D01*
X029067Y008901D02*
X029142Y008976D01*
X029292Y008976D01*
X029367Y008901D01*
X029367Y008826D01*
X029067Y008526D01*
X029367Y008526D01*
X029646Y008526D02*
X029946Y008826D01*
X029946Y008901D01*
X029871Y008976D01*
X029721Y008976D01*
X029646Y008901D01*
X029646Y008526D02*
X029946Y008526D01*
X030107Y008601D02*
X030182Y008526D01*
X030332Y008526D01*
X030407Y008601D01*
X030407Y008676D01*
X030332Y008751D01*
X030257Y008751D01*
X030332Y008751D02*
X030407Y008826D01*
X030407Y008901D01*
X030332Y008976D01*
X030182Y008976D01*
X030107Y008901D01*
X030567Y008901D02*
X030642Y008976D01*
X030792Y008976D01*
X030867Y008901D01*
X030867Y008826D01*
X030567Y008526D01*
X030867Y008526D01*
X031146Y008601D02*
X031221Y008526D01*
X031371Y008526D01*
X031446Y008601D01*
X031446Y008676D01*
X031371Y008751D01*
X031221Y008751D01*
X031146Y008826D01*
X031146Y008901D01*
X031221Y008976D01*
X031371Y008976D01*
X031446Y008901D01*
X031607Y008976D02*
X031607Y008526D01*
X031757Y008676D01*
X031907Y008526D01*
X031907Y008976D01*
X032067Y008976D02*
X032367Y008976D01*
X032367Y008901D01*
X032067Y008601D01*
X032067Y008526D01*
X032067Y008226D02*
X032067Y008001D01*
X032217Y008076D01*
X032292Y008076D01*
X032367Y008001D01*
X032367Y007851D01*
X032292Y007776D01*
X032142Y007776D01*
X032067Y007851D01*
X031907Y008001D02*
X031832Y007926D01*
X031607Y007926D01*
X031607Y007776D02*
X031607Y008226D01*
X031832Y008226D01*
X031907Y008151D01*
X031907Y008001D01*
X032067Y008226D02*
X032367Y008226D01*
X032796Y008226D02*
X032946Y008226D01*
X032871Y008226D02*
X032871Y007851D01*
X032796Y007776D01*
X032721Y007776D01*
X032646Y007851D01*
X033107Y007926D02*
X033332Y007926D01*
X033407Y008001D01*
X033407Y008151D01*
X033332Y008226D01*
X033107Y008226D01*
X033107Y007776D01*
X033567Y008001D02*
X033867Y008001D01*
X033792Y008226D02*
X033567Y008001D01*
X033792Y007776D02*
X033792Y008226D01*
X033792Y008526D02*
X033867Y008601D01*
X033867Y008676D01*
X033792Y008751D01*
X033567Y008751D01*
X033567Y008601D01*
X033642Y008526D01*
X033792Y008526D01*
X033567Y008751D02*
X033717Y008901D01*
X033867Y008976D01*
X034146Y008901D02*
X034146Y008826D01*
X034221Y008751D01*
X034371Y008751D01*
X034446Y008676D01*
X034446Y008601D01*
X034371Y008526D01*
X034221Y008526D01*
X034146Y008601D01*
X034146Y008901D02*
X034221Y008976D01*
X034371Y008976D01*
X034446Y008901D01*
X034607Y008976D02*
X034607Y008526D01*
X034757Y008676D01*
X034907Y008526D01*
X034907Y008976D01*
X035067Y008976D02*
X035067Y008751D01*
X035217Y008826D01*
X035292Y008826D01*
X035367Y008751D01*
X035367Y008601D01*
X035292Y008526D01*
X035142Y008526D01*
X035067Y008601D01*
X035067Y008976D02*
X035367Y008976D01*
X035646Y008901D02*
X035646Y008826D01*
X035721Y008751D01*
X035871Y008751D01*
X035946Y008676D01*
X035946Y008601D01*
X035871Y008526D01*
X035721Y008526D01*
X035646Y008601D01*
X035646Y008901D02*
X035721Y008976D01*
X035871Y008976D01*
X035946Y008901D01*
X036107Y008976D02*
X036107Y008526D01*
X036257Y008676D01*
X036407Y008526D01*
X036407Y008976D01*
X036567Y008751D02*
X036867Y008751D01*
X036792Y008526D02*
X036792Y008976D01*
X036567Y008751D01*
X037396Y008751D02*
X037621Y008751D01*
X037696Y008676D01*
X037696Y008601D01*
X037621Y008526D01*
X037396Y008526D01*
X037396Y008976D01*
X037621Y008976D01*
X037696Y008901D01*
X037696Y008826D01*
X037621Y008751D01*
X037857Y008601D02*
X038157Y008901D01*
X038157Y008976D01*
X037857Y008976D01*
X037857Y008601D02*
X037857Y008526D01*
X038157Y008526D01*
X038317Y008226D02*
X038167Y008076D01*
X038007Y008001D02*
X037932Y007926D01*
X037707Y007926D01*
X037707Y007776D02*
X037707Y008226D01*
X037932Y008226D01*
X038007Y008151D01*
X038007Y008001D01*
X038167Y007776D02*
X038467Y007776D01*
X038317Y007776D02*
X038317Y008226D01*
X037546Y008226D02*
X037396Y008226D01*
X037471Y008226D02*
X037471Y007851D01*
X037396Y007776D01*
X037321Y007776D01*
X037246Y007851D01*
X036867Y007776D02*
X036567Y007776D01*
X036867Y008076D01*
X036867Y008151D01*
X036792Y008226D01*
X036642Y008226D01*
X036567Y008151D01*
X036407Y008151D02*
X036407Y008001D01*
X036332Y007926D01*
X036107Y007926D01*
X036107Y007776D02*
X036107Y008226D01*
X036332Y008226D01*
X036407Y008151D01*
X035946Y008226D02*
X035796Y008226D01*
X035871Y008226D02*
X035871Y007851D01*
X035796Y007776D01*
X035721Y007776D01*
X035646Y007851D01*
X035367Y007851D02*
X035292Y007776D01*
X035142Y007776D01*
X035067Y007851D01*
X035217Y008001D02*
X035292Y008001D01*
X035367Y007926D01*
X035367Y007851D01*
X035292Y008001D02*
X035367Y008076D01*
X035367Y008151D01*
X035292Y008226D01*
X035142Y008226D01*
X035067Y008151D01*
X034907Y008151D02*
X034907Y008001D01*
X034832Y007926D01*
X034607Y007926D01*
X034607Y007776D02*
X034607Y008226D01*
X034832Y008226D01*
X034907Y008151D01*
X034446Y008226D02*
X034296Y008226D01*
X034371Y008226D02*
X034371Y007851D01*
X034296Y007776D01*
X034221Y007776D01*
X034146Y007851D01*
X033407Y008526D02*
X033407Y008976D01*
X033107Y008976D02*
X033107Y008526D01*
X033257Y008676D01*
X033407Y008526D01*
X032946Y008601D02*
X032871Y008526D01*
X032721Y008526D01*
X032646Y008601D01*
X032721Y008751D02*
X032871Y008751D01*
X032946Y008676D01*
X032946Y008601D01*
X032721Y008751D02*
X032646Y008826D01*
X032646Y008901D01*
X032721Y008976D01*
X032871Y008976D01*
X032946Y008901D01*
X031446Y008226D02*
X031296Y008226D01*
X031371Y008226D02*
X031371Y007851D01*
X031296Y007776D01*
X031221Y007776D01*
X031146Y007851D01*
X030867Y007851D02*
X030867Y007926D01*
X030792Y008001D01*
X030567Y008001D01*
X030567Y007851D01*
X030642Y007776D01*
X030792Y007776D01*
X030867Y007851D01*
X030717Y008151D02*
X030567Y008001D01*
X030407Y008001D02*
X030332Y007926D01*
X030107Y007926D01*
X030107Y007776D02*
X030107Y008226D01*
X030332Y008226D01*
X030407Y008151D01*
X030407Y008001D01*
X030717Y008151D02*
X030867Y008226D01*
X029946Y008226D02*
X029796Y008226D01*
X029871Y008226D02*
X029871Y007851D01*
X029796Y007776D01*
X029721Y007776D01*
X029646Y007851D01*
X029367Y008151D02*
X029067Y007851D01*
X029067Y007776D01*
X028907Y008001D02*
X028832Y007926D01*
X028607Y007926D01*
X028607Y007776D02*
X028607Y008226D01*
X028832Y008226D01*
X028907Y008151D01*
X028907Y008001D01*
X029067Y008226D02*
X029367Y008226D01*
X029367Y008151D01*
X028446Y008226D02*
X028296Y008226D01*
X028371Y008226D02*
X028371Y007851D01*
X028296Y007776D01*
X028221Y007776D01*
X028146Y007851D01*
X030905Y006850D02*
X030905Y006400D01*
X030905Y006550D02*
X031130Y006550D01*
X031206Y006625D01*
X031206Y006775D01*
X031130Y006850D01*
X030905Y006850D01*
X031055Y006550D02*
X031206Y006400D01*
X031366Y006475D02*
X031366Y006550D01*
X031441Y006625D01*
X031591Y006625D01*
X031666Y006550D01*
X031666Y006475D01*
X031591Y006400D01*
X031441Y006400D01*
X031366Y006475D01*
X031441Y006625D02*
X031366Y006700D01*
X031366Y006775D01*
X031441Y006850D01*
X031591Y006850D01*
X031666Y006775D01*
X031666Y006700D01*
X031591Y006625D01*
X035405Y006550D02*
X035630Y006550D01*
X035705Y006625D01*
X035705Y006775D01*
X035630Y006850D01*
X035405Y006850D01*
X035405Y006400D01*
X035555Y006550D02*
X035705Y006400D01*
X035866Y006400D02*
X035866Y006475D01*
X036166Y006775D01*
X036166Y006850D01*
X035866Y006850D01*
X039905Y006850D02*
X039905Y006400D01*
X039905Y006550D02*
X040130Y006550D01*
X040205Y006625D01*
X040205Y006775D01*
X040130Y006850D01*
X039905Y006850D01*
X040055Y006550D02*
X040205Y006400D01*
X040366Y006475D02*
X040441Y006400D01*
X040591Y006400D01*
X040666Y006475D01*
X040666Y006550D01*
X040591Y006625D01*
X040366Y006625D01*
X040366Y006475D01*
X040366Y006625D02*
X040516Y006775D01*
X040666Y006850D01*
X043615Y008376D02*
X043615Y008826D01*
X043840Y008826D01*
X043915Y008751D01*
X043915Y008601D01*
X043840Y008526D01*
X043615Y008526D01*
X043765Y008526D02*
X043915Y008376D01*
X044075Y008376D02*
X044376Y008376D01*
X044226Y008376D02*
X044226Y008826D01*
X044075Y008676D01*
X044536Y008751D02*
X044611Y008826D01*
X044761Y008826D01*
X044836Y008751D01*
X044836Y008676D01*
X044536Y008376D01*
X044836Y008376D01*
X045615Y008376D02*
X045615Y008826D01*
X045840Y008826D01*
X045915Y008751D01*
X045915Y008601D01*
X045840Y008526D01*
X045615Y008526D01*
X045765Y008526D02*
X045915Y008376D01*
X046075Y008376D02*
X046376Y008376D01*
X046226Y008376D02*
X046226Y008826D01*
X046075Y008676D01*
X046536Y008676D02*
X046686Y008826D01*
X046686Y008376D01*
X046536Y008376D02*
X046836Y008376D01*
X047615Y008376D02*
X047615Y008826D01*
X047840Y008826D01*
X047915Y008751D01*
X047915Y008601D01*
X047840Y008526D01*
X047615Y008526D01*
X047765Y008526D02*
X047915Y008376D01*
X048075Y008376D02*
X048376Y008376D01*
X048226Y008376D02*
X048226Y008826D01*
X048075Y008676D01*
X048536Y008751D02*
X048536Y008451D01*
X048836Y008751D01*
X048836Y008451D01*
X048761Y008376D01*
X048611Y008376D01*
X048536Y008451D01*
X048536Y008751D02*
X048611Y008826D01*
X048761Y008826D01*
X048836Y008751D01*
X049576Y008826D02*
X049576Y008376D01*
X049576Y008526D02*
X049801Y008526D01*
X049876Y008601D01*
X049876Y008751D01*
X049801Y008826D01*
X049576Y008826D01*
X049726Y008526D02*
X049876Y008376D01*
X050036Y008451D02*
X050111Y008376D01*
X050261Y008376D01*
X050336Y008451D01*
X050336Y008751D01*
X050261Y008826D01*
X050111Y008826D01*
X050036Y008751D01*
X050036Y008676D01*
X050111Y008601D01*
X050336Y008601D01*
X049591Y006834D02*
X049366Y006609D01*
X049666Y006609D01*
X049591Y006384D02*
X049591Y006834D01*
X049206Y006759D02*
X049206Y006609D01*
X049130Y006534D01*
X048905Y006534D01*
X048905Y006384D02*
X048905Y006834D01*
X049130Y006834D01*
X049206Y006759D01*
X049055Y006534D02*
X049206Y006384D01*
X045166Y006475D02*
X045091Y006400D01*
X044941Y006400D01*
X044866Y006475D01*
X044866Y006625D02*
X045016Y006700D01*
X045091Y006700D01*
X045166Y006625D01*
X045166Y006475D01*
X044866Y006625D02*
X044866Y006850D01*
X045166Y006850D01*
X044706Y006775D02*
X044706Y006625D01*
X044630Y006550D01*
X044405Y006550D01*
X044405Y006400D02*
X044405Y006850D01*
X044630Y006850D01*
X044706Y006775D01*
X044555Y006550D02*
X044706Y006400D01*
X053405Y006384D02*
X053405Y006834D01*
X053630Y006834D01*
X053706Y006759D01*
X053706Y006609D01*
X053630Y006534D01*
X053405Y006534D01*
X053555Y006534D02*
X053706Y006384D01*
X053866Y006459D02*
X053941Y006384D01*
X054091Y006384D01*
X054166Y006459D01*
X054166Y006534D01*
X054091Y006609D01*
X054016Y006609D01*
X054091Y006609D02*
X054166Y006684D01*
X054166Y006759D01*
X054091Y006834D01*
X053941Y006834D01*
X053866Y006759D01*
X057905Y006834D02*
X057905Y006384D01*
X057905Y006534D02*
X058130Y006534D01*
X058205Y006609D01*
X058205Y006759D01*
X058130Y006834D01*
X057905Y006834D01*
X058055Y006534D02*
X058205Y006384D01*
X058366Y006384D02*
X058666Y006684D01*
X058666Y006759D01*
X058591Y006834D01*
X058441Y006834D01*
X058366Y006759D01*
X058366Y006384D02*
X058666Y006384D01*
X062405Y006384D02*
X062405Y006834D01*
X062630Y006834D01*
X062706Y006759D01*
X062706Y006609D01*
X062630Y006534D01*
X062405Y006534D01*
X062555Y006534D02*
X062706Y006384D01*
X062866Y006384D02*
X063166Y006384D01*
X063016Y006384D02*
X063016Y006834D01*
X062866Y006684D01*
X061467Y009376D02*
X061167Y009376D01*
X061317Y009376D02*
X061317Y009826D01*
X061167Y009676D01*
X061007Y009751D02*
X060707Y009451D01*
X060707Y009376D01*
X061007Y009376D01*
X061007Y009751D02*
X061007Y009826D01*
X060707Y009826D01*
X060546Y009751D02*
X060546Y009676D01*
X060471Y009601D01*
X060246Y009601D01*
X060246Y009826D02*
X060471Y009826D01*
X060546Y009751D01*
X060471Y009601D02*
X060546Y009526D01*
X060546Y009451D01*
X060471Y009376D01*
X060246Y009376D01*
X060246Y009826D01*
X045946Y016546D02*
X045646Y016546D01*
X045496Y016697D01*
X045646Y016847D01*
X045946Y016847D01*
X045721Y016847D02*
X045721Y016546D01*
X043946Y015851D02*
X043871Y015926D01*
X043721Y015926D01*
X043721Y015776D01*
X043571Y015926D02*
X043496Y015851D01*
X043496Y015701D01*
X043571Y015626D01*
X043871Y015626D01*
X043946Y015701D01*
X043946Y015851D01*
X039946Y016428D02*
X039946Y016579D01*
X039871Y016654D01*
X039571Y016654D01*
X039496Y016579D01*
X039496Y016428D01*
X039571Y016353D01*
X039871Y016353D01*
X039946Y016428D01*
X039946Y016814D02*
X039946Y017114D01*
X039946Y016964D02*
X039496Y016964D01*
X039646Y016814D01*
X039721Y017274D02*
X039721Y017499D01*
X039796Y017574D01*
X039871Y017574D01*
X039946Y017499D01*
X039946Y017349D01*
X039871Y017274D01*
X039721Y017274D01*
X039571Y017424D01*
X039496Y017574D01*
X033446Y016197D02*
X033446Y016046D01*
X033446Y016122D02*
X032996Y016122D01*
X032996Y016197D02*
X032996Y016046D01*
X033071Y015886D02*
X033221Y015886D01*
X033296Y015811D01*
X033296Y015586D01*
X033446Y015586D02*
X032996Y015586D01*
X032996Y015811D01*
X033071Y015886D01*
X033071Y015426D02*
X032996Y015351D01*
X032996Y015201D01*
X033071Y015126D01*
X033371Y015126D01*
X033446Y015201D01*
X033446Y015351D01*
X033371Y015426D01*
X033221Y015426D01*
X033221Y015276D01*
X037295Y012726D02*
X037595Y012726D01*
X038044Y012936D02*
X038344Y012936D01*
X038194Y012936D02*
X038194Y013386D01*
X038044Y013236D01*
X038505Y013236D02*
X038505Y013311D01*
X038580Y013386D01*
X038730Y013386D01*
X038805Y013311D01*
X038805Y013236D01*
X038730Y013161D01*
X038580Y013161D01*
X038505Y013236D01*
X038580Y013161D02*
X038505Y013086D01*
X038505Y013011D01*
X038580Y012936D01*
X038730Y012936D01*
X038805Y013011D01*
X038805Y013086D01*
X038730Y013161D01*
X028257Y018386D02*
X027957Y018386D01*
X028257Y018686D01*
X028257Y018761D01*
X028182Y018836D01*
X028032Y018836D01*
X027957Y018761D01*
X027797Y018836D02*
X027797Y018386D01*
X027497Y018836D01*
X027497Y018386D01*
X027336Y018461D02*
X027261Y018386D01*
X027111Y018386D01*
X027036Y018461D01*
X027036Y018761D01*
X027111Y018836D01*
X027261Y018836D01*
X027336Y018761D01*
X021281Y009917D02*
X021356Y009842D01*
X021356Y009692D01*
X021281Y009616D01*
X021131Y009616D02*
X021056Y009767D01*
X021056Y009842D01*
X021131Y009917D01*
X021281Y009917D01*
X021131Y009616D02*
X020906Y009616D01*
X020906Y009917D01*
X020906Y009456D02*
X021356Y009456D01*
X020906Y009156D01*
X021356Y009156D01*
X021281Y008996D02*
X021356Y008921D01*
X021356Y008771D01*
X021281Y008696D01*
X020981Y008696D01*
X020906Y008771D01*
X020906Y008921D01*
X020981Y008996D01*
X022246Y008776D02*
X022696Y008776D01*
X022696Y008626D02*
X022696Y008926D01*
X022396Y008626D02*
X022246Y008776D01*
X023746Y008701D02*
X023821Y008626D01*
X023746Y008701D02*
X023746Y008851D01*
X023821Y008926D01*
X023896Y008926D01*
X024196Y008626D01*
X024196Y008926D01*
X023628Y006851D02*
X023628Y006551D01*
X023778Y006701D02*
X023478Y006701D01*
X024815Y005666D02*
X024815Y005366D01*
X024890Y005291D01*
X025040Y005291D01*
X025115Y005366D01*
X025276Y005516D02*
X025576Y005516D01*
X025501Y005291D02*
X025501Y005741D01*
X025276Y005516D01*
X025115Y005666D02*
X025040Y005741D01*
X024890Y005741D01*
X024815Y005666D01*
X044746Y032876D02*
X044746Y033326D01*
X044971Y033326D01*
X045046Y033251D01*
X045046Y033101D01*
X044971Y033026D01*
X044746Y033026D01*
X044896Y033026D02*
X045046Y032876D01*
X045207Y032876D02*
X045507Y032876D01*
X045357Y032876D02*
X045357Y033326D01*
X045207Y033176D01*
X045667Y033101D02*
X045667Y032951D01*
X045742Y032876D01*
X045892Y032876D01*
X045967Y032951D01*
X045967Y033026D01*
X045892Y033101D01*
X045667Y033101D01*
X045817Y033251D01*
X045967Y033326D01*
X045667Y033876D02*
X045667Y033951D01*
X045967Y034251D01*
X045967Y034326D01*
X045667Y034326D01*
X045357Y034326D02*
X045357Y033876D01*
X045207Y033876D02*
X045507Y033876D01*
X045207Y034176D02*
X045357Y034326D01*
X045046Y034251D02*
X045046Y034101D01*
X044971Y034026D01*
X044746Y034026D01*
X044746Y033876D02*
X044746Y034326D01*
X044971Y034326D01*
X045046Y034251D01*
X044896Y034026D02*
X045046Y033876D01*
X043446Y035626D02*
X042996Y035626D01*
X043446Y035926D01*
X042996Y035926D01*
X043071Y036086D02*
X043371Y036086D01*
X043446Y036161D01*
X043446Y036311D01*
X043371Y036386D01*
X043071Y036386D02*
X042996Y036311D01*
X042996Y036161D01*
X043071Y036086D01*
X042221Y036564D02*
X042221Y036714D01*
X040446Y036427D02*
X040296Y036577D01*
X039996Y036577D01*
X039996Y036277D02*
X040296Y036277D01*
X040446Y036427D01*
X040371Y036117D02*
X040446Y036041D01*
X040446Y035891D01*
X040371Y035816D01*
X040221Y035966D02*
X040221Y036041D01*
X040296Y036117D01*
X040371Y036117D01*
X040221Y036041D02*
X040146Y036117D01*
X040071Y036117D01*
X039996Y036041D01*
X039996Y035891D01*
X040071Y035816D01*
X054565Y035882D02*
X054640Y035807D01*
X054790Y035807D01*
X054865Y035882D01*
X054865Y035957D01*
X054790Y036032D01*
X054640Y036032D01*
X054565Y036107D01*
X054565Y036182D01*
X054640Y036257D01*
X054790Y036257D01*
X054865Y036182D01*
X055026Y036257D02*
X055026Y035807D01*
X055176Y035957D01*
X055326Y035807D01*
X055326Y036257D01*
X055486Y036182D02*
X055561Y036257D01*
X055711Y036257D01*
X055786Y036182D01*
X055786Y035882D01*
X055711Y035807D01*
X055561Y035807D01*
X055486Y035882D01*
X055561Y036032D02*
X055786Y036032D01*
X055561Y036032D02*
X055486Y036107D01*
X055486Y036182D01*
D11*
X038788Y024304D02*
X038788Y024190D01*
X038788Y023963D02*
X038788Y023510D01*
X038675Y023510D02*
X038901Y023510D01*
X039141Y023510D02*
X039141Y023963D01*
X039481Y023963D01*
X039595Y023850D01*
X039595Y023510D01*
X039841Y023623D02*
X039954Y023510D01*
X040295Y023510D01*
X040295Y023396D02*
X040295Y023963D01*
X039954Y023963D01*
X039841Y023850D01*
X039841Y023623D01*
X040068Y023283D02*
X040181Y023283D01*
X040295Y023396D01*
X041240Y023510D02*
X041581Y023510D01*
X041694Y023623D01*
X041694Y023737D01*
X041581Y023850D01*
X041240Y023850D01*
X041240Y023510D02*
X041240Y024190D01*
X041581Y024190D01*
X041694Y024077D01*
X041694Y023963D01*
X041581Y023850D01*
X041940Y023850D02*
X041940Y023623D01*
X042054Y023510D01*
X042280Y023510D01*
X042394Y023623D01*
X042394Y023850D01*
X042280Y023963D01*
X042054Y023963D01*
X041940Y023850D01*
X042640Y023623D02*
X042753Y023737D01*
X043094Y023737D01*
X043094Y023850D02*
X043094Y023510D01*
X042753Y023510D01*
X042640Y023623D01*
X042753Y023963D02*
X042980Y023963D01*
X043094Y023850D01*
X043340Y023737D02*
X043566Y023963D01*
X043680Y023963D01*
X043923Y023850D02*
X044036Y023963D01*
X044376Y023963D01*
X044376Y024190D02*
X044376Y023510D01*
X044036Y023510D01*
X043923Y023623D01*
X043923Y023850D01*
X043340Y023963D02*
X043340Y023510D01*
X038788Y023963D02*
X038675Y023963D01*
X038429Y023850D02*
X038315Y023963D01*
X037975Y023963D01*
X037975Y023510D01*
X037735Y023510D02*
X037508Y023510D01*
X037622Y023510D02*
X037622Y023963D01*
X037508Y023963D01*
X037622Y024190D02*
X037622Y024304D01*
X037262Y023850D02*
X037149Y023963D01*
X036922Y023963D01*
X036922Y023737D02*
X036809Y023623D01*
X036922Y023510D01*
X037262Y023510D01*
X037262Y023850D01*
X037262Y023737D02*
X036922Y023737D01*
X036566Y023963D02*
X036452Y023963D01*
X036225Y023737D01*
X036225Y023963D02*
X036225Y023510D01*
X035752Y023510D02*
X035752Y024190D01*
X035526Y024190D02*
X035979Y024190D01*
X034473Y024190D02*
X034473Y024304D01*
X034473Y023963D02*
X034473Y023510D01*
X034586Y023510D02*
X034359Y023510D01*
X034113Y023850D02*
X034113Y024077D01*
X034000Y024190D01*
X033660Y024190D01*
X033660Y023510D01*
X033660Y023737D02*
X034000Y023737D01*
X034113Y023850D01*
X034359Y023963D02*
X034473Y023963D01*
X033414Y023963D02*
X033073Y023963D01*
X032960Y023850D01*
X033073Y023737D01*
X033300Y023737D01*
X033414Y023623D01*
X033300Y023510D01*
X032960Y023510D01*
X032714Y023510D02*
X032374Y023510D01*
X032260Y023623D01*
X032374Y023737D01*
X032714Y023737D01*
X032714Y023850D02*
X032714Y023510D01*
X032714Y023850D02*
X032600Y023963D01*
X032374Y023963D01*
X032014Y023850D02*
X031901Y023737D01*
X031560Y023737D01*
X031787Y023737D02*
X032014Y023510D01*
X032014Y023850D02*
X032014Y024077D01*
X031901Y024190D01*
X031560Y024190D01*
X031560Y023510D01*
X030614Y023737D02*
X030161Y023737D01*
X030161Y023850D02*
X030274Y023963D01*
X030501Y023963D01*
X030614Y023850D01*
X030614Y023737D01*
X030501Y023510D02*
X030274Y023510D01*
X030161Y023623D01*
X030161Y023850D01*
X029915Y023850D02*
X029915Y023510D01*
X029915Y023850D02*
X029801Y023963D01*
X029574Y023963D01*
X029461Y023850D01*
X029461Y024190D02*
X029461Y023510D01*
X028988Y023510D02*
X028988Y024190D01*
X028761Y024190D02*
X029215Y024190D01*
X038429Y023850D02*
X038429Y023510D01*
D12*
X052871Y032611D02*
X053205Y032611D01*
X053038Y032611D02*
X053038Y033111D01*
X052871Y032944D01*
X053387Y032861D02*
X053720Y032861D01*
X053903Y032944D02*
X054236Y032944D01*
X053903Y032611D01*
X054236Y032611D01*
X053720Y032611D02*
X053720Y033111D01*
X053387Y033111D02*
X053387Y032611D01*
X053447Y034131D02*
X053447Y034631D01*
X053267Y034464D02*
X053017Y034298D01*
X053267Y034131D01*
X053017Y034131D02*
X053017Y034631D01*
X052668Y034631D02*
X052668Y034131D01*
X052501Y034131D02*
X052835Y034131D01*
X052501Y034464D02*
X052668Y034631D01*
X053447Y034381D02*
X053780Y034381D01*
X053962Y034464D02*
X054296Y034464D01*
X053962Y034131D01*
X054296Y034131D01*
X053780Y034131D02*
X053780Y034631D01*
X060321Y013101D02*
X060323Y013141D01*
X060329Y013180D01*
X060339Y013219D01*
X060352Y013256D01*
X060370Y013292D01*
X060391Y013326D01*
X060415Y013358D01*
X060442Y013387D01*
X060472Y013414D01*
X060504Y013437D01*
X060539Y013457D01*
X060575Y013473D01*
X060613Y013486D01*
X060652Y013495D01*
X060691Y013500D01*
X060731Y013501D01*
X060771Y013498D01*
X060810Y013491D01*
X060848Y013480D01*
X060886Y013466D01*
X060921Y013447D01*
X060954Y013426D01*
X060986Y013401D01*
X061014Y013373D01*
X061040Y013343D01*
X061062Y013310D01*
X061081Y013275D01*
X061097Y013238D01*
X061109Y013200D01*
X061117Y013161D01*
X061121Y013121D01*
X061121Y013081D01*
X061117Y013041D01*
X061109Y013002D01*
X061097Y012964D01*
X061081Y012927D01*
X061062Y012892D01*
X061040Y012859D01*
X061014Y012829D01*
X060986Y012801D01*
X060954Y012776D01*
X060921Y012755D01*
X060886Y012736D01*
X060848Y012722D01*
X060810Y012711D01*
X060771Y012704D01*
X060731Y012701D01*
X060691Y012702D01*
X060652Y012707D01*
X060613Y012716D01*
X060575Y012729D01*
X060539Y012745D01*
X060504Y012765D01*
X060472Y012788D01*
X060442Y012815D01*
X060415Y012844D01*
X060391Y012876D01*
X060370Y012910D01*
X060352Y012946D01*
X060339Y012983D01*
X060329Y013022D01*
X060323Y013061D01*
X060321Y013101D01*
X060152Y005238D02*
X060152Y004904D01*
X059986Y005071D02*
X060319Y005071D01*
X060302Y004531D02*
X060386Y004448D01*
X060052Y004114D01*
X060136Y004031D01*
X060302Y004031D01*
X060386Y004114D01*
X060386Y004448D01*
X060302Y004531D02*
X060136Y004531D01*
X060052Y004448D01*
X060052Y004114D01*
X059870Y004114D02*
X059870Y004448D01*
X059787Y004531D01*
X059536Y004531D01*
X059536Y004031D01*
X059787Y004031D01*
X059870Y004114D01*
X059354Y004031D02*
X059021Y004031D01*
X059021Y004531D01*
X059354Y004531D01*
X059188Y004281D02*
X059021Y004281D01*
X058839Y004031D02*
X058505Y004031D01*
X058505Y004531D01*
X055886Y004031D02*
X055552Y004031D01*
X055719Y004031D02*
X055719Y004531D01*
X055552Y004364D01*
X055370Y004448D02*
X055370Y004114D01*
X055287Y004031D01*
X055036Y004031D01*
X055036Y004531D01*
X055287Y004531D01*
X055370Y004448D01*
X054854Y004531D02*
X054521Y004531D01*
X054521Y004031D01*
X054854Y004031D01*
X054688Y004281D02*
X054521Y004281D01*
X054339Y004031D02*
X054005Y004031D01*
X054005Y004531D01*
X055486Y005071D02*
X055819Y005071D01*
X055652Y005238D02*
X055652Y004904D01*
X051386Y004448D02*
X051386Y004364D01*
X051052Y004031D01*
X051386Y004031D01*
X051386Y004448D02*
X051302Y004531D01*
X051136Y004531D01*
X051052Y004448D01*
X050870Y004448D02*
X050787Y004531D01*
X050536Y004531D01*
X050536Y004031D01*
X050787Y004031D01*
X050870Y004114D01*
X050870Y004448D01*
X050354Y004531D02*
X050021Y004531D01*
X050021Y004031D01*
X050354Y004031D01*
X050188Y004281D02*
X050021Y004281D01*
X049839Y004031D02*
X049505Y004031D01*
X049505Y004531D01*
X050986Y005071D02*
X051319Y005071D01*
X051152Y005238D02*
X051152Y004904D01*
X046886Y004448D02*
X046886Y004364D01*
X046802Y004281D01*
X046886Y004198D01*
X046886Y004114D01*
X046802Y004031D01*
X046636Y004031D01*
X046552Y004114D01*
X046370Y004114D02*
X046370Y004448D01*
X046287Y004531D01*
X046036Y004531D01*
X046036Y004031D01*
X046287Y004031D01*
X046370Y004114D01*
X046552Y004448D02*
X046636Y004531D01*
X046802Y004531D01*
X046886Y004448D01*
X046802Y004281D02*
X046719Y004281D01*
X045854Y004531D02*
X045521Y004531D01*
X045521Y004031D01*
X045854Y004031D01*
X045688Y004281D02*
X045521Y004281D01*
X045339Y004031D02*
X045005Y004031D01*
X045005Y004531D01*
X046486Y005071D02*
X046819Y005071D01*
X046652Y005238D02*
X046652Y004904D01*
X038221Y009601D02*
X038221Y011601D01*
X038219Y011645D01*
X038213Y011688D01*
X038204Y011730D01*
X038191Y011772D01*
X038174Y011812D01*
X038154Y011851D01*
X038131Y011888D01*
X038104Y011922D01*
X038075Y011955D01*
X038042Y011984D01*
X038008Y012011D01*
X037971Y012034D01*
X037932Y012054D01*
X037892Y012071D01*
X037850Y012084D01*
X037808Y012093D01*
X037765Y012099D01*
X037721Y012101D01*
X037677Y012099D01*
X037634Y012093D01*
X037592Y012084D01*
X037550Y012071D01*
X037510Y012054D01*
X037471Y012034D01*
X037434Y012011D01*
X037400Y011984D01*
X037367Y011955D01*
X037338Y011922D01*
X037311Y011888D01*
X037288Y011851D01*
X037268Y011812D01*
X037251Y011772D01*
X037238Y011730D01*
X037229Y011688D01*
X037223Y011645D01*
X037221Y011601D01*
X037221Y009601D01*
X036721Y009601D02*
X036721Y011601D01*
X036719Y011645D01*
X036713Y011688D01*
X036704Y011730D01*
X036691Y011772D01*
X036674Y011812D01*
X036654Y011851D01*
X036631Y011888D01*
X036604Y011922D01*
X036575Y011955D01*
X036542Y011984D01*
X036508Y012011D01*
X036471Y012034D01*
X036432Y012054D01*
X036392Y012071D01*
X036350Y012084D01*
X036308Y012093D01*
X036265Y012099D01*
X036221Y012101D01*
X036177Y012099D01*
X036134Y012093D01*
X036092Y012084D01*
X036050Y012071D01*
X036010Y012054D01*
X035971Y012034D01*
X035934Y012011D01*
X035900Y011984D01*
X035867Y011955D01*
X035838Y011922D01*
X035811Y011888D01*
X035788Y011851D01*
X035768Y011812D01*
X035751Y011772D01*
X035738Y011730D01*
X035729Y011688D01*
X035723Y011645D01*
X035721Y011601D01*
X035721Y009601D01*
X035221Y009601D02*
X035221Y011601D01*
X035219Y011645D01*
X035213Y011688D01*
X035204Y011730D01*
X035191Y011772D01*
X035174Y011812D01*
X035154Y011851D01*
X035131Y011888D01*
X035104Y011922D01*
X035075Y011955D01*
X035042Y011984D01*
X035008Y012011D01*
X034971Y012034D01*
X034932Y012054D01*
X034892Y012071D01*
X034850Y012084D01*
X034808Y012093D01*
X034765Y012099D01*
X034721Y012101D01*
X034677Y012099D01*
X034634Y012093D01*
X034592Y012084D01*
X034550Y012071D01*
X034510Y012054D01*
X034471Y012034D01*
X034434Y012011D01*
X034400Y011984D01*
X034367Y011955D01*
X034338Y011922D01*
X034311Y011888D01*
X034288Y011851D01*
X034268Y011812D01*
X034251Y011772D01*
X034238Y011730D01*
X034229Y011688D01*
X034223Y011645D01*
X034221Y011601D01*
X034221Y009601D01*
X033721Y009601D02*
X033721Y011601D01*
X033719Y011645D01*
X033713Y011688D01*
X033704Y011730D01*
X033691Y011772D01*
X033674Y011812D01*
X033654Y011851D01*
X033631Y011888D01*
X033604Y011922D01*
X033575Y011955D01*
X033542Y011984D01*
X033508Y012011D01*
X033471Y012034D01*
X033432Y012054D01*
X033392Y012071D01*
X033350Y012084D01*
X033308Y012093D01*
X033265Y012099D01*
X033221Y012101D01*
X033177Y012099D01*
X033134Y012093D01*
X033092Y012084D01*
X033050Y012071D01*
X033010Y012054D01*
X032971Y012034D01*
X032934Y012011D01*
X032900Y011984D01*
X032867Y011955D01*
X032838Y011922D01*
X032811Y011888D01*
X032788Y011851D01*
X032768Y011812D01*
X032751Y011772D01*
X032738Y011730D01*
X032729Y011688D01*
X032723Y011645D01*
X032721Y011601D01*
X032721Y009601D01*
X032221Y009601D02*
X032221Y011601D01*
X032219Y011645D01*
X032213Y011688D01*
X032204Y011730D01*
X032191Y011772D01*
X032174Y011812D01*
X032154Y011851D01*
X032131Y011888D01*
X032104Y011922D01*
X032075Y011955D01*
X032042Y011984D01*
X032008Y012011D01*
X031971Y012034D01*
X031932Y012054D01*
X031892Y012071D01*
X031850Y012084D01*
X031808Y012093D01*
X031765Y012099D01*
X031721Y012101D01*
X031677Y012099D01*
X031634Y012093D01*
X031592Y012084D01*
X031550Y012071D01*
X031510Y012054D01*
X031471Y012034D01*
X031434Y012011D01*
X031400Y011984D01*
X031367Y011955D01*
X031338Y011922D01*
X031311Y011888D01*
X031288Y011851D01*
X031268Y011812D01*
X031251Y011772D01*
X031238Y011730D01*
X031229Y011688D01*
X031223Y011645D01*
X031221Y011601D01*
X031221Y009601D01*
X030721Y009601D02*
X030721Y011601D01*
X030719Y011645D01*
X030713Y011688D01*
X030704Y011730D01*
X030691Y011772D01*
X030674Y011812D01*
X030654Y011851D01*
X030631Y011888D01*
X030604Y011922D01*
X030575Y011955D01*
X030542Y011984D01*
X030508Y012011D01*
X030471Y012034D01*
X030432Y012054D01*
X030392Y012071D01*
X030350Y012084D01*
X030308Y012093D01*
X030265Y012099D01*
X030221Y012101D01*
X030177Y012099D01*
X030134Y012093D01*
X030092Y012084D01*
X030050Y012071D01*
X030010Y012054D01*
X029971Y012034D01*
X029934Y012011D01*
X029900Y011984D01*
X029867Y011955D01*
X029838Y011922D01*
X029811Y011888D01*
X029788Y011851D01*
X029768Y011812D01*
X029751Y011772D01*
X029738Y011730D01*
X029729Y011688D01*
X029723Y011645D01*
X029721Y011601D01*
X029721Y009601D01*
X029221Y009601D02*
X029221Y011601D01*
X029219Y011645D01*
X029213Y011688D01*
X029204Y011730D01*
X029191Y011772D01*
X029174Y011812D01*
X029154Y011851D01*
X029131Y011888D01*
X029104Y011922D01*
X029075Y011955D01*
X029042Y011984D01*
X029008Y012011D01*
X028971Y012034D01*
X028932Y012054D01*
X028892Y012071D01*
X028850Y012084D01*
X028808Y012093D01*
X028765Y012099D01*
X028721Y012101D01*
X028677Y012099D01*
X028634Y012093D01*
X028592Y012084D01*
X028550Y012071D01*
X028510Y012054D01*
X028471Y012034D01*
X028434Y012011D01*
X028400Y011984D01*
X028367Y011955D01*
X028338Y011922D01*
X028311Y011888D01*
X028288Y011851D01*
X028268Y011812D01*
X028251Y011772D01*
X028238Y011730D01*
X028229Y011688D01*
X028223Y011645D01*
X028221Y011601D01*
X028221Y009601D01*
X028721Y009101D02*
X028765Y009103D01*
X028808Y009109D01*
X028850Y009118D01*
X028892Y009131D01*
X028932Y009148D01*
X028971Y009168D01*
X029008Y009191D01*
X029042Y009218D01*
X029075Y009247D01*
X029104Y009280D01*
X029131Y009314D01*
X029154Y009351D01*
X029174Y009390D01*
X029191Y009430D01*
X029204Y009472D01*
X029213Y009514D01*
X029219Y009557D01*
X029221Y009601D01*
X028721Y009101D02*
X028677Y009103D01*
X028634Y009109D01*
X028592Y009118D01*
X028550Y009131D01*
X028510Y009148D01*
X028471Y009168D01*
X028434Y009191D01*
X028400Y009218D01*
X028367Y009247D01*
X028338Y009280D01*
X028311Y009314D01*
X028288Y009351D01*
X028268Y009390D01*
X028251Y009430D01*
X028238Y009472D01*
X028229Y009514D01*
X028223Y009557D01*
X028221Y009601D01*
X030221Y009101D02*
X030265Y009103D01*
X030308Y009109D01*
X030350Y009118D01*
X030392Y009131D01*
X030432Y009148D01*
X030471Y009168D01*
X030508Y009191D01*
X030542Y009218D01*
X030575Y009247D01*
X030604Y009280D01*
X030631Y009314D01*
X030654Y009351D01*
X030674Y009390D01*
X030691Y009430D01*
X030704Y009472D01*
X030713Y009514D01*
X030719Y009557D01*
X030721Y009601D01*
X030221Y009101D02*
X030177Y009103D01*
X030134Y009109D01*
X030092Y009118D01*
X030050Y009131D01*
X030010Y009148D01*
X029971Y009168D01*
X029934Y009191D01*
X029900Y009218D01*
X029867Y009247D01*
X029838Y009280D01*
X029811Y009314D01*
X029788Y009351D01*
X029768Y009390D01*
X029751Y009430D01*
X029738Y009472D01*
X029729Y009514D01*
X029723Y009557D01*
X029721Y009601D01*
X031721Y009101D02*
X031765Y009103D01*
X031808Y009109D01*
X031850Y009118D01*
X031892Y009131D01*
X031932Y009148D01*
X031971Y009168D01*
X032008Y009191D01*
X032042Y009218D01*
X032075Y009247D01*
X032104Y009280D01*
X032131Y009314D01*
X032154Y009351D01*
X032174Y009390D01*
X032191Y009430D01*
X032204Y009472D01*
X032213Y009514D01*
X032219Y009557D01*
X032221Y009601D01*
X031721Y009101D02*
X031677Y009103D01*
X031634Y009109D01*
X031592Y009118D01*
X031550Y009131D01*
X031510Y009148D01*
X031471Y009168D01*
X031434Y009191D01*
X031400Y009218D01*
X031367Y009247D01*
X031338Y009280D01*
X031311Y009314D01*
X031288Y009351D01*
X031268Y009390D01*
X031251Y009430D01*
X031238Y009472D01*
X031229Y009514D01*
X031223Y009557D01*
X031221Y009601D01*
X033221Y009101D02*
X033265Y009103D01*
X033308Y009109D01*
X033350Y009118D01*
X033392Y009131D01*
X033432Y009148D01*
X033471Y009168D01*
X033508Y009191D01*
X033542Y009218D01*
X033575Y009247D01*
X033604Y009280D01*
X033631Y009314D01*
X033654Y009351D01*
X033674Y009390D01*
X033691Y009430D01*
X033704Y009472D01*
X033713Y009514D01*
X033719Y009557D01*
X033721Y009601D01*
X033221Y009101D02*
X033177Y009103D01*
X033134Y009109D01*
X033092Y009118D01*
X033050Y009131D01*
X033010Y009148D01*
X032971Y009168D01*
X032934Y009191D01*
X032900Y009218D01*
X032867Y009247D01*
X032838Y009280D01*
X032811Y009314D01*
X032788Y009351D01*
X032768Y009390D01*
X032751Y009430D01*
X032738Y009472D01*
X032729Y009514D01*
X032723Y009557D01*
X032721Y009601D01*
X034721Y009101D02*
X034765Y009103D01*
X034808Y009109D01*
X034850Y009118D01*
X034892Y009131D01*
X034932Y009148D01*
X034971Y009168D01*
X035008Y009191D01*
X035042Y009218D01*
X035075Y009247D01*
X035104Y009280D01*
X035131Y009314D01*
X035154Y009351D01*
X035174Y009390D01*
X035191Y009430D01*
X035204Y009472D01*
X035213Y009514D01*
X035219Y009557D01*
X035221Y009601D01*
X034721Y009101D02*
X034677Y009103D01*
X034634Y009109D01*
X034592Y009118D01*
X034550Y009131D01*
X034510Y009148D01*
X034471Y009168D01*
X034434Y009191D01*
X034400Y009218D01*
X034367Y009247D01*
X034338Y009280D01*
X034311Y009314D01*
X034288Y009351D01*
X034268Y009390D01*
X034251Y009430D01*
X034238Y009472D01*
X034229Y009514D01*
X034223Y009557D01*
X034221Y009601D01*
X036221Y009101D02*
X036265Y009103D01*
X036308Y009109D01*
X036350Y009118D01*
X036392Y009131D01*
X036432Y009148D01*
X036471Y009168D01*
X036508Y009191D01*
X036542Y009218D01*
X036575Y009247D01*
X036604Y009280D01*
X036631Y009314D01*
X036654Y009351D01*
X036674Y009390D01*
X036691Y009430D01*
X036704Y009472D01*
X036713Y009514D01*
X036719Y009557D01*
X036721Y009601D01*
X036221Y009101D02*
X036177Y009103D01*
X036134Y009109D01*
X036092Y009118D01*
X036050Y009131D01*
X036010Y009148D01*
X035971Y009168D01*
X035934Y009191D01*
X035900Y009218D01*
X035867Y009247D01*
X035838Y009280D01*
X035811Y009314D01*
X035788Y009351D01*
X035768Y009390D01*
X035751Y009430D01*
X035738Y009472D01*
X035729Y009514D01*
X035723Y009557D01*
X035721Y009601D01*
X037721Y009101D02*
X037765Y009103D01*
X037808Y009109D01*
X037850Y009118D01*
X037892Y009131D01*
X037932Y009148D01*
X037971Y009168D01*
X038008Y009191D01*
X038042Y009218D01*
X038075Y009247D01*
X038104Y009280D01*
X038131Y009314D01*
X038154Y009351D01*
X038174Y009390D01*
X038191Y009430D01*
X038204Y009472D01*
X038213Y009514D01*
X038219Y009557D01*
X038221Y009601D01*
X037721Y009101D02*
X037677Y009103D01*
X037634Y009109D01*
X037592Y009118D01*
X037550Y009131D01*
X037510Y009148D01*
X037471Y009168D01*
X037434Y009191D01*
X037400Y009218D01*
X037367Y009247D01*
X037338Y009280D01*
X037311Y009314D01*
X037288Y009351D01*
X037268Y009390D01*
X037251Y009430D01*
X037238Y009472D01*
X037229Y009514D01*
X037223Y009557D01*
X037221Y009601D01*
X012811Y002071D02*
X012478Y002071D01*
X012644Y002238D02*
X012644Y001904D01*
X010366Y002381D02*
X010033Y002381D01*
X010033Y001881D01*
X010033Y002131D02*
X010199Y002131D01*
X009850Y002381D02*
X009517Y002381D01*
X009517Y001881D01*
X009335Y001964D02*
X009335Y002298D01*
X009251Y002381D01*
X009085Y002381D01*
X009001Y002298D01*
X009001Y001964D01*
X009085Y001881D01*
X009251Y001881D01*
X009335Y001964D01*
X009517Y002131D02*
X009684Y002131D01*
X009850Y004131D02*
X009850Y004631D01*
X009517Y004631D02*
X009850Y004131D01*
X009517Y004131D02*
X009517Y004631D01*
X009335Y004548D02*
X009251Y004631D01*
X009085Y004631D01*
X009001Y004548D01*
X009001Y004214D01*
X009085Y004131D01*
X009251Y004131D01*
X009335Y004214D01*
X009335Y004548D01*
X002821Y017001D02*
X002621Y017001D01*
X002621Y029201D01*
X002821Y029201D01*
X002821Y027201D01*
X002821Y019001D01*
X002821Y017001D01*
X003021Y019001D02*
X003021Y019051D01*
X004221Y019351D02*
X004221Y019451D01*
X006571Y018171D02*
X006573Y018221D01*
X006579Y018271D01*
X006589Y018321D01*
X006602Y018369D01*
X006619Y018417D01*
X006640Y018463D01*
X006664Y018507D01*
X006692Y018549D01*
X006723Y018589D01*
X006757Y018626D01*
X006794Y018661D01*
X006833Y018692D01*
X006874Y018721D01*
X006918Y018746D01*
X006964Y018768D01*
X007011Y018786D01*
X007059Y018800D01*
X007108Y018811D01*
X007158Y018818D01*
X007208Y018821D01*
X007259Y018820D01*
X007309Y018815D01*
X007359Y018806D01*
X007407Y018794D01*
X007455Y018777D01*
X007501Y018757D01*
X007546Y018734D01*
X007589Y018707D01*
X007629Y018677D01*
X007667Y018644D01*
X007702Y018608D01*
X007735Y018569D01*
X007764Y018528D01*
X007790Y018485D01*
X007813Y018440D01*
X007832Y018393D01*
X007847Y018345D01*
X007859Y018296D01*
X007867Y018246D01*
X007871Y018196D01*
X007871Y018146D01*
X007867Y018096D01*
X007859Y018046D01*
X007847Y017997D01*
X007832Y017949D01*
X007813Y017902D01*
X007790Y017857D01*
X007764Y017814D01*
X007735Y017773D01*
X007702Y017734D01*
X007667Y017698D01*
X007629Y017665D01*
X007589Y017635D01*
X007546Y017608D01*
X007501Y017585D01*
X007455Y017565D01*
X007407Y017548D01*
X007359Y017536D01*
X007309Y017527D01*
X007259Y017522D01*
X007208Y017521D01*
X007158Y017524D01*
X007108Y017531D01*
X007059Y017542D01*
X007011Y017556D01*
X006964Y017574D01*
X006918Y017596D01*
X006874Y017621D01*
X006833Y017650D01*
X006794Y017681D01*
X006757Y017716D01*
X006723Y017753D01*
X006692Y017793D01*
X006664Y017835D01*
X006640Y017879D01*
X006619Y017925D01*
X006602Y017973D01*
X006589Y018021D01*
X006579Y018071D01*
X006573Y018121D01*
X006571Y018171D01*
X004221Y026751D02*
X004221Y026851D01*
X004221Y026901D02*
X004219Y026931D01*
X004214Y026961D01*
X004205Y026990D01*
X004192Y027017D01*
X004177Y027043D01*
X004158Y027067D01*
X004137Y027088D01*
X004113Y027107D01*
X004087Y027122D01*
X004060Y027135D01*
X004031Y027144D01*
X004001Y027149D01*
X003971Y027151D01*
X003021Y027151D02*
X003021Y027201D01*
X006571Y028031D02*
X006573Y028081D01*
X006579Y028131D01*
X006589Y028181D01*
X006602Y028229D01*
X006619Y028277D01*
X006640Y028323D01*
X006664Y028367D01*
X006692Y028409D01*
X006723Y028449D01*
X006757Y028486D01*
X006794Y028521D01*
X006833Y028552D01*
X006874Y028581D01*
X006918Y028606D01*
X006964Y028628D01*
X007011Y028646D01*
X007059Y028660D01*
X007108Y028671D01*
X007158Y028678D01*
X007208Y028681D01*
X007259Y028680D01*
X007309Y028675D01*
X007359Y028666D01*
X007407Y028654D01*
X007455Y028637D01*
X007501Y028617D01*
X007546Y028594D01*
X007589Y028567D01*
X007629Y028537D01*
X007667Y028504D01*
X007702Y028468D01*
X007735Y028429D01*
X007764Y028388D01*
X007790Y028345D01*
X007813Y028300D01*
X007832Y028253D01*
X007847Y028205D01*
X007859Y028156D01*
X007867Y028106D01*
X007871Y028056D01*
X007871Y028006D01*
X007867Y027956D01*
X007859Y027906D01*
X007847Y027857D01*
X007832Y027809D01*
X007813Y027762D01*
X007790Y027717D01*
X007764Y027674D01*
X007735Y027633D01*
X007702Y027594D01*
X007667Y027558D01*
X007629Y027525D01*
X007589Y027495D01*
X007546Y027468D01*
X007501Y027445D01*
X007455Y027425D01*
X007407Y027408D01*
X007359Y027396D01*
X007309Y027387D01*
X007259Y027382D01*
X007208Y027381D01*
X007158Y027384D01*
X007108Y027391D01*
X007059Y027402D01*
X007011Y027416D01*
X006964Y027434D01*
X006918Y027456D01*
X006874Y027481D01*
X006833Y027510D01*
X006794Y027541D01*
X006757Y027576D01*
X006723Y027613D01*
X006692Y027653D01*
X006664Y027695D01*
X006640Y027739D01*
X006619Y027785D01*
X006602Y027833D01*
X006589Y027881D01*
X006579Y027931D01*
X006573Y027981D01*
X006571Y028031D01*
D13*
X024756Y031766D02*
X025177Y031766D01*
X024966Y031766D02*
X024966Y031136D01*
X025401Y031136D02*
X025401Y031766D01*
X025506Y031556D02*
X025716Y031556D01*
X025821Y031451D01*
X025821Y031136D01*
X026045Y031241D02*
X026045Y031451D01*
X026150Y031556D01*
X026361Y031556D01*
X026466Y031451D01*
X026466Y031346D01*
X026045Y031346D01*
X026045Y031241D02*
X026150Y031136D01*
X026361Y031136D01*
X027334Y031241D02*
X027439Y031136D01*
X027650Y031136D01*
X027755Y031241D01*
X027755Y031346D01*
X027650Y031451D01*
X027439Y031451D01*
X027334Y031556D01*
X027334Y031661D01*
X027439Y031766D01*
X027650Y031766D01*
X027755Y031661D01*
X027979Y031451D02*
X027979Y031241D01*
X028084Y031136D01*
X028294Y031136D01*
X028399Y031241D01*
X028399Y031451D01*
X028294Y031556D01*
X028084Y031556D01*
X027979Y031451D01*
X028623Y031451D02*
X028623Y031241D01*
X028729Y031136D01*
X029044Y031136D01*
X029268Y031136D02*
X029478Y031136D01*
X029373Y031136D02*
X029373Y031556D01*
X029268Y031556D01*
X029044Y031556D02*
X028729Y031556D01*
X028623Y031451D01*
X029373Y031766D02*
X029373Y031871D01*
X029698Y031451D02*
X029803Y031556D01*
X030013Y031556D01*
X030118Y031451D01*
X030118Y031346D01*
X029698Y031346D01*
X029698Y031241D02*
X029698Y031451D01*
X029698Y031241D02*
X029803Y031136D01*
X030013Y031136D01*
X030447Y031241D02*
X030447Y031661D01*
X030342Y031556D02*
X030552Y031556D01*
X030772Y031556D02*
X030772Y031241D01*
X030877Y031136D01*
X031192Y031136D01*
X031192Y031031D02*
X031087Y030926D01*
X030982Y030926D01*
X031192Y031031D02*
X031192Y031556D01*
X030552Y031136D02*
X030447Y031241D01*
X032061Y031451D02*
X032271Y031451D01*
X032491Y031451D02*
X032491Y031241D01*
X032596Y031136D01*
X032806Y031136D01*
X032911Y031241D01*
X032911Y031451D01*
X032806Y031556D01*
X032596Y031556D01*
X032491Y031451D01*
X032271Y031766D02*
X032166Y031661D01*
X032166Y031136D01*
X033135Y031136D02*
X033135Y031556D01*
X033135Y031346D02*
X033345Y031556D01*
X033450Y031556D01*
X034317Y031346D02*
X034632Y031346D01*
X034737Y031451D01*
X034737Y031661D01*
X034632Y031766D01*
X034317Y031766D01*
X034317Y031136D01*
X034961Y031136D02*
X034961Y031556D01*
X034961Y031346D02*
X035171Y031556D01*
X035276Y031556D01*
X035603Y031556D02*
X035814Y031556D01*
X035919Y031451D01*
X035919Y031136D01*
X035603Y031136D01*
X035498Y031241D01*
X035603Y031346D01*
X035919Y031346D01*
X036143Y031451D02*
X036143Y031241D01*
X036248Y031136D01*
X036563Y031136D01*
X036892Y031241D02*
X036892Y031661D01*
X036787Y031556D02*
X036998Y031556D01*
X037217Y031556D02*
X037322Y031556D01*
X037322Y031136D01*
X037217Y031136D02*
X037427Y031136D01*
X037647Y031241D02*
X037647Y031451D01*
X037752Y031556D01*
X038067Y031556D01*
X038396Y031556D02*
X038607Y031556D01*
X038712Y031451D01*
X038712Y031136D01*
X038396Y031136D01*
X038291Y031241D01*
X038396Y031346D01*
X038712Y031346D01*
X038936Y031136D02*
X039146Y031136D01*
X039041Y031136D02*
X039041Y031766D01*
X038936Y031766D01*
X040010Y031766D02*
X040430Y031766D01*
X040220Y031766D02*
X040220Y031136D01*
X040655Y031241D02*
X040655Y031451D01*
X040760Y031556D01*
X040970Y031556D01*
X041075Y031451D01*
X041075Y031346D01*
X040655Y031346D01*
X040655Y031241D02*
X040760Y031136D01*
X040970Y031136D01*
X041299Y031241D02*
X041404Y031136D01*
X041719Y031136D01*
X041944Y031136D02*
X041944Y031766D01*
X042049Y031556D02*
X042259Y031556D01*
X042364Y031451D01*
X042364Y031136D01*
X042588Y031136D02*
X042588Y031556D01*
X042903Y031556D01*
X043009Y031451D01*
X043009Y031136D01*
X043233Y031241D02*
X043338Y031136D01*
X043548Y031136D01*
X043653Y031241D01*
X043653Y031451D01*
X043548Y031556D01*
X043338Y031556D01*
X043233Y031451D01*
X043233Y031241D01*
X043877Y031136D02*
X044087Y031136D01*
X043982Y031136D02*
X043982Y031766D01*
X043877Y031766D01*
X044307Y031451D02*
X044307Y031241D01*
X044412Y031136D01*
X044622Y031136D01*
X044727Y031241D01*
X044727Y031451D01*
X044622Y031556D01*
X044412Y031556D01*
X044307Y031451D01*
X044951Y031451D02*
X044951Y031241D01*
X045056Y031136D01*
X045372Y031136D01*
X045372Y031031D02*
X045372Y031556D01*
X045056Y031556D01*
X044951Y031451D01*
X045372Y031031D02*
X045267Y030926D01*
X045162Y030926D01*
X045596Y031241D02*
X045701Y031136D01*
X046016Y031136D01*
X046016Y031031D02*
X045911Y030926D01*
X045806Y030926D01*
X046016Y031031D02*
X046016Y031556D01*
X045596Y031556D02*
X045596Y031241D01*
X046885Y031136D02*
X047305Y031136D01*
X047530Y031241D02*
X047530Y031451D01*
X047635Y031556D01*
X047950Y031556D01*
X047950Y031766D02*
X047950Y031136D01*
X047635Y031136D01*
X047530Y031241D01*
X047095Y031451D02*
X046885Y031451D01*
X046885Y031766D02*
X046885Y031136D01*
X046885Y031766D02*
X047305Y031766D01*
X048174Y031556D02*
X048174Y031241D01*
X048279Y031136D01*
X048594Y031136D01*
X048594Y031556D01*
X048819Y031451D02*
X048819Y031241D01*
X048924Y031136D01*
X049239Y031136D01*
X049463Y031241D02*
X049568Y031346D01*
X049883Y031346D01*
X049883Y031451D02*
X049883Y031136D01*
X049568Y031136D01*
X049463Y031241D01*
X049568Y031556D02*
X049778Y031556D01*
X049883Y031451D01*
X050108Y031556D02*
X050318Y031556D01*
X050213Y031661D02*
X050213Y031241D01*
X050318Y031136D01*
X050537Y031136D02*
X050747Y031136D01*
X050642Y031136D02*
X050642Y031556D01*
X050537Y031556D01*
X050642Y031766D02*
X050642Y031871D01*
X050967Y031451D02*
X050967Y031241D01*
X051072Y031136D01*
X051282Y031136D01*
X051387Y031241D01*
X051387Y031451D01*
X051282Y031556D01*
X051072Y031556D01*
X050967Y031451D01*
X051612Y031556D02*
X051612Y031136D01*
X052032Y031136D02*
X052032Y031451D01*
X051927Y031556D01*
X051612Y031556D01*
X049239Y031556D02*
X048924Y031556D01*
X048819Y031451D01*
X042049Y031556D02*
X041944Y031451D01*
X041719Y031556D02*
X041404Y031556D01*
X041299Y031451D01*
X041299Y031241D01*
X038067Y031136D02*
X037752Y031136D01*
X037647Y031241D01*
X037322Y031766D02*
X037322Y031871D01*
X036563Y031556D02*
X036248Y031556D01*
X036143Y031451D01*
X036892Y031241D02*
X036998Y031136D01*
X025506Y031556D02*
X025401Y031451D01*
X035307Y022371D02*
X035307Y022266D01*
X035307Y022056D02*
X035307Y021636D01*
X035202Y021636D02*
X035412Y021636D01*
X035631Y021951D02*
X036052Y021951D01*
X036276Y022161D02*
X036381Y022266D01*
X036591Y022266D01*
X036696Y022161D01*
X036696Y022056D01*
X036276Y021636D01*
X036696Y021636D01*
X036920Y021741D02*
X037341Y022161D01*
X037341Y021741D01*
X037236Y021636D01*
X037025Y021636D01*
X036920Y021741D01*
X036920Y022161D01*
X037025Y022266D01*
X037236Y022266D01*
X037341Y022161D01*
X037565Y022056D02*
X037775Y022266D01*
X037775Y021636D01*
X037565Y021636D02*
X037985Y021636D01*
X038209Y021741D02*
X038314Y021636D01*
X038525Y021636D01*
X038630Y021741D01*
X038630Y022161D01*
X038525Y022266D01*
X038314Y022266D01*
X038209Y022161D01*
X038209Y022056D01*
X038314Y021951D01*
X038630Y021951D01*
X035307Y022056D02*
X035202Y022056D01*
X034977Y021951D02*
X034872Y021846D01*
X034557Y021846D01*
X034557Y021636D02*
X034557Y022266D01*
X034872Y022266D01*
X034977Y022161D01*
X034977Y021951D01*
X034333Y022056D02*
X034018Y022056D01*
X033912Y021951D01*
X034018Y021846D01*
X034228Y021846D01*
X034333Y021741D01*
X034228Y021636D01*
X033912Y021636D01*
X033688Y021636D02*
X033373Y021636D01*
X033268Y021741D01*
X033373Y021846D01*
X033688Y021846D01*
X033688Y021951D02*
X033688Y021636D01*
X033688Y021951D02*
X033583Y022056D01*
X033373Y022056D01*
X033044Y021951D02*
X032939Y021846D01*
X032623Y021846D01*
X032623Y021636D02*
X032623Y022266D01*
X032939Y022266D01*
X033044Y022161D01*
X033044Y021951D01*
X032834Y021846D02*
X033044Y021636D01*
X031755Y021636D02*
X031334Y021636D01*
X031334Y022266D01*
X031110Y022266D02*
X030690Y022266D01*
X030690Y021636D01*
X031110Y021636D01*
X030900Y021951D02*
X030690Y021951D01*
X030466Y021741D02*
X030466Y022161D01*
X030361Y022266D01*
X030045Y022266D01*
X030045Y021636D01*
X030361Y021636D01*
X030466Y021741D01*
X029821Y021741D02*
X029821Y022161D01*
X029716Y022266D01*
X029506Y022266D01*
X029401Y022161D01*
X029401Y021741D01*
X029506Y021636D01*
X029716Y021636D01*
X029821Y021741D01*
X029177Y021636D02*
X029177Y022266D01*
X028966Y022056D01*
X028756Y022266D01*
X028756Y021636D01*
X021650Y005726D02*
X021650Y005333D01*
X021453Y005136D01*
X021256Y005333D01*
X021256Y005726D01*
X020427Y004886D02*
X020006Y004886D01*
X020006Y005516D01*
X023256Y005516D02*
X023256Y004886D01*
X023256Y005201D02*
X023677Y005201D01*
X023677Y005516D02*
X023677Y004886D01*
X027232Y001226D02*
X027133Y001128D01*
X027133Y001029D01*
X027232Y000931D01*
X027429Y000931D01*
X027527Y000833D01*
X027527Y000734D01*
X027429Y000636D01*
X027232Y000636D01*
X027133Y000734D01*
X027527Y001128D02*
X027429Y001226D01*
X027232Y001226D01*
X027741Y001226D02*
X027741Y000636D01*
X027938Y000833D01*
X028135Y000636D01*
X028135Y001226D01*
X028349Y001226D02*
X028742Y001226D01*
X028742Y001128D01*
X028349Y000734D01*
X028349Y000636D01*
X031633Y000734D02*
X031732Y000636D01*
X031929Y000636D01*
X032027Y000734D01*
X032027Y000833D01*
X031929Y000931D01*
X031732Y000931D01*
X031633Y001029D01*
X031633Y001128D01*
X031732Y001226D01*
X031929Y001226D01*
X032027Y001128D01*
X032241Y001226D02*
X032241Y000636D01*
X032438Y000833D01*
X032635Y000636D01*
X032635Y001226D01*
X032849Y000931D02*
X033144Y000931D01*
X033242Y000833D01*
X033242Y000734D01*
X033144Y000636D01*
X032947Y000636D01*
X032849Y000734D01*
X032849Y000931D01*
X033046Y001128D01*
X033242Y001226D01*
X036133Y001128D02*
X036133Y001029D01*
X036232Y000931D01*
X036428Y000931D01*
X036527Y000833D01*
X036527Y000734D01*
X036428Y000636D01*
X036232Y000636D01*
X036133Y000734D01*
X036133Y001128D02*
X036232Y001226D01*
X036428Y001226D01*
X036527Y001128D01*
X036741Y001226D02*
X036741Y000636D01*
X036938Y000833D01*
X037135Y000636D01*
X037135Y001226D01*
X037349Y001226D02*
X037349Y000931D01*
X037545Y001029D01*
X037644Y001029D01*
X037742Y000931D01*
X037742Y000734D01*
X037644Y000636D01*
X037447Y000636D01*
X037349Y000734D01*
X037349Y001226D02*
X037742Y001226D01*
X040633Y001128D02*
X040633Y001029D01*
X040732Y000931D01*
X040929Y000931D01*
X041027Y000833D01*
X041027Y000734D01*
X040929Y000636D01*
X040732Y000636D01*
X040633Y000734D01*
X040633Y001128D02*
X040732Y001226D01*
X040929Y001226D01*
X041027Y001128D01*
X041241Y001226D02*
X041241Y000636D01*
X041438Y000833D01*
X041635Y000636D01*
X041635Y001226D01*
X041849Y000931D02*
X042242Y000931D01*
X042144Y000636D02*
X042144Y001226D01*
X041849Y000931D01*
X045133Y001029D02*
X045232Y000931D01*
X045429Y000931D01*
X045527Y000833D01*
X045527Y000734D01*
X045429Y000636D01*
X045232Y000636D01*
X045133Y000734D01*
X045133Y001029D02*
X045133Y001128D01*
X045232Y001226D01*
X045429Y001226D01*
X045527Y001128D01*
X045741Y001226D02*
X045741Y000636D01*
X045938Y000833D01*
X046135Y000636D01*
X046135Y001226D01*
X046349Y001128D02*
X046447Y001226D01*
X046644Y001226D01*
X046742Y001128D01*
X046742Y001029D01*
X046644Y000931D01*
X046742Y000833D01*
X046742Y000734D01*
X046644Y000636D01*
X046447Y000636D01*
X046349Y000734D01*
X046546Y000931D02*
X046644Y000931D01*
X049760Y001029D02*
X049859Y000931D01*
X050056Y000931D01*
X050154Y000833D01*
X050154Y000734D01*
X050056Y000636D01*
X049859Y000636D01*
X049760Y000734D01*
X049760Y001029D02*
X049760Y001128D01*
X049859Y001226D01*
X050056Y001226D01*
X050154Y001128D01*
X050368Y001226D02*
X050368Y000636D01*
X050565Y000833D01*
X050762Y000636D01*
X050762Y001226D01*
X050976Y001128D02*
X051074Y001226D01*
X051271Y001226D01*
X051369Y001128D01*
X051369Y001029D01*
X050976Y000636D01*
X051369Y000636D01*
X054260Y000734D02*
X054359Y000636D01*
X054556Y000636D01*
X054654Y000734D01*
X054654Y000833D01*
X054556Y000931D01*
X054359Y000931D01*
X054260Y001029D01*
X054260Y001128D01*
X054359Y001226D01*
X054556Y001226D01*
X054654Y001128D01*
X054868Y001226D02*
X054868Y000636D01*
X055065Y000833D01*
X055262Y000636D01*
X055262Y001226D01*
X055476Y001029D02*
X055673Y001226D01*
X055673Y000636D01*
X055869Y000636D02*
X055476Y000636D01*
X058633Y000734D02*
X058732Y000636D01*
X058929Y000636D01*
X059027Y000734D01*
X059027Y000833D01*
X058929Y000931D01*
X058732Y000931D01*
X058633Y001029D01*
X058633Y001128D01*
X058732Y001226D01*
X058929Y001226D01*
X059027Y001128D01*
X059241Y001226D02*
X059241Y000636D01*
X059438Y000833D01*
X059635Y000636D01*
X059635Y001226D01*
X059849Y001128D02*
X059947Y001226D01*
X060144Y001226D01*
X060242Y001128D01*
X059849Y000734D01*
X059947Y000636D01*
X060144Y000636D01*
X060242Y000734D01*
X060242Y001128D01*
X059849Y001128D02*
X059849Y000734D01*
X057072Y012791D02*
X057072Y013211D01*
X056862Y013001D02*
X057282Y013001D01*
X057256Y036886D02*
X057677Y036886D01*
X057256Y036886D02*
X057256Y037516D01*
X058006Y037636D02*
X058006Y038226D01*
X058400Y038226D01*
X058614Y038029D02*
X058614Y037636D01*
X058614Y037833D02*
X058811Y038029D01*
X058909Y038029D01*
X059120Y037931D02*
X059219Y038029D01*
X059416Y038029D01*
X059514Y037931D01*
X059514Y037833D01*
X059120Y037833D01*
X059120Y037931D02*
X059120Y037734D01*
X059219Y037636D01*
X059416Y037636D01*
X059728Y037734D02*
X059826Y037636D01*
X060122Y037636D01*
X060122Y037439D02*
X060122Y038029D01*
X059826Y038029D01*
X059728Y037931D01*
X059728Y037734D01*
X060336Y037734D02*
X060434Y037734D01*
X060434Y037636D01*
X060336Y037636D01*
X060336Y037734D01*
X060506Y037516D02*
X060506Y036886D01*
X060506Y037201D02*
X060927Y037201D01*
X060927Y037516D02*
X060927Y036886D01*
X058203Y037931D02*
X058006Y037931D01*
D14*
X022721Y030601D02*
X022723Y030645D01*
X022729Y030689D01*
X022739Y030732D01*
X022752Y030774D01*
X022769Y030815D01*
X022790Y030854D01*
X022814Y030891D01*
X022841Y030926D01*
X022871Y030958D01*
X022904Y030988D01*
X022940Y031014D01*
X022977Y031038D01*
X023017Y031057D01*
X023058Y031074D01*
X023101Y031086D01*
X023144Y031095D01*
X023188Y031100D01*
X023232Y031101D01*
X023276Y031098D01*
X023320Y031091D01*
X023363Y031080D01*
X023405Y031066D01*
X023445Y031048D01*
X023484Y031026D01*
X023520Y031002D01*
X023554Y030974D01*
X023586Y030943D01*
X023615Y030909D01*
X023641Y030873D01*
X023663Y030835D01*
X023682Y030795D01*
X023697Y030753D01*
X023709Y030711D01*
X023717Y030667D01*
X023721Y030623D01*
X023721Y030579D01*
X023717Y030535D01*
X023709Y030491D01*
X023697Y030449D01*
X023682Y030407D01*
X023663Y030367D01*
X023641Y030329D01*
X023615Y030293D01*
X023586Y030259D01*
X023554Y030228D01*
X023520Y030200D01*
X023484Y030176D01*
X023445Y030154D01*
X023405Y030136D01*
X023363Y030122D01*
X023320Y030111D01*
X023276Y030104D01*
X023232Y030101D01*
X023188Y030102D01*
X023144Y030107D01*
X023101Y030116D01*
X023058Y030128D01*
X023017Y030145D01*
X022977Y030164D01*
X022940Y030188D01*
X022904Y030214D01*
X022871Y030244D01*
X022841Y030276D01*
X022814Y030311D01*
X022790Y030348D01*
X022769Y030387D01*
X022752Y030428D01*
X022739Y030470D01*
X022729Y030513D01*
X022723Y030557D01*
X022721Y030601D01*
X003221Y030601D02*
X003223Y030645D01*
X003229Y030689D01*
X003239Y030732D01*
X003252Y030774D01*
X003269Y030815D01*
X003290Y030854D01*
X003314Y030891D01*
X003341Y030926D01*
X003371Y030958D01*
X003404Y030988D01*
X003440Y031014D01*
X003477Y031038D01*
X003517Y031057D01*
X003558Y031074D01*
X003601Y031086D01*
X003644Y031095D01*
X003688Y031100D01*
X003732Y031101D01*
X003776Y031098D01*
X003820Y031091D01*
X003863Y031080D01*
X003905Y031066D01*
X003945Y031048D01*
X003984Y031026D01*
X004020Y031002D01*
X004054Y030974D01*
X004086Y030943D01*
X004115Y030909D01*
X004141Y030873D01*
X004163Y030835D01*
X004182Y030795D01*
X004197Y030753D01*
X004209Y030711D01*
X004217Y030667D01*
X004221Y030623D01*
X004221Y030579D01*
X004217Y030535D01*
X004209Y030491D01*
X004197Y030449D01*
X004182Y030407D01*
X004163Y030367D01*
X004141Y030329D01*
X004115Y030293D01*
X004086Y030259D01*
X004054Y030228D01*
X004020Y030200D01*
X003984Y030176D01*
X003945Y030154D01*
X003905Y030136D01*
X003863Y030122D01*
X003820Y030111D01*
X003776Y030104D01*
X003732Y030101D01*
X003688Y030102D01*
X003644Y030107D01*
X003601Y030116D01*
X003558Y030128D01*
X003517Y030145D01*
X003477Y030164D01*
X003440Y030188D01*
X003404Y030214D01*
X003371Y030244D01*
X003341Y030276D01*
X003314Y030311D01*
X003290Y030348D01*
X003269Y030387D01*
X003252Y030428D01*
X003239Y030470D01*
X003229Y030513D01*
X003223Y030557D01*
X003221Y030601D01*
X031721Y012851D02*
X031721Y012101D01*
X034721Y012101D02*
X034721Y012851D01*
X037721Y012851D02*
X037721Y012101D01*
X022721Y007601D02*
X022723Y007645D01*
X022729Y007689D01*
X022739Y007732D01*
X022752Y007774D01*
X022769Y007815D01*
X022790Y007854D01*
X022814Y007891D01*
X022841Y007926D01*
X022871Y007958D01*
X022904Y007988D01*
X022940Y008014D01*
X022977Y008038D01*
X023017Y008057D01*
X023058Y008074D01*
X023101Y008086D01*
X023144Y008095D01*
X023188Y008100D01*
X023232Y008101D01*
X023276Y008098D01*
X023320Y008091D01*
X023363Y008080D01*
X023405Y008066D01*
X023445Y008048D01*
X023484Y008026D01*
X023520Y008002D01*
X023554Y007974D01*
X023586Y007943D01*
X023615Y007909D01*
X023641Y007873D01*
X023663Y007835D01*
X023682Y007795D01*
X023697Y007753D01*
X023709Y007711D01*
X023717Y007667D01*
X023721Y007623D01*
X023721Y007579D01*
X023717Y007535D01*
X023709Y007491D01*
X023697Y007449D01*
X023682Y007407D01*
X023663Y007367D01*
X023641Y007329D01*
X023615Y007293D01*
X023586Y007259D01*
X023554Y007228D01*
X023520Y007200D01*
X023484Y007176D01*
X023445Y007154D01*
X023405Y007136D01*
X023363Y007122D01*
X023320Y007111D01*
X023276Y007104D01*
X023232Y007101D01*
X023188Y007102D01*
X023144Y007107D01*
X023101Y007116D01*
X023058Y007128D01*
X023017Y007145D01*
X022977Y007164D01*
X022940Y007188D01*
X022904Y007214D01*
X022871Y007244D01*
X022841Y007276D01*
X022814Y007311D01*
X022790Y007348D01*
X022769Y007387D01*
X022752Y007428D01*
X022739Y007470D01*
X022729Y007513D01*
X022723Y007557D01*
X022721Y007601D01*
X003221Y007601D02*
X003223Y007645D01*
X003229Y007689D01*
X003239Y007732D01*
X003252Y007774D01*
X003269Y007815D01*
X003290Y007854D01*
X003314Y007891D01*
X003341Y007926D01*
X003371Y007958D01*
X003404Y007988D01*
X003440Y008014D01*
X003477Y008038D01*
X003517Y008057D01*
X003558Y008074D01*
X003601Y008086D01*
X003644Y008095D01*
X003688Y008100D01*
X003732Y008101D01*
X003776Y008098D01*
X003820Y008091D01*
X003863Y008080D01*
X003905Y008066D01*
X003945Y008048D01*
X003984Y008026D01*
X004020Y008002D01*
X004054Y007974D01*
X004086Y007943D01*
X004115Y007909D01*
X004141Y007873D01*
X004163Y007835D01*
X004182Y007795D01*
X004197Y007753D01*
X004209Y007711D01*
X004217Y007667D01*
X004221Y007623D01*
X004221Y007579D01*
X004217Y007535D01*
X004209Y007491D01*
X004197Y007449D01*
X004182Y007407D01*
X004163Y007367D01*
X004141Y007329D01*
X004115Y007293D01*
X004086Y007259D01*
X004054Y007228D01*
X004020Y007200D01*
X003984Y007176D01*
X003945Y007154D01*
X003905Y007136D01*
X003863Y007122D01*
X003820Y007111D01*
X003776Y007104D01*
X003732Y007101D01*
X003688Y007102D01*
X003644Y007107D01*
X003601Y007116D01*
X003558Y007128D01*
X003517Y007145D01*
X003477Y007164D01*
X003440Y007188D01*
X003404Y007214D01*
X003371Y007244D01*
X003341Y007276D01*
X003314Y007311D01*
X003290Y007348D01*
X003269Y007387D01*
X003252Y007428D01*
X003239Y007470D01*
X003229Y007513D01*
X003223Y007557D01*
X003221Y007601D01*
D15*
X002721Y006601D02*
X002721Y006101D01*
X011221Y006101D01*
X011221Y006601D01*
X011221Y006101D02*
X016721Y006101D01*
X016721Y006601D01*
X016721Y006101D02*
X024721Y006101D01*
X024721Y006601D01*
X023981Y007351D02*
X023983Y007421D01*
X023989Y007491D01*
X023999Y007561D01*
X024013Y007629D01*
X024030Y007697D01*
X024052Y007764D01*
X024077Y007830D01*
X024106Y007894D01*
X024138Y007956D01*
X024174Y008016D01*
X024214Y008074D01*
X024256Y008130D01*
X024302Y008183D01*
X024350Y008234D01*
X024402Y008282D01*
X024456Y008327D01*
X024512Y008368D01*
X024571Y008407D01*
X024632Y008442D01*
X024694Y008474D01*
X024759Y008502D01*
X024824Y008526D01*
X024892Y008546D01*
X024960Y008563D01*
X025029Y008576D01*
X025098Y008585D01*
X025168Y008590D01*
X025239Y008591D01*
X025309Y008588D01*
X025379Y008581D01*
X025448Y008570D01*
X025516Y008555D01*
X025584Y008537D01*
X025651Y008514D01*
X025716Y008488D01*
X025779Y008458D01*
X025841Y008425D01*
X025901Y008388D01*
X025958Y008348D01*
X026014Y008305D01*
X026066Y008258D01*
X026116Y008209D01*
X026163Y008157D01*
X026207Y008102D01*
X026248Y008045D01*
X026286Y007986D01*
X026320Y007925D01*
X026351Y007862D01*
X026378Y007797D01*
X026401Y007731D01*
X026421Y007663D01*
X026437Y007595D01*
X026449Y007526D01*
X026457Y007456D01*
X026461Y007386D01*
X026461Y007316D01*
X026457Y007246D01*
X026449Y007176D01*
X026437Y007107D01*
X026421Y007039D01*
X026401Y006971D01*
X026378Y006905D01*
X026351Y006840D01*
X026320Y006777D01*
X026286Y006716D01*
X026248Y006657D01*
X026207Y006600D01*
X026163Y006545D01*
X026116Y006493D01*
X026066Y006444D01*
X026014Y006397D01*
X025958Y006354D01*
X025901Y006314D01*
X025841Y006277D01*
X025779Y006244D01*
X025716Y006214D01*
X025651Y006188D01*
X025584Y006165D01*
X025516Y006147D01*
X025448Y006132D01*
X025379Y006121D01*
X025309Y006114D01*
X025239Y006111D01*
X025168Y006112D01*
X025098Y006117D01*
X025029Y006126D01*
X024960Y006139D01*
X024892Y006156D01*
X024824Y006176D01*
X024759Y006200D01*
X024694Y006228D01*
X024632Y006260D01*
X024571Y006295D01*
X024512Y006334D01*
X024456Y006375D01*
X024402Y006420D01*
X024350Y006468D01*
X024302Y006519D01*
X024256Y006572D01*
X024214Y006628D01*
X024174Y006686D01*
X024138Y006746D01*
X024106Y006808D01*
X024077Y006872D01*
X024052Y006938D01*
X024030Y007005D01*
X024013Y007073D01*
X023999Y007141D01*
X023989Y007211D01*
X023983Y007281D01*
X023981Y007351D01*
X023721Y007351D02*
X023221Y007351D01*
X023471Y007601D02*
X023471Y007101D01*
X024721Y009101D02*
X021721Y009101D01*
X021721Y029101D01*
X024721Y029101D01*
X024721Y009101D01*
X029721Y006601D02*
X030721Y006601D01*
X030721Y000601D01*
X029721Y000601D01*
X029721Y006601D01*
X034221Y006601D02*
X035221Y006601D01*
X035221Y000601D01*
X034221Y000601D01*
X034221Y006601D01*
X033221Y003851D02*
X031721Y003851D01*
X031221Y003101D02*
X031221Y002101D01*
X031721Y001351D02*
X033221Y001351D01*
X033721Y002101D02*
X033721Y003101D01*
X031671Y002601D02*
X031673Y002655D01*
X031679Y002709D01*
X031689Y002762D01*
X031702Y002815D01*
X031719Y002866D01*
X031740Y002916D01*
X031765Y002964D01*
X031793Y003011D01*
X031824Y003055D01*
X031858Y003097D01*
X031895Y003136D01*
X031935Y003173D01*
X031978Y003206D01*
X032023Y003237D01*
X032070Y003264D01*
X032118Y003287D01*
X032169Y003307D01*
X032220Y003324D01*
X032273Y003336D01*
X032326Y003345D01*
X032380Y003350D01*
X032435Y003351D01*
X032489Y003348D01*
X032542Y003341D01*
X032595Y003330D01*
X032648Y003316D01*
X032699Y003298D01*
X032748Y003276D01*
X032796Y003251D01*
X032842Y003222D01*
X032886Y003190D01*
X032927Y003155D01*
X032965Y003117D01*
X033001Y003076D01*
X033034Y003033D01*
X033064Y002988D01*
X033090Y002940D01*
X033113Y002891D01*
X033132Y002840D01*
X033147Y002789D01*
X033159Y002736D01*
X033167Y002682D01*
X033171Y002628D01*
X033171Y002574D01*
X033167Y002520D01*
X033159Y002466D01*
X033147Y002413D01*
X033132Y002362D01*
X033113Y002311D01*
X033090Y002262D01*
X033064Y002214D01*
X033034Y002169D01*
X033001Y002126D01*
X032965Y002085D01*
X032927Y002047D01*
X032886Y002012D01*
X032842Y001980D01*
X032796Y001951D01*
X032748Y001926D01*
X032699Y001904D01*
X032648Y001886D01*
X032595Y001872D01*
X032542Y001861D01*
X032489Y001854D01*
X032435Y001851D01*
X032380Y001852D01*
X032326Y001857D01*
X032273Y001866D01*
X032220Y001878D01*
X032169Y001895D01*
X032118Y001915D01*
X032070Y001938D01*
X032023Y001965D01*
X031978Y001996D01*
X031935Y002029D01*
X031895Y002066D01*
X031858Y002105D01*
X031824Y002147D01*
X031793Y002191D01*
X031765Y002238D01*
X031740Y002286D01*
X031719Y002336D01*
X031702Y002387D01*
X031689Y002440D01*
X031679Y002493D01*
X031673Y002547D01*
X031671Y002601D01*
X029221Y002101D02*
X029221Y003101D01*
X028721Y003851D02*
X027221Y003851D01*
X026721Y003101D02*
X026721Y002101D01*
X027221Y001351D02*
X028721Y001351D01*
X027171Y002601D02*
X027173Y002655D01*
X027179Y002709D01*
X027189Y002762D01*
X027202Y002815D01*
X027219Y002866D01*
X027240Y002916D01*
X027265Y002964D01*
X027293Y003011D01*
X027324Y003055D01*
X027358Y003097D01*
X027395Y003136D01*
X027435Y003173D01*
X027478Y003206D01*
X027523Y003237D01*
X027570Y003264D01*
X027618Y003287D01*
X027669Y003307D01*
X027720Y003324D01*
X027773Y003336D01*
X027826Y003345D01*
X027880Y003350D01*
X027935Y003351D01*
X027989Y003348D01*
X028042Y003341D01*
X028095Y003330D01*
X028148Y003316D01*
X028199Y003298D01*
X028248Y003276D01*
X028296Y003251D01*
X028342Y003222D01*
X028386Y003190D01*
X028427Y003155D01*
X028465Y003117D01*
X028501Y003076D01*
X028534Y003033D01*
X028564Y002988D01*
X028590Y002940D01*
X028613Y002891D01*
X028632Y002840D01*
X028647Y002789D01*
X028659Y002736D01*
X028667Y002682D01*
X028671Y002628D01*
X028671Y002574D01*
X028667Y002520D01*
X028659Y002466D01*
X028647Y002413D01*
X028632Y002362D01*
X028613Y002311D01*
X028590Y002262D01*
X028564Y002214D01*
X028534Y002169D01*
X028501Y002126D01*
X028465Y002085D01*
X028427Y002047D01*
X028386Y002012D01*
X028342Y001980D01*
X028296Y001951D01*
X028248Y001926D01*
X028199Y001904D01*
X028148Y001886D01*
X028095Y001872D01*
X028042Y001861D01*
X027989Y001854D01*
X027935Y001851D01*
X027880Y001852D01*
X027826Y001857D01*
X027773Y001866D01*
X027720Y001878D01*
X027669Y001895D01*
X027618Y001915D01*
X027570Y001938D01*
X027523Y001965D01*
X027478Y001996D01*
X027435Y002029D01*
X027395Y002066D01*
X027358Y002105D01*
X027324Y002147D01*
X027293Y002191D01*
X027265Y002238D01*
X027240Y002286D01*
X027219Y002336D01*
X027202Y002387D01*
X027189Y002440D01*
X027179Y002493D01*
X027173Y002547D01*
X027171Y002601D01*
X023721Y004601D02*
X023721Y000601D01*
X019721Y000601D01*
X019721Y004601D01*
X023721Y004601D01*
X022471Y004851D02*
X021971Y005101D01*
X021971Y004851D01*
X022471Y004851D01*
X021971Y004851D02*
X021221Y004851D01*
X014981Y005601D02*
X014983Y005671D01*
X014989Y005741D01*
X014999Y005811D01*
X015013Y005879D01*
X015030Y005947D01*
X015052Y006014D01*
X015077Y006080D01*
X015106Y006144D01*
X015138Y006206D01*
X015174Y006266D01*
X015214Y006324D01*
X015256Y006380D01*
X015302Y006433D01*
X015350Y006484D01*
X015402Y006532D01*
X015456Y006577D01*
X015512Y006618D01*
X015571Y006657D01*
X015632Y006692D01*
X015694Y006724D01*
X015759Y006752D01*
X015824Y006776D01*
X015892Y006796D01*
X015960Y006813D01*
X016029Y006826D01*
X016098Y006835D01*
X016168Y006840D01*
X016239Y006841D01*
X016309Y006838D01*
X016379Y006831D01*
X016448Y006820D01*
X016516Y006805D01*
X016584Y006787D01*
X016651Y006764D01*
X016716Y006738D01*
X016779Y006708D01*
X016841Y006675D01*
X016901Y006638D01*
X016958Y006598D01*
X017014Y006555D01*
X017066Y006508D01*
X017116Y006459D01*
X017163Y006407D01*
X017207Y006352D01*
X017248Y006295D01*
X017286Y006236D01*
X017320Y006175D01*
X017351Y006112D01*
X017378Y006047D01*
X017401Y005981D01*
X017421Y005913D01*
X017437Y005845D01*
X017449Y005776D01*
X017457Y005706D01*
X017461Y005636D01*
X017461Y005566D01*
X017457Y005496D01*
X017449Y005426D01*
X017437Y005357D01*
X017421Y005289D01*
X017401Y005221D01*
X017378Y005155D01*
X017351Y005090D01*
X017320Y005027D01*
X017286Y004966D01*
X017248Y004907D01*
X017207Y004850D01*
X017163Y004795D01*
X017116Y004743D01*
X017066Y004694D01*
X017014Y004647D01*
X016958Y004604D01*
X016901Y004564D01*
X016841Y004527D01*
X016779Y004494D01*
X016716Y004464D01*
X016651Y004438D01*
X016584Y004415D01*
X016516Y004397D01*
X016448Y004382D01*
X016379Y004371D01*
X016309Y004364D01*
X016239Y004361D01*
X016168Y004362D01*
X016098Y004367D01*
X016029Y004376D01*
X015960Y004389D01*
X015892Y004406D01*
X015824Y004426D01*
X015759Y004450D01*
X015694Y004478D01*
X015632Y004510D01*
X015571Y004545D01*
X015512Y004584D01*
X015456Y004625D01*
X015402Y004670D01*
X015350Y004718D01*
X015302Y004769D01*
X015256Y004822D01*
X015214Y004878D01*
X015174Y004936D01*
X015138Y004996D01*
X015106Y005058D01*
X015077Y005122D01*
X015052Y005188D01*
X015030Y005255D01*
X015013Y005323D01*
X014999Y005391D01*
X014989Y005461D01*
X014983Y005531D01*
X014981Y005601D01*
X014721Y005601D02*
X014221Y005601D01*
X014471Y005851D02*
X014471Y005351D01*
X010481Y005601D02*
X010483Y005671D01*
X010489Y005741D01*
X010499Y005811D01*
X010513Y005879D01*
X010530Y005947D01*
X010552Y006014D01*
X010577Y006080D01*
X010606Y006144D01*
X010638Y006206D01*
X010674Y006266D01*
X010714Y006324D01*
X010756Y006380D01*
X010802Y006433D01*
X010850Y006484D01*
X010902Y006532D01*
X010956Y006577D01*
X011012Y006618D01*
X011071Y006657D01*
X011132Y006692D01*
X011194Y006724D01*
X011259Y006752D01*
X011324Y006776D01*
X011392Y006796D01*
X011460Y006813D01*
X011529Y006826D01*
X011598Y006835D01*
X011668Y006840D01*
X011739Y006841D01*
X011809Y006838D01*
X011879Y006831D01*
X011948Y006820D01*
X012016Y006805D01*
X012084Y006787D01*
X012151Y006764D01*
X012216Y006738D01*
X012279Y006708D01*
X012341Y006675D01*
X012401Y006638D01*
X012458Y006598D01*
X012514Y006555D01*
X012566Y006508D01*
X012616Y006459D01*
X012663Y006407D01*
X012707Y006352D01*
X012748Y006295D01*
X012786Y006236D01*
X012820Y006175D01*
X012851Y006112D01*
X012878Y006047D01*
X012901Y005981D01*
X012921Y005913D01*
X012937Y005845D01*
X012949Y005776D01*
X012957Y005706D01*
X012961Y005636D01*
X012961Y005566D01*
X012957Y005496D01*
X012949Y005426D01*
X012937Y005357D01*
X012921Y005289D01*
X012901Y005221D01*
X012878Y005155D01*
X012851Y005090D01*
X012820Y005027D01*
X012786Y004966D01*
X012748Y004907D01*
X012707Y004850D01*
X012663Y004795D01*
X012616Y004743D01*
X012566Y004694D01*
X012514Y004647D01*
X012458Y004604D01*
X012401Y004564D01*
X012341Y004527D01*
X012279Y004494D01*
X012216Y004464D01*
X012151Y004438D01*
X012084Y004415D01*
X012016Y004397D01*
X011948Y004382D01*
X011879Y004371D01*
X011809Y004364D01*
X011739Y004361D01*
X011668Y004362D01*
X011598Y004367D01*
X011529Y004376D01*
X011460Y004389D01*
X011392Y004406D01*
X011324Y004426D01*
X011259Y004450D01*
X011194Y004478D01*
X011132Y004510D01*
X011071Y004545D01*
X011012Y004584D01*
X010956Y004625D01*
X010902Y004670D01*
X010850Y004718D01*
X010802Y004769D01*
X010756Y004822D01*
X010714Y004878D01*
X010674Y004936D01*
X010638Y004996D01*
X010606Y005058D01*
X010577Y005122D01*
X010552Y005188D01*
X010530Y005255D01*
X010513Y005323D01*
X010499Y005391D01*
X010489Y005461D01*
X010483Y005531D01*
X010481Y005601D01*
X010221Y005601D02*
X009721Y005601D01*
X009971Y005851D02*
X009971Y005351D01*
X008721Y005601D02*
X008721Y000601D01*
X006721Y000601D01*
X006721Y005601D01*
X008721Y005601D01*
X013221Y007251D02*
X013221Y003451D01*
X014221Y003451D01*
X014221Y007251D01*
X013221Y007251D01*
X012671Y009101D02*
X012671Y014001D01*
X013021Y014001D01*
X013021Y014601D01*
X012671Y014601D01*
X012671Y015351D01*
X016771Y015351D01*
X016771Y014601D01*
X016421Y014601D01*
X016421Y014001D01*
X016771Y014001D01*
X016771Y009101D01*
X012671Y009101D01*
X012221Y009601D02*
X011221Y009601D01*
X011221Y015601D01*
X012221Y015601D01*
X012221Y009601D01*
X008457Y011908D02*
X007827Y011908D01*
X008457Y011908D02*
X008457Y012538D01*
X005957Y011908D02*
X002827Y011908D01*
X002827Y015294D01*
X008457Y015294D01*
X008457Y014664D01*
X005740Y014782D02*
X005319Y014782D01*
X004926Y014782D02*
X004505Y014782D01*
X004111Y014782D02*
X003690Y014782D01*
X003297Y014782D02*
X002876Y014782D01*
X003378Y013955D02*
X004067Y013955D01*
X004461Y013955D02*
X005150Y013955D01*
X005150Y013246D02*
X004461Y013246D01*
X004067Y013246D02*
X003378Y013246D01*
X003342Y013253D01*
X003306Y013263D01*
X003272Y013276D01*
X003239Y013293D01*
X003208Y013314D01*
X003179Y013337D01*
X003153Y013364D01*
X003130Y013393D01*
X003110Y013424D01*
X003093Y013457D01*
X003080Y013492D01*
X003071Y013527D01*
X003065Y013564D01*
X003063Y013601D01*
X003065Y013638D01*
X003071Y013675D01*
X003080Y013710D01*
X003093Y013745D01*
X003110Y013778D01*
X003130Y013809D01*
X003153Y013838D01*
X003179Y013865D01*
X003208Y013888D01*
X003239Y013909D01*
X003272Y013926D01*
X003306Y013939D01*
X003342Y013949D01*
X003378Y013956D01*
X003289Y012420D02*
X002866Y012420D01*
X003683Y012420D02*
X004106Y012420D01*
X004500Y012420D02*
X004923Y012420D01*
X005317Y012420D02*
X005740Y012420D01*
X004611Y010661D02*
X004632Y010707D01*
X004656Y010752D01*
X004683Y010795D01*
X004714Y010836D01*
X004748Y010874D01*
X004784Y010910D01*
X004823Y010942D01*
X004864Y010972D01*
X004908Y010999D01*
X004953Y011022D01*
X005000Y011041D01*
X005048Y011057D01*
X005098Y011070D01*
X005148Y011078D01*
X005199Y011083D01*
X005249Y011084D01*
X005300Y011081D01*
X005351Y011074D01*
X005401Y011064D01*
X005449Y011049D01*
X005497Y011031D01*
X005543Y011010D01*
X005588Y010985D01*
X005630Y010957D01*
X005670Y010925D01*
X005708Y010891D01*
X005743Y010854D01*
X005775Y010815D01*
X005804Y010773D01*
X005829Y010729D01*
X005852Y010683D01*
X005870Y010636D01*
X005886Y010587D01*
X005897Y010538D01*
X005905Y010487D01*
X005909Y010436D01*
X005909Y010386D01*
X005905Y010335D01*
X005897Y010284D01*
X005886Y010235D01*
X005870Y010186D01*
X005852Y010139D01*
X005829Y010093D01*
X005804Y010049D01*
X005775Y010007D01*
X005743Y009968D01*
X005708Y009931D01*
X005670Y009897D01*
X005630Y009865D01*
X005588Y009837D01*
X005543Y009812D01*
X005497Y009791D01*
X005449Y009773D01*
X005401Y009758D01*
X005351Y009748D01*
X005300Y009741D01*
X005249Y009738D01*
X005199Y009739D01*
X005148Y009744D01*
X005098Y009752D01*
X005048Y009765D01*
X005000Y009781D01*
X004953Y009800D01*
X004908Y009823D01*
X004864Y009850D01*
X004823Y009880D01*
X004784Y009912D01*
X004748Y009948D01*
X004714Y009986D01*
X004683Y010027D01*
X004656Y010070D01*
X004632Y010115D01*
X004611Y010161D01*
X004371Y010391D02*
X005031Y010391D01*
X011721Y016201D02*
X011721Y020001D01*
X012721Y020001D01*
X012721Y016201D01*
X011721Y016201D01*
X013721Y016201D02*
X014721Y016201D01*
X014721Y020001D01*
X013721Y020001D01*
X013721Y016201D01*
X015721Y016201D02*
X015721Y020001D01*
X016721Y020001D01*
X016721Y016201D01*
X015721Y016201D01*
X014011Y014001D02*
X014013Y014054D01*
X014019Y014107D01*
X014029Y014159D01*
X014043Y014210D01*
X014060Y014260D01*
X014081Y014309D01*
X014106Y014356D01*
X014134Y014401D01*
X014166Y014444D01*
X014201Y014484D01*
X014238Y014521D01*
X014278Y014556D01*
X014321Y014588D01*
X014366Y014616D01*
X014413Y014641D01*
X014462Y014662D01*
X014512Y014679D01*
X014563Y014693D01*
X014615Y014703D01*
X014668Y014709D01*
X014721Y014711D01*
X014774Y014709D01*
X014827Y014703D01*
X014879Y014693D01*
X014930Y014679D01*
X014980Y014662D01*
X015029Y014641D01*
X015076Y014616D01*
X015121Y014588D01*
X015164Y014556D01*
X015204Y014521D01*
X015241Y014484D01*
X015276Y014444D01*
X015308Y014401D01*
X015336Y014356D01*
X015361Y014309D01*
X015382Y014260D01*
X015399Y014210D01*
X015413Y014159D01*
X015423Y014107D01*
X015429Y014054D01*
X015431Y014001D01*
X015429Y013948D01*
X015423Y013895D01*
X015413Y013843D01*
X015399Y013792D01*
X015382Y013742D01*
X015361Y013693D01*
X015336Y013646D01*
X015308Y013601D01*
X015276Y013558D01*
X015241Y013518D01*
X015204Y013481D01*
X015164Y013446D01*
X015121Y013414D01*
X015076Y013386D01*
X015029Y013361D01*
X014980Y013340D01*
X014930Y013323D01*
X014879Y013309D01*
X014827Y013299D01*
X014774Y013293D01*
X014721Y013291D01*
X014668Y013293D01*
X014615Y013299D01*
X014563Y013309D01*
X014512Y013323D01*
X014462Y013340D01*
X014413Y013361D01*
X014366Y013386D01*
X014321Y013414D01*
X014278Y013446D01*
X014238Y013481D01*
X014201Y013518D01*
X014166Y013558D01*
X014134Y013601D01*
X014106Y013646D01*
X014081Y013693D01*
X014060Y013742D01*
X014043Y013792D01*
X014029Y013843D01*
X014019Y013895D01*
X014013Y013948D01*
X014011Y014001D01*
X008471Y017251D02*
X008221Y017001D01*
X004221Y017001D01*
X004221Y019351D01*
X008271Y019351D01*
X008471Y019151D01*
X008471Y017251D01*
X004221Y017001D02*
X002821Y017001D01*
X002821Y019001D02*
X003021Y019001D01*
X003021Y019051D02*
X003971Y019051D01*
X004001Y019053D01*
X004031Y019058D01*
X004060Y019067D01*
X004087Y019080D01*
X004113Y019095D01*
X004137Y019114D01*
X004158Y019135D01*
X004177Y019159D01*
X004192Y019185D01*
X004205Y019212D01*
X004214Y019241D01*
X004219Y019271D01*
X004221Y019301D01*
X004221Y019451D02*
X004221Y026751D01*
X004521Y026751D01*
X004521Y019451D01*
X004221Y019451D01*
X002621Y019651D02*
X002619Y019681D01*
X002614Y019711D01*
X002605Y019740D01*
X002592Y019767D01*
X002577Y019793D01*
X002558Y019817D01*
X002537Y019838D01*
X002513Y019857D01*
X002487Y019872D01*
X002460Y019885D01*
X002431Y019894D01*
X002401Y019899D01*
X002371Y019901D01*
X000371Y019901D01*
X000345Y019903D01*
X000319Y019908D01*
X000294Y019916D01*
X000271Y019928D01*
X000249Y019942D01*
X000230Y019960D01*
X000212Y019979D01*
X000198Y020001D01*
X000186Y020024D01*
X000178Y020049D01*
X000173Y020075D01*
X000171Y020101D01*
X000171Y026101D01*
X000173Y026127D01*
X000178Y026153D01*
X000186Y026178D01*
X000198Y026201D01*
X000212Y026223D01*
X000230Y026242D01*
X000249Y026260D01*
X000271Y026274D01*
X000294Y026286D01*
X000319Y026294D01*
X000345Y026299D01*
X000371Y026301D01*
X002371Y026301D01*
X002401Y026303D01*
X002431Y026308D01*
X002460Y026317D01*
X002487Y026330D01*
X002513Y026345D01*
X002537Y026364D01*
X002558Y026385D01*
X002577Y026409D01*
X002592Y026435D01*
X002605Y026462D01*
X002614Y026491D01*
X002619Y026521D01*
X002621Y026551D01*
X002821Y027201D02*
X003021Y027201D01*
X003021Y027151D02*
X003971Y027151D01*
X004221Y026851D02*
X004221Y029201D01*
X008271Y029201D01*
X008471Y029001D01*
X008471Y027051D01*
X008271Y026851D01*
X004221Y026851D01*
X004221Y029201D02*
X002821Y029201D01*
X008721Y031101D02*
X008721Y032101D01*
X008721Y033101D01*
X014721Y033101D01*
X014721Y032101D01*
X008721Y032101D01*
X014721Y032101D01*
X014721Y031101D01*
X008721Y031101D01*
X012721Y029541D02*
X012721Y029001D01*
X012760Y028999D01*
X012799Y028993D01*
X012837Y028984D01*
X012874Y028971D01*
X012910Y028954D01*
X012943Y028934D01*
X012975Y028910D01*
X013004Y028884D01*
X013030Y028855D01*
X013054Y028823D01*
X013074Y028790D01*
X013091Y028754D01*
X013104Y028717D01*
X013113Y028679D01*
X013119Y028640D01*
X013121Y028601D01*
X013119Y028562D01*
X013113Y028523D01*
X013104Y028485D01*
X013091Y028448D01*
X013074Y028412D01*
X013054Y028379D01*
X013030Y028347D01*
X013004Y028318D01*
X012975Y028292D01*
X012943Y028268D01*
X012910Y028248D01*
X012874Y028231D01*
X012837Y028218D01*
X012799Y028209D01*
X012760Y028203D01*
X012721Y028201D01*
X012721Y027671D01*
X016721Y027671D01*
X016721Y029541D01*
X012721Y029541D01*
X011721Y028001D02*
X010721Y028001D01*
X010721Y024201D01*
X011721Y024201D01*
X011721Y028001D01*
X010471Y024001D02*
X009471Y024001D01*
X009471Y020201D01*
X010471Y020201D01*
X010471Y024001D01*
X010721Y023001D02*
X010721Y022501D01*
X010760Y022499D01*
X010799Y022493D01*
X010837Y022484D01*
X010874Y022471D01*
X010910Y022454D01*
X010943Y022434D01*
X010975Y022410D01*
X011004Y022384D01*
X011030Y022355D01*
X011054Y022323D01*
X011074Y022290D01*
X011091Y022254D01*
X011104Y022217D01*
X011113Y022179D01*
X011119Y022140D01*
X011121Y022101D01*
X011119Y022062D01*
X011113Y022023D01*
X011104Y021985D01*
X011091Y021948D01*
X011074Y021912D01*
X011054Y021879D01*
X011030Y021847D01*
X011004Y021818D01*
X010975Y021792D01*
X010943Y021768D01*
X010910Y021748D01*
X010874Y021731D01*
X010837Y021718D01*
X010799Y021709D01*
X010760Y021703D01*
X010721Y021701D01*
X010721Y021201D01*
X018721Y021201D01*
X018721Y023001D01*
X010721Y023001D01*
X028721Y019228D02*
X028721Y017974D01*
X047221Y017974D01*
X047221Y019228D01*
X028721Y019228D01*
X029221Y017601D02*
X029221Y016601D01*
X028971Y017101D01*
X029471Y017101D02*
X029221Y016601D01*
X030221Y016601D02*
X030221Y017601D01*
X030471Y017101D01*
X029971Y017101D02*
X030221Y017601D01*
X039221Y018101D02*
X049221Y018101D01*
X049221Y021101D01*
X055221Y021101D01*
X055221Y018101D01*
X065221Y018101D01*
X065221Y007101D01*
X039221Y007101D01*
X039221Y018101D01*
X043721Y015101D02*
X044721Y015101D01*
X044721Y009101D01*
X043721Y009101D01*
X043721Y015101D01*
X043689Y014101D02*
X044089Y014101D01*
X044483Y014101D02*
X044882Y014101D01*
X045276Y014101D02*
X045676Y014101D01*
X046070Y014101D02*
X046469Y014101D01*
X046863Y014101D02*
X047263Y014101D01*
X047657Y014101D02*
X048057Y014101D01*
X048450Y014101D02*
X048850Y014101D01*
X049244Y014101D02*
X049644Y014101D01*
X050037Y014101D02*
X050437Y014101D01*
X050831Y014101D02*
X051231Y014101D01*
X051624Y014101D02*
X052024Y014101D01*
X052418Y014101D02*
X052818Y014101D01*
X053211Y014101D02*
X053611Y014101D01*
X054005Y014101D02*
X054405Y014101D01*
X054799Y014101D02*
X055198Y014101D01*
X055592Y014101D02*
X055992Y014101D01*
X056386Y014101D02*
X056786Y014101D01*
X057179Y014101D02*
X057579Y014101D01*
X057973Y014101D02*
X058373Y014101D01*
X058766Y014101D02*
X059166Y014101D01*
X059560Y014101D02*
X059960Y014101D01*
X060353Y014101D02*
X060753Y014101D01*
X061147Y014101D02*
X061547Y014101D01*
X061940Y014101D02*
X062340Y014101D01*
X062734Y014101D02*
X063134Y014101D01*
X063528Y014101D02*
X063927Y014101D01*
X064321Y014101D02*
X064721Y014101D01*
X064721Y013633D01*
X064721Y013239D02*
X064721Y012771D01*
X064721Y012377D02*
X064721Y011909D01*
X064721Y011516D02*
X064721Y011048D01*
X064721Y010654D02*
X064721Y010186D01*
X064721Y009792D02*
X064721Y009324D01*
X064721Y008931D02*
X064721Y008463D01*
X064721Y008069D02*
X064721Y007601D01*
X064321Y007601D01*
X063928Y007601D02*
X063528Y007601D01*
X063134Y007601D02*
X062734Y007601D01*
X062341Y007601D02*
X061941Y007601D01*
X061547Y007601D02*
X061147Y007601D01*
X060754Y007601D02*
X060354Y007601D01*
X059960Y007601D02*
X059560Y007601D01*
X059166Y007601D02*
X058767Y007601D01*
X058373Y007601D02*
X057973Y007601D01*
X057579Y007601D02*
X057180Y007601D01*
X056786Y007601D02*
X056386Y007601D01*
X055992Y007601D02*
X055592Y007601D01*
X055199Y007601D02*
X054799Y007601D01*
X054405Y007601D02*
X054005Y007601D01*
X053612Y007601D02*
X053212Y007601D01*
X052818Y007601D02*
X052418Y007601D01*
X052025Y007601D02*
X051625Y007601D01*
X051231Y007601D02*
X050831Y007601D01*
X050437Y007601D02*
X050038Y007601D01*
X049644Y007601D02*
X049244Y007601D01*
X048850Y007601D02*
X048451Y007601D01*
X048057Y007601D02*
X047657Y007601D01*
X047263Y007601D02*
X046863Y007601D01*
X046470Y007601D02*
X046070Y007601D01*
X045676Y007601D02*
X045276Y007601D01*
X044883Y007601D02*
X044483Y007601D01*
X044089Y007601D02*
X043689Y007601D01*
X043296Y007601D02*
X042896Y007601D01*
X042502Y007601D02*
X042102Y007601D01*
X041709Y007601D02*
X041309Y007601D01*
X040915Y007601D02*
X040515Y007601D01*
X040121Y007601D02*
X039722Y007601D01*
X039721Y007601D02*
X039721Y008069D01*
X039721Y008462D02*
X039721Y008930D01*
X039721Y009324D02*
X039721Y009792D01*
X039721Y010186D02*
X039721Y010654D01*
X039721Y011048D02*
X039721Y011516D01*
X039721Y011909D02*
X039721Y012377D01*
X039721Y012771D02*
X039721Y013239D01*
X039721Y013633D02*
X039721Y014101D01*
X040121Y014101D01*
X040515Y014101D02*
X040915Y014101D01*
X041308Y014101D02*
X041708Y014101D01*
X042102Y014101D02*
X042502Y014101D01*
X042895Y014101D02*
X043295Y014101D01*
X045721Y015101D02*
X046721Y015101D01*
X046721Y009101D01*
X045721Y009101D01*
X045721Y015101D01*
X047721Y015101D02*
X048721Y015101D01*
X048721Y009101D01*
X047721Y009101D01*
X047721Y015101D01*
X049721Y015101D02*
X050721Y015101D01*
X050721Y009101D01*
X049721Y009101D01*
X049721Y015101D01*
X059221Y018601D02*
X065221Y018601D01*
X065221Y022601D01*
X059221Y022601D01*
X059221Y018601D01*
X057806Y013101D02*
X057810Y013244D01*
X057820Y013387D01*
X057838Y013529D01*
X057862Y013670D01*
X057893Y013809D01*
X057932Y013947D01*
X057976Y014083D01*
X058028Y014217D01*
X058086Y014347D01*
X058150Y014475D01*
X058221Y014600D01*
X058297Y014720D01*
X058380Y014837D01*
X058468Y014950D01*
X058561Y015059D01*
X058660Y015162D01*
X058763Y015261D01*
X058872Y015354D01*
X058985Y015442D01*
X059102Y015525D01*
X059222Y015601D01*
X059347Y015672D01*
X059475Y015736D01*
X059605Y015794D01*
X059739Y015846D01*
X059875Y015890D01*
X060013Y015929D01*
X060152Y015960D01*
X060293Y015984D01*
X060435Y016002D01*
X060578Y016012D01*
X060721Y016016D01*
X060864Y016012D01*
X061007Y016002D01*
X061149Y015984D01*
X061290Y015960D01*
X061429Y015929D01*
X061567Y015890D01*
X061703Y015846D01*
X061837Y015794D01*
X061967Y015736D01*
X062095Y015672D01*
X062220Y015601D01*
X062340Y015525D01*
X062457Y015442D01*
X062570Y015354D01*
X062679Y015261D01*
X062782Y015162D01*
X062881Y015059D01*
X062974Y014950D01*
X063062Y014837D01*
X063145Y014720D01*
X063221Y014600D01*
X063292Y014475D01*
X063356Y014347D01*
X063414Y014217D01*
X063466Y014083D01*
X063510Y013947D01*
X063549Y013809D01*
X063580Y013670D01*
X063604Y013529D01*
X063622Y013387D01*
X063632Y013244D01*
X063636Y013101D01*
X063632Y012958D01*
X063622Y012815D01*
X063604Y012673D01*
X063580Y012532D01*
X063549Y012393D01*
X063510Y012255D01*
X063466Y012119D01*
X063414Y011985D01*
X063356Y011855D01*
X063292Y011727D01*
X063221Y011602D01*
X063145Y011482D01*
X063062Y011365D01*
X062974Y011252D01*
X062881Y011143D01*
X062782Y011040D01*
X062679Y010941D01*
X062570Y010848D01*
X062457Y010760D01*
X062340Y010677D01*
X062220Y010601D01*
X062095Y010530D01*
X061967Y010466D01*
X061837Y010408D01*
X061703Y010356D01*
X061567Y010312D01*
X061429Y010273D01*
X061290Y010242D01*
X061149Y010218D01*
X061007Y010200D01*
X060864Y010190D01*
X060721Y010186D01*
X060578Y010190D01*
X060435Y010200D01*
X060293Y010218D01*
X060152Y010242D01*
X060013Y010273D01*
X059875Y010312D01*
X059739Y010356D01*
X059605Y010408D01*
X059475Y010466D01*
X059347Y010530D01*
X059222Y010601D01*
X059102Y010677D01*
X058985Y010760D01*
X058872Y010848D01*
X058763Y010941D01*
X058660Y011040D01*
X058561Y011143D01*
X058468Y011252D01*
X058380Y011365D01*
X058297Y011482D01*
X058221Y011602D01*
X058150Y011727D01*
X058086Y011855D01*
X058028Y011985D01*
X057976Y012119D01*
X057932Y012255D01*
X057893Y012393D01*
X057862Y012532D01*
X057838Y012673D01*
X057820Y012815D01*
X057810Y012958D01*
X057806Y013101D01*
X058058Y013101D02*
X058061Y013232D01*
X058071Y013362D01*
X058087Y013492D01*
X058109Y013621D01*
X058138Y013748D01*
X058173Y013874D01*
X058214Y013998D01*
X058261Y014120D01*
X058314Y014240D01*
X058372Y014356D01*
X058437Y014470D01*
X058507Y014580D01*
X058582Y014687D01*
X058662Y014790D01*
X058748Y014889D01*
X058838Y014984D01*
X058933Y015074D01*
X059032Y015160D01*
X059135Y015240D01*
X059242Y015315D01*
X059352Y015385D01*
X059466Y015450D01*
X059582Y015508D01*
X059702Y015561D01*
X059824Y015608D01*
X059948Y015649D01*
X060074Y015684D01*
X060201Y015713D01*
X060330Y015735D01*
X060460Y015751D01*
X060590Y015761D01*
X060721Y015764D01*
X060852Y015761D01*
X060982Y015751D01*
X061112Y015735D01*
X061241Y015713D01*
X061368Y015684D01*
X061494Y015649D01*
X061618Y015608D01*
X061740Y015561D01*
X061860Y015508D01*
X061976Y015450D01*
X062090Y015385D01*
X062200Y015315D01*
X062307Y015240D01*
X062410Y015160D01*
X062509Y015074D01*
X062604Y014984D01*
X062694Y014889D01*
X062780Y014790D01*
X062860Y014687D01*
X062935Y014580D01*
X063005Y014470D01*
X063070Y014356D01*
X063128Y014240D01*
X063181Y014120D01*
X063228Y013998D01*
X063269Y013874D01*
X063304Y013748D01*
X063333Y013621D01*
X063355Y013492D01*
X063371Y013362D01*
X063381Y013232D01*
X063384Y013101D01*
X063381Y012970D01*
X063371Y012840D01*
X063355Y012710D01*
X063333Y012581D01*
X063304Y012454D01*
X063269Y012328D01*
X063228Y012204D01*
X063181Y012082D01*
X063128Y011962D01*
X063070Y011846D01*
X063005Y011732D01*
X062935Y011622D01*
X062860Y011515D01*
X062780Y011412D01*
X062694Y011313D01*
X062604Y011218D01*
X062509Y011128D01*
X062410Y011042D01*
X062307Y010962D01*
X062200Y010887D01*
X062090Y010817D01*
X061976Y010752D01*
X061860Y010694D01*
X061740Y010641D01*
X061618Y010594D01*
X061494Y010553D01*
X061368Y010518D01*
X061241Y010489D01*
X061112Y010467D01*
X060982Y010451D01*
X060852Y010441D01*
X060721Y010438D01*
X060590Y010441D01*
X060460Y010451D01*
X060330Y010467D01*
X060201Y010489D01*
X060074Y010518D01*
X059948Y010553D01*
X059824Y010594D01*
X059702Y010641D01*
X059582Y010694D01*
X059466Y010752D01*
X059352Y010817D01*
X059242Y010887D01*
X059135Y010962D01*
X059032Y011042D01*
X058933Y011128D01*
X058838Y011218D01*
X058748Y011313D01*
X058662Y011412D01*
X058582Y011515D01*
X058507Y011622D01*
X058437Y011732D01*
X058372Y011846D01*
X058314Y011962D01*
X058261Y012082D01*
X058214Y012204D01*
X058173Y012328D01*
X058138Y012454D01*
X058109Y012581D01*
X058087Y012710D01*
X058071Y012840D01*
X058061Y012970D01*
X058058Y013101D01*
X057721Y006601D02*
X056721Y006601D01*
X056721Y000601D01*
X057721Y000601D01*
X057721Y006601D01*
X058461Y005911D02*
X058482Y005963D01*
X058506Y006013D01*
X058534Y006061D01*
X058565Y006107D01*
X058600Y006151D01*
X058637Y006192D01*
X058677Y006231D01*
X058720Y006267D01*
X058765Y006300D01*
X058812Y006329D01*
X058861Y006355D01*
X058912Y006378D01*
X058964Y006397D01*
X059018Y006412D01*
X059072Y006424D01*
X059128Y006432D01*
X059183Y006436D01*
X059239Y006436D01*
X059294Y006432D01*
X059350Y006424D01*
X059404Y006412D01*
X059458Y006397D01*
X059510Y006378D01*
X059561Y006355D01*
X059610Y006329D01*
X059657Y006300D01*
X059702Y006267D01*
X059745Y006231D01*
X059785Y006192D01*
X059822Y006151D01*
X059857Y006107D01*
X059888Y006061D01*
X059916Y006013D01*
X059940Y005963D01*
X059961Y005911D01*
X059981Y005291D02*
X059960Y005239D01*
X059936Y005189D01*
X059908Y005141D01*
X059877Y005095D01*
X059842Y005051D01*
X059805Y005010D01*
X059765Y004971D01*
X059722Y004935D01*
X059677Y004902D01*
X059630Y004873D01*
X059581Y004847D01*
X059530Y004824D01*
X059478Y004805D01*
X059424Y004790D01*
X059370Y004778D01*
X059314Y004770D01*
X059259Y004766D01*
X059203Y004766D01*
X059148Y004770D01*
X059092Y004778D01*
X059038Y004790D01*
X058984Y004805D01*
X058932Y004824D01*
X058881Y004847D01*
X058832Y004873D01*
X058785Y004902D01*
X058740Y004935D01*
X058697Y004971D01*
X058657Y005010D01*
X058620Y005051D01*
X058585Y005095D01*
X058554Y005141D01*
X058526Y005189D01*
X058502Y005239D01*
X058481Y005291D01*
X058721Y003851D02*
X060221Y003851D01*
X060721Y003101D02*
X060721Y002101D01*
X060221Y001351D02*
X058721Y001351D01*
X058221Y002101D02*
X058221Y003101D01*
X058671Y002601D02*
X058673Y002655D01*
X058679Y002709D01*
X058689Y002762D01*
X058702Y002815D01*
X058719Y002866D01*
X058740Y002916D01*
X058765Y002964D01*
X058793Y003011D01*
X058824Y003055D01*
X058858Y003097D01*
X058895Y003136D01*
X058935Y003173D01*
X058978Y003206D01*
X059023Y003237D01*
X059070Y003264D01*
X059118Y003287D01*
X059169Y003307D01*
X059220Y003324D01*
X059273Y003336D01*
X059326Y003345D01*
X059380Y003350D01*
X059435Y003351D01*
X059489Y003348D01*
X059542Y003341D01*
X059595Y003330D01*
X059648Y003316D01*
X059699Y003298D01*
X059748Y003276D01*
X059796Y003251D01*
X059842Y003222D01*
X059886Y003190D01*
X059927Y003155D01*
X059965Y003117D01*
X060001Y003076D01*
X060034Y003033D01*
X060064Y002988D01*
X060090Y002940D01*
X060113Y002891D01*
X060132Y002840D01*
X060147Y002789D01*
X060159Y002736D01*
X060167Y002682D01*
X060171Y002628D01*
X060171Y002574D01*
X060167Y002520D01*
X060159Y002466D01*
X060147Y002413D01*
X060132Y002362D01*
X060113Y002311D01*
X060090Y002262D01*
X060064Y002214D01*
X060034Y002169D01*
X060001Y002126D01*
X059965Y002085D01*
X059927Y002047D01*
X059886Y002012D01*
X059842Y001980D01*
X059796Y001951D01*
X059748Y001926D01*
X059699Y001904D01*
X059648Y001886D01*
X059595Y001872D01*
X059542Y001861D01*
X059489Y001854D01*
X059435Y001851D01*
X059380Y001852D01*
X059326Y001857D01*
X059273Y001866D01*
X059220Y001878D01*
X059169Y001895D01*
X059118Y001915D01*
X059070Y001938D01*
X059023Y001965D01*
X058978Y001996D01*
X058935Y002029D01*
X058895Y002066D01*
X058858Y002105D01*
X058824Y002147D01*
X058793Y002191D01*
X058765Y002238D01*
X058740Y002286D01*
X058719Y002336D01*
X058702Y002387D01*
X058689Y002440D01*
X058679Y002493D01*
X058673Y002547D01*
X058671Y002601D01*
X056221Y002101D02*
X056221Y003101D01*
X055721Y003851D02*
X054221Y003851D01*
X053721Y003101D02*
X053721Y002101D01*
X054221Y001351D02*
X055721Y001351D01*
X054171Y002601D02*
X054173Y002655D01*
X054179Y002709D01*
X054189Y002762D01*
X054202Y002815D01*
X054219Y002866D01*
X054240Y002916D01*
X054265Y002964D01*
X054293Y003011D01*
X054324Y003055D01*
X054358Y003097D01*
X054395Y003136D01*
X054435Y003173D01*
X054478Y003206D01*
X054523Y003237D01*
X054570Y003264D01*
X054618Y003287D01*
X054669Y003307D01*
X054720Y003324D01*
X054773Y003336D01*
X054826Y003345D01*
X054880Y003350D01*
X054935Y003351D01*
X054989Y003348D01*
X055042Y003341D01*
X055095Y003330D01*
X055148Y003316D01*
X055199Y003298D01*
X055248Y003276D01*
X055296Y003251D01*
X055342Y003222D01*
X055386Y003190D01*
X055427Y003155D01*
X055465Y003117D01*
X055501Y003076D01*
X055534Y003033D01*
X055564Y002988D01*
X055590Y002940D01*
X055613Y002891D01*
X055632Y002840D01*
X055647Y002789D01*
X055659Y002736D01*
X055667Y002682D01*
X055671Y002628D01*
X055671Y002574D01*
X055667Y002520D01*
X055659Y002466D01*
X055647Y002413D01*
X055632Y002362D01*
X055613Y002311D01*
X055590Y002262D01*
X055564Y002214D01*
X055534Y002169D01*
X055501Y002126D01*
X055465Y002085D01*
X055427Y002047D01*
X055386Y002012D01*
X055342Y001980D01*
X055296Y001951D01*
X055248Y001926D01*
X055199Y001904D01*
X055148Y001886D01*
X055095Y001872D01*
X055042Y001861D01*
X054989Y001854D01*
X054935Y001851D01*
X054880Y001852D01*
X054826Y001857D01*
X054773Y001866D01*
X054720Y001878D01*
X054669Y001895D01*
X054618Y001915D01*
X054570Y001938D01*
X054523Y001965D01*
X054478Y001996D01*
X054435Y002029D01*
X054395Y002066D01*
X054358Y002105D01*
X054324Y002147D01*
X054293Y002191D01*
X054265Y002238D01*
X054240Y002286D01*
X054219Y002336D01*
X054202Y002387D01*
X054189Y002440D01*
X054179Y002493D01*
X054173Y002547D01*
X054171Y002601D01*
X051721Y002101D02*
X051721Y003101D01*
X051221Y003851D02*
X049721Y003851D01*
X049221Y003101D02*
X049221Y002101D01*
X049721Y001351D02*
X051221Y001351D01*
X052221Y000601D02*
X052221Y006601D01*
X053221Y006601D01*
X053221Y000601D01*
X052221Y000601D01*
X049671Y002601D02*
X049673Y002655D01*
X049679Y002709D01*
X049689Y002762D01*
X049702Y002815D01*
X049719Y002866D01*
X049740Y002916D01*
X049765Y002964D01*
X049793Y003011D01*
X049824Y003055D01*
X049858Y003097D01*
X049895Y003136D01*
X049935Y003173D01*
X049978Y003206D01*
X050023Y003237D01*
X050070Y003264D01*
X050118Y003287D01*
X050169Y003307D01*
X050220Y003324D01*
X050273Y003336D01*
X050326Y003345D01*
X050380Y003350D01*
X050435Y003351D01*
X050489Y003348D01*
X050542Y003341D01*
X050595Y003330D01*
X050648Y003316D01*
X050699Y003298D01*
X050748Y003276D01*
X050796Y003251D01*
X050842Y003222D01*
X050886Y003190D01*
X050927Y003155D01*
X050965Y003117D01*
X051001Y003076D01*
X051034Y003033D01*
X051064Y002988D01*
X051090Y002940D01*
X051113Y002891D01*
X051132Y002840D01*
X051147Y002789D01*
X051159Y002736D01*
X051167Y002682D01*
X051171Y002628D01*
X051171Y002574D01*
X051167Y002520D01*
X051159Y002466D01*
X051147Y002413D01*
X051132Y002362D01*
X051113Y002311D01*
X051090Y002262D01*
X051064Y002214D01*
X051034Y002169D01*
X051001Y002126D01*
X050965Y002085D01*
X050927Y002047D01*
X050886Y002012D01*
X050842Y001980D01*
X050796Y001951D01*
X050748Y001926D01*
X050699Y001904D01*
X050648Y001886D01*
X050595Y001872D01*
X050542Y001861D01*
X050489Y001854D01*
X050435Y001851D01*
X050380Y001852D01*
X050326Y001857D01*
X050273Y001866D01*
X050220Y001878D01*
X050169Y001895D01*
X050118Y001915D01*
X050070Y001938D01*
X050023Y001965D01*
X049978Y001996D01*
X049935Y002029D01*
X049895Y002066D01*
X049858Y002105D01*
X049824Y002147D01*
X049793Y002191D01*
X049765Y002238D01*
X049740Y002286D01*
X049719Y002336D01*
X049702Y002387D01*
X049689Y002440D01*
X049679Y002493D01*
X049673Y002547D01*
X049671Y002601D01*
X047221Y002101D02*
X047221Y003101D01*
X046721Y003851D02*
X045221Y003851D01*
X044721Y003101D02*
X044721Y002101D01*
X045221Y001351D02*
X046721Y001351D01*
X047721Y000601D02*
X047721Y006601D01*
X048721Y006601D01*
X048721Y000601D01*
X047721Y000601D01*
X045171Y002601D02*
X045173Y002655D01*
X045179Y002709D01*
X045189Y002762D01*
X045202Y002815D01*
X045219Y002866D01*
X045240Y002916D01*
X045265Y002964D01*
X045293Y003011D01*
X045324Y003055D01*
X045358Y003097D01*
X045395Y003136D01*
X045435Y003173D01*
X045478Y003206D01*
X045523Y003237D01*
X045570Y003264D01*
X045618Y003287D01*
X045669Y003307D01*
X045720Y003324D01*
X045773Y003336D01*
X045826Y003345D01*
X045880Y003350D01*
X045935Y003351D01*
X045989Y003348D01*
X046042Y003341D01*
X046095Y003330D01*
X046148Y003316D01*
X046199Y003298D01*
X046248Y003276D01*
X046296Y003251D01*
X046342Y003222D01*
X046386Y003190D01*
X046427Y003155D01*
X046465Y003117D01*
X046501Y003076D01*
X046534Y003033D01*
X046564Y002988D01*
X046590Y002940D01*
X046613Y002891D01*
X046632Y002840D01*
X046647Y002789D01*
X046659Y002736D01*
X046667Y002682D01*
X046671Y002628D01*
X046671Y002574D01*
X046667Y002520D01*
X046659Y002466D01*
X046647Y002413D01*
X046632Y002362D01*
X046613Y002311D01*
X046590Y002262D01*
X046564Y002214D01*
X046534Y002169D01*
X046501Y002126D01*
X046465Y002085D01*
X046427Y002047D01*
X046386Y002012D01*
X046342Y001980D01*
X046296Y001951D01*
X046248Y001926D01*
X046199Y001904D01*
X046148Y001886D01*
X046095Y001872D01*
X046042Y001861D01*
X045989Y001854D01*
X045935Y001851D01*
X045880Y001852D01*
X045826Y001857D01*
X045773Y001866D01*
X045720Y001878D01*
X045669Y001895D01*
X045618Y001915D01*
X045570Y001938D01*
X045523Y001965D01*
X045478Y001996D01*
X045435Y002029D01*
X045395Y002066D01*
X045358Y002105D01*
X045324Y002147D01*
X045293Y002191D01*
X045265Y002238D01*
X045240Y002286D01*
X045219Y002336D01*
X045202Y002387D01*
X045189Y002440D01*
X045179Y002493D01*
X045173Y002547D01*
X045171Y002601D01*
X042721Y002101D02*
X042721Y003101D01*
X042221Y003851D02*
X040721Y003851D01*
X040221Y003101D02*
X040221Y002101D01*
X040671Y002601D02*
X040673Y002655D01*
X040679Y002709D01*
X040689Y002762D01*
X040702Y002815D01*
X040719Y002866D01*
X040740Y002916D01*
X040765Y002964D01*
X040793Y003011D01*
X040824Y003055D01*
X040858Y003097D01*
X040895Y003136D01*
X040935Y003173D01*
X040978Y003206D01*
X041023Y003237D01*
X041070Y003264D01*
X041118Y003287D01*
X041169Y003307D01*
X041220Y003324D01*
X041273Y003336D01*
X041326Y003345D01*
X041380Y003350D01*
X041435Y003351D01*
X041489Y003348D01*
X041542Y003341D01*
X041595Y003330D01*
X041648Y003316D01*
X041699Y003298D01*
X041748Y003276D01*
X041796Y003251D01*
X041842Y003222D01*
X041886Y003190D01*
X041927Y003155D01*
X041965Y003117D01*
X042001Y003076D01*
X042034Y003033D01*
X042064Y002988D01*
X042090Y002940D01*
X042113Y002891D01*
X042132Y002840D01*
X042147Y002789D01*
X042159Y002736D01*
X042167Y002682D01*
X042171Y002628D01*
X042171Y002574D01*
X042167Y002520D01*
X042159Y002466D01*
X042147Y002413D01*
X042132Y002362D01*
X042113Y002311D01*
X042090Y002262D01*
X042064Y002214D01*
X042034Y002169D01*
X042001Y002126D01*
X041965Y002085D01*
X041927Y002047D01*
X041886Y002012D01*
X041842Y001980D01*
X041796Y001951D01*
X041748Y001926D01*
X041699Y001904D01*
X041648Y001886D01*
X041595Y001872D01*
X041542Y001861D01*
X041489Y001854D01*
X041435Y001851D01*
X041380Y001852D01*
X041326Y001857D01*
X041273Y001866D01*
X041220Y001878D01*
X041169Y001895D01*
X041118Y001915D01*
X041070Y001938D01*
X041023Y001965D01*
X040978Y001996D01*
X040935Y002029D01*
X040895Y002066D01*
X040858Y002105D01*
X040824Y002147D01*
X040793Y002191D01*
X040765Y002238D01*
X040740Y002286D01*
X040719Y002336D01*
X040702Y002387D01*
X040689Y002440D01*
X040679Y002493D01*
X040673Y002547D01*
X040671Y002601D01*
X040721Y001351D02*
X042221Y001351D01*
X043221Y000601D02*
X043221Y006601D01*
X044221Y006601D01*
X044221Y000601D01*
X043221Y000601D01*
X039721Y000601D02*
X038721Y000601D01*
X038721Y006601D01*
X039721Y006601D01*
X039721Y000601D01*
X037721Y001351D02*
X036221Y001351D01*
X035721Y002101D02*
X035721Y003101D01*
X036221Y003851D02*
X037721Y003851D01*
X038221Y003101D02*
X038221Y002101D01*
X036171Y002601D02*
X036173Y002655D01*
X036179Y002709D01*
X036189Y002762D01*
X036202Y002815D01*
X036219Y002866D01*
X036240Y002916D01*
X036265Y002964D01*
X036293Y003011D01*
X036324Y003055D01*
X036358Y003097D01*
X036395Y003136D01*
X036435Y003173D01*
X036478Y003206D01*
X036523Y003237D01*
X036570Y003264D01*
X036618Y003287D01*
X036669Y003307D01*
X036720Y003324D01*
X036773Y003336D01*
X036826Y003345D01*
X036880Y003350D01*
X036935Y003351D01*
X036989Y003348D01*
X037042Y003341D01*
X037095Y003330D01*
X037148Y003316D01*
X037199Y003298D01*
X037248Y003276D01*
X037296Y003251D01*
X037342Y003222D01*
X037386Y003190D01*
X037427Y003155D01*
X037465Y003117D01*
X037501Y003076D01*
X037534Y003033D01*
X037564Y002988D01*
X037590Y002940D01*
X037613Y002891D01*
X037632Y002840D01*
X037647Y002789D01*
X037659Y002736D01*
X037667Y002682D01*
X037671Y002628D01*
X037671Y002574D01*
X037667Y002520D01*
X037659Y002466D01*
X037647Y002413D01*
X037632Y002362D01*
X037613Y002311D01*
X037590Y002262D01*
X037564Y002214D01*
X037534Y002169D01*
X037501Y002126D01*
X037465Y002085D01*
X037427Y002047D01*
X037386Y002012D01*
X037342Y001980D01*
X037296Y001951D01*
X037248Y001926D01*
X037199Y001904D01*
X037148Y001886D01*
X037095Y001872D01*
X037042Y001861D01*
X036989Y001854D01*
X036935Y001851D01*
X036880Y001852D01*
X036826Y001857D01*
X036773Y001866D01*
X036720Y001878D01*
X036669Y001895D01*
X036618Y001915D01*
X036570Y001938D01*
X036523Y001965D01*
X036478Y001996D01*
X036435Y002029D01*
X036395Y002066D01*
X036358Y002105D01*
X036324Y002147D01*
X036293Y002191D01*
X036265Y002238D01*
X036240Y002286D01*
X036219Y002336D01*
X036202Y002387D01*
X036189Y002440D01*
X036179Y002493D01*
X036173Y002547D01*
X036171Y002601D01*
X044981Y005291D02*
X045002Y005239D01*
X045026Y005189D01*
X045054Y005141D01*
X045085Y005095D01*
X045120Y005051D01*
X045157Y005010D01*
X045197Y004971D01*
X045240Y004935D01*
X045285Y004902D01*
X045332Y004873D01*
X045381Y004847D01*
X045432Y004824D01*
X045484Y004805D01*
X045538Y004790D01*
X045592Y004778D01*
X045648Y004770D01*
X045703Y004766D01*
X045759Y004766D01*
X045814Y004770D01*
X045870Y004778D01*
X045924Y004790D01*
X045978Y004805D01*
X046030Y004824D01*
X046081Y004847D01*
X046130Y004873D01*
X046177Y004902D01*
X046222Y004935D01*
X046265Y004971D01*
X046305Y005010D01*
X046342Y005051D01*
X046377Y005095D01*
X046408Y005141D01*
X046436Y005189D01*
X046460Y005239D01*
X046481Y005291D01*
X046461Y005911D02*
X046440Y005963D01*
X046416Y006013D01*
X046388Y006061D01*
X046357Y006107D01*
X046322Y006151D01*
X046285Y006192D01*
X046245Y006231D01*
X046202Y006267D01*
X046157Y006300D01*
X046110Y006329D01*
X046061Y006355D01*
X046010Y006378D01*
X045958Y006397D01*
X045904Y006412D01*
X045850Y006424D01*
X045794Y006432D01*
X045739Y006436D01*
X045683Y006436D01*
X045628Y006432D01*
X045572Y006424D01*
X045518Y006412D01*
X045464Y006397D01*
X045412Y006378D01*
X045361Y006355D01*
X045312Y006329D01*
X045265Y006300D01*
X045220Y006267D01*
X045177Y006231D01*
X045137Y006192D01*
X045100Y006151D01*
X045065Y006107D01*
X045034Y006061D01*
X045006Y006013D01*
X044982Y005963D01*
X044961Y005911D01*
X049461Y005911D02*
X049482Y005963D01*
X049506Y006013D01*
X049534Y006061D01*
X049565Y006107D01*
X049600Y006151D01*
X049637Y006192D01*
X049677Y006231D01*
X049720Y006267D01*
X049765Y006300D01*
X049812Y006329D01*
X049861Y006355D01*
X049912Y006378D01*
X049964Y006397D01*
X050018Y006412D01*
X050072Y006424D01*
X050128Y006432D01*
X050183Y006436D01*
X050239Y006436D01*
X050294Y006432D01*
X050350Y006424D01*
X050404Y006412D01*
X050458Y006397D01*
X050510Y006378D01*
X050561Y006355D01*
X050610Y006329D01*
X050657Y006300D01*
X050702Y006267D01*
X050745Y006231D01*
X050785Y006192D01*
X050822Y006151D01*
X050857Y006107D01*
X050888Y006061D01*
X050916Y006013D01*
X050940Y005963D01*
X050961Y005911D01*
X050981Y005291D02*
X050960Y005239D01*
X050936Y005189D01*
X050908Y005141D01*
X050877Y005095D01*
X050842Y005051D01*
X050805Y005010D01*
X050765Y004971D01*
X050722Y004935D01*
X050677Y004902D01*
X050630Y004873D01*
X050581Y004847D01*
X050530Y004824D01*
X050478Y004805D01*
X050424Y004790D01*
X050370Y004778D01*
X050314Y004770D01*
X050259Y004766D01*
X050203Y004766D01*
X050148Y004770D01*
X050092Y004778D01*
X050038Y004790D01*
X049984Y004805D01*
X049932Y004824D01*
X049881Y004847D01*
X049832Y004873D01*
X049785Y004902D01*
X049740Y004935D01*
X049697Y004971D01*
X049657Y005010D01*
X049620Y005051D01*
X049585Y005095D01*
X049554Y005141D01*
X049526Y005189D01*
X049502Y005239D01*
X049481Y005291D01*
X053961Y005911D02*
X053982Y005963D01*
X054006Y006013D01*
X054034Y006061D01*
X054065Y006107D01*
X054100Y006151D01*
X054137Y006192D01*
X054177Y006231D01*
X054220Y006267D01*
X054265Y006300D01*
X054312Y006329D01*
X054361Y006355D01*
X054412Y006378D01*
X054464Y006397D01*
X054518Y006412D01*
X054572Y006424D01*
X054628Y006432D01*
X054683Y006436D01*
X054739Y006436D01*
X054794Y006432D01*
X054850Y006424D01*
X054904Y006412D01*
X054958Y006397D01*
X055010Y006378D01*
X055061Y006355D01*
X055110Y006329D01*
X055157Y006300D01*
X055202Y006267D01*
X055245Y006231D01*
X055285Y006192D01*
X055322Y006151D01*
X055357Y006107D01*
X055388Y006061D01*
X055416Y006013D01*
X055440Y005963D01*
X055461Y005911D01*
X055481Y005291D02*
X055460Y005239D01*
X055436Y005189D01*
X055408Y005141D01*
X055377Y005095D01*
X055342Y005051D01*
X055305Y005010D01*
X055265Y004971D01*
X055222Y004935D01*
X055177Y004902D01*
X055130Y004873D01*
X055081Y004847D01*
X055030Y004824D01*
X054978Y004805D01*
X054924Y004790D01*
X054870Y004778D01*
X054814Y004770D01*
X054759Y004766D01*
X054703Y004766D01*
X054648Y004770D01*
X054592Y004778D01*
X054538Y004790D01*
X054484Y004805D01*
X054432Y004824D01*
X054381Y004847D01*
X054332Y004873D01*
X054285Y004902D01*
X054240Y004935D01*
X054197Y004971D01*
X054157Y005010D01*
X054120Y005051D01*
X054085Y005095D01*
X054054Y005141D01*
X054026Y005189D01*
X054002Y005239D01*
X053981Y005291D01*
X061221Y006601D02*
X062221Y006601D01*
X062221Y000601D01*
X061221Y000601D01*
X061221Y006601D01*
X053321Y024851D02*
X053321Y025351D01*
X053071Y025101D02*
X053571Y025101D01*
X053837Y025101D02*
X053839Y025163D01*
X053845Y025226D01*
X053855Y025287D01*
X053869Y025348D01*
X053886Y025408D01*
X053907Y025467D01*
X053933Y025524D01*
X053961Y025579D01*
X053993Y025633D01*
X054029Y025684D01*
X054067Y025734D01*
X054109Y025780D01*
X054153Y025824D01*
X054201Y025865D01*
X054250Y025903D01*
X054302Y025937D01*
X054356Y025968D01*
X054412Y025996D01*
X054470Y026020D01*
X054529Y026041D01*
X054589Y026057D01*
X054650Y026070D01*
X054712Y026079D01*
X054774Y026084D01*
X054837Y026085D01*
X054899Y026082D01*
X054961Y026075D01*
X055023Y026064D01*
X055083Y026049D01*
X055143Y026031D01*
X055201Y026009D01*
X055258Y025983D01*
X055313Y025953D01*
X055366Y025920D01*
X055417Y025884D01*
X055465Y025845D01*
X055511Y025802D01*
X055554Y025757D01*
X055594Y025709D01*
X055631Y025659D01*
X055665Y025606D01*
X055696Y025552D01*
X055722Y025496D01*
X055746Y025438D01*
X055765Y025378D01*
X055781Y025318D01*
X055793Y025256D01*
X055801Y025195D01*
X055805Y025132D01*
X055805Y025070D01*
X055801Y025007D01*
X055793Y024946D01*
X055781Y024884D01*
X055765Y024824D01*
X055746Y024764D01*
X055722Y024706D01*
X055696Y024650D01*
X055665Y024596D01*
X055631Y024543D01*
X055594Y024493D01*
X055554Y024445D01*
X055511Y024400D01*
X055465Y024357D01*
X055417Y024318D01*
X055366Y024282D01*
X055313Y024249D01*
X055258Y024219D01*
X055201Y024193D01*
X055143Y024171D01*
X055083Y024153D01*
X055023Y024138D01*
X054961Y024127D01*
X054899Y024120D01*
X054837Y024117D01*
X054774Y024118D01*
X054712Y024123D01*
X054650Y024132D01*
X054589Y024145D01*
X054529Y024161D01*
X054470Y024182D01*
X054412Y024206D01*
X054356Y024234D01*
X054302Y024265D01*
X054250Y024299D01*
X054201Y024337D01*
X054153Y024378D01*
X054109Y024422D01*
X054067Y024468D01*
X054029Y024518D01*
X053993Y024569D01*
X053961Y024623D01*
X053933Y024678D01*
X053907Y024735D01*
X053886Y024794D01*
X053869Y024854D01*
X053855Y024915D01*
X053845Y024976D01*
X053839Y025039D01*
X053837Y025101D01*
X054221Y026951D02*
X053221Y026951D01*
X053221Y030751D01*
X054221Y030751D01*
X054221Y026951D01*
X054721Y026951D02*
X054721Y030751D01*
X055721Y030751D01*
X055721Y026951D01*
X054721Y026951D01*
X056221Y027671D02*
X056221Y028201D01*
X056260Y028203D01*
X056299Y028209D01*
X056337Y028218D01*
X056374Y028231D01*
X056410Y028248D01*
X056443Y028268D01*
X056475Y028292D01*
X056504Y028318D01*
X056530Y028347D01*
X056554Y028379D01*
X056574Y028412D01*
X056591Y028448D01*
X056604Y028485D01*
X056613Y028523D01*
X056619Y028562D01*
X056621Y028601D01*
X056619Y028640D01*
X056613Y028679D01*
X056604Y028717D01*
X056591Y028754D01*
X056574Y028790D01*
X056554Y028823D01*
X056530Y028855D01*
X056504Y028884D01*
X056475Y028910D01*
X056443Y028934D01*
X056410Y028954D01*
X056374Y028971D01*
X056337Y028984D01*
X056299Y028993D01*
X056260Y028999D01*
X056221Y029001D01*
X056221Y029541D01*
X060221Y029541D01*
X060221Y027671D01*
X056221Y027671D01*
X052221Y027701D02*
X052221Y029521D01*
X045221Y029521D01*
X045221Y029001D01*
X045260Y028999D01*
X045299Y028993D01*
X045337Y028984D01*
X045374Y028971D01*
X045410Y028954D01*
X045443Y028934D01*
X045475Y028910D01*
X045504Y028884D01*
X045530Y028855D01*
X045554Y028823D01*
X045574Y028790D01*
X045591Y028754D01*
X045604Y028717D01*
X045613Y028679D01*
X045619Y028640D01*
X045621Y028601D01*
X045619Y028562D01*
X045613Y028523D01*
X045604Y028485D01*
X045591Y028448D01*
X045574Y028412D01*
X045554Y028379D01*
X045530Y028347D01*
X045504Y028318D01*
X045475Y028292D01*
X045443Y028268D01*
X045410Y028248D01*
X045374Y028231D01*
X045337Y028218D01*
X045299Y028209D01*
X045260Y028203D01*
X045221Y028201D01*
X045221Y027701D01*
X052221Y027701D01*
X054434Y031632D02*
X054828Y031632D01*
X054434Y031632D02*
X054434Y035569D01*
X054828Y035569D01*
X055615Y035569D02*
X056009Y035569D01*
X056009Y031632D01*
X055615Y031632D01*
X057221Y032601D02*
X057721Y032601D01*
X057721Y032851D01*
X060721Y032851D01*
X060721Y032601D01*
X061221Y032601D01*
X061221Y036601D01*
X057221Y036601D01*
X057221Y032601D01*
X057781Y034787D02*
X057783Y034862D01*
X057789Y034936D01*
X057799Y035010D01*
X057813Y035083D01*
X057830Y035155D01*
X057852Y035227D01*
X057877Y035297D01*
X057906Y035365D01*
X057939Y035433D01*
X057975Y035498D01*
X058014Y035561D01*
X058057Y035622D01*
X058103Y035681D01*
X058152Y035737D01*
X058204Y035790D01*
X058259Y035841D01*
X058316Y035888D01*
X058376Y035933D01*
X058438Y035974D01*
X058503Y036012D01*
X058569Y036046D01*
X058637Y036077D01*
X058706Y036104D01*
X058777Y036127D01*
X058849Y036147D01*
X058922Y036163D01*
X058995Y036175D01*
X059069Y036183D01*
X059144Y036187D01*
X059218Y036187D01*
X059293Y036183D01*
X059367Y036175D01*
X059440Y036163D01*
X059513Y036147D01*
X059585Y036127D01*
X059656Y036104D01*
X059725Y036077D01*
X059793Y036046D01*
X059859Y036012D01*
X059924Y035974D01*
X059986Y035933D01*
X060046Y035888D01*
X060103Y035841D01*
X060158Y035790D01*
X060210Y035737D01*
X060259Y035681D01*
X060305Y035622D01*
X060348Y035561D01*
X060387Y035498D01*
X060423Y035433D01*
X060456Y035365D01*
X060485Y035297D01*
X060510Y035227D01*
X060532Y035155D01*
X060549Y035083D01*
X060563Y035010D01*
X060573Y034936D01*
X060579Y034862D01*
X060581Y034787D01*
X060579Y034712D01*
X060573Y034638D01*
X060563Y034564D01*
X060549Y034491D01*
X060532Y034419D01*
X060510Y034347D01*
X060485Y034277D01*
X060456Y034209D01*
X060423Y034141D01*
X060387Y034076D01*
X060348Y034013D01*
X060305Y033952D01*
X060259Y033893D01*
X060210Y033837D01*
X060158Y033784D01*
X060103Y033733D01*
X060046Y033686D01*
X059986Y033641D01*
X059924Y033600D01*
X059859Y033562D01*
X059793Y033528D01*
X059725Y033497D01*
X059656Y033470D01*
X059585Y033447D01*
X059513Y033427D01*
X059440Y033411D01*
X059367Y033399D01*
X059293Y033391D01*
X059218Y033387D01*
X059144Y033387D01*
X059069Y033391D01*
X058995Y033399D01*
X058922Y033411D01*
X058849Y033427D01*
X058777Y033447D01*
X058706Y033470D01*
X058637Y033497D01*
X058569Y033528D01*
X058503Y033562D01*
X058438Y033600D01*
X058376Y033641D01*
X058316Y033686D01*
X058259Y033733D01*
X058204Y033784D01*
X058152Y033837D01*
X058103Y033893D01*
X058057Y033952D01*
X058014Y034013D01*
X057975Y034076D01*
X057939Y034141D01*
X057906Y034209D01*
X057877Y034277D01*
X057852Y034347D01*
X057830Y034419D01*
X057813Y034491D01*
X057799Y034564D01*
X057789Y034638D01*
X057783Y034712D01*
X057781Y034787D01*
X058471Y037101D02*
X059221Y037101D01*
X059221Y037351D01*
X059721Y037101D01*
X059221Y037101D01*
X052221Y034601D02*
X052221Y033601D01*
X046221Y033601D01*
X046221Y034601D01*
X052221Y034601D01*
X052221Y033601D02*
X052221Y032601D01*
X046221Y032601D01*
X046221Y033601D01*
X052221Y033601D01*
X044721Y030501D02*
X043721Y030501D01*
X043721Y026701D01*
X044721Y026701D01*
X044721Y030501D01*
X041221Y029501D02*
X041221Y027701D01*
X033221Y027701D01*
X033221Y028201D01*
X033260Y028203D01*
X033299Y028209D01*
X033337Y028218D01*
X033374Y028231D01*
X033410Y028248D01*
X033443Y028268D01*
X033475Y028292D01*
X033504Y028318D01*
X033530Y028347D01*
X033554Y028379D01*
X033574Y028412D01*
X033591Y028448D01*
X033604Y028485D01*
X033613Y028523D01*
X033619Y028562D01*
X033621Y028601D01*
X033619Y028640D01*
X033613Y028679D01*
X033604Y028717D01*
X033591Y028754D01*
X033574Y028790D01*
X033554Y028823D01*
X033530Y028855D01*
X033504Y028884D01*
X033475Y028910D01*
X033443Y028934D01*
X033410Y028954D01*
X033374Y028971D01*
X033337Y028984D01*
X033299Y028993D01*
X033260Y028999D01*
X033221Y029001D01*
X033221Y029501D01*
X041221Y029501D01*
X032721Y030501D02*
X032721Y026701D01*
X031721Y026701D01*
X031721Y030501D01*
X032721Y030501D01*
X028721Y036974D02*
X028721Y038228D01*
X043721Y038228D01*
X043721Y036974D01*
X028721Y036974D01*
X024721Y038601D02*
X024721Y039101D01*
X023721Y039101D01*
X023721Y039601D01*
X019221Y039601D01*
X019221Y039101D01*
X016721Y039101D01*
X016721Y039601D01*
X012221Y039601D01*
X012221Y039101D01*
X009221Y039101D01*
X009221Y039601D01*
X003721Y039601D01*
X003721Y039101D01*
X002721Y039101D01*
X002721Y038601D01*
X003721Y039101D02*
X009221Y039101D01*
X012221Y039101D02*
X016721Y039101D01*
X019221Y039101D02*
X023721Y039101D01*
X062344Y032101D02*
X062344Y026101D01*
X063598Y026101D01*
X063598Y032101D01*
X062344Y032101D01*
X012453Y002911D02*
X012432Y002963D01*
X012408Y003013D01*
X012380Y003061D01*
X012349Y003107D01*
X012314Y003151D01*
X012277Y003192D01*
X012237Y003231D01*
X012194Y003267D01*
X012149Y003300D01*
X012102Y003329D01*
X012053Y003355D01*
X012002Y003378D01*
X011950Y003397D01*
X011896Y003412D01*
X011842Y003424D01*
X011786Y003432D01*
X011731Y003436D01*
X011675Y003436D01*
X011620Y003432D01*
X011564Y003424D01*
X011510Y003412D01*
X011456Y003397D01*
X011404Y003378D01*
X011353Y003355D01*
X011304Y003329D01*
X011257Y003300D01*
X011212Y003267D01*
X011169Y003231D01*
X011129Y003192D01*
X011092Y003151D01*
X011057Y003107D01*
X011026Y003061D01*
X010998Y003013D01*
X010974Y002963D01*
X010953Y002911D01*
X010973Y002291D02*
X010994Y002239D01*
X011018Y002189D01*
X011046Y002141D01*
X011077Y002095D01*
X011112Y002051D01*
X011149Y002010D01*
X011189Y001971D01*
X011232Y001935D01*
X011277Y001902D01*
X011324Y001873D01*
X011373Y001847D01*
X011424Y001824D01*
X011476Y001805D01*
X011530Y001790D01*
X011584Y001778D01*
X011640Y001770D01*
X011695Y001766D01*
X011751Y001766D01*
X011806Y001770D01*
X011862Y001778D01*
X011916Y001790D01*
X011970Y001805D01*
X012022Y001824D01*
X012073Y001847D01*
X012122Y001873D01*
X012169Y001902D01*
X012214Y001935D01*
X012257Y001971D01*
X012297Y002010D01*
X012334Y002051D01*
X012369Y002095D01*
X012400Y002141D01*
X012428Y002189D01*
X012452Y002239D01*
X012473Y002291D01*
D16*
X004991Y010381D02*
X004993Y010412D01*
X004999Y010443D01*
X005009Y010473D01*
X005022Y010501D01*
X005039Y010528D01*
X005059Y010552D01*
X005082Y010574D01*
X005107Y010592D01*
X005135Y010607D01*
X005164Y010619D01*
X005194Y010627D01*
X005225Y010631D01*
X005257Y010631D01*
X005288Y010627D01*
X005318Y010619D01*
X005347Y010607D01*
X005375Y010592D01*
X005400Y010574D01*
X005423Y010552D01*
X005443Y010528D01*
X005460Y010501D01*
X005473Y010473D01*
X005483Y010443D01*
X005489Y010412D01*
X005491Y010381D01*
X005489Y010350D01*
X005483Y010319D01*
X005473Y010289D01*
X005460Y010261D01*
X005443Y010234D01*
X005423Y010210D01*
X005400Y010188D01*
X005375Y010170D01*
X005347Y010155D01*
X005318Y010143D01*
X005288Y010135D01*
X005257Y010131D01*
X005225Y010131D01*
X005194Y010135D01*
X005164Y010143D01*
X005135Y010155D01*
X005107Y010170D01*
X005082Y010188D01*
X005059Y010210D01*
X005039Y010234D01*
X005022Y010261D01*
X005009Y010289D01*
X004999Y010319D01*
X004993Y010350D01*
X004991Y010381D01*
D17*
X026021Y032676D02*
X026247Y032676D01*
X026472Y032901D01*
X026472Y034027D01*
X026247Y034027D02*
X026697Y034027D01*
X027177Y034027D02*
X027628Y034027D01*
X027403Y034027D02*
X027403Y032676D01*
X027628Y032676D02*
X027177Y032676D01*
X028098Y032901D02*
X028323Y032676D01*
X028774Y032676D01*
X028999Y032901D01*
X028999Y033126D01*
X028774Y033351D01*
X028323Y033351D01*
X028098Y033577D01*
X028098Y033802D01*
X028323Y034027D01*
X028774Y034027D01*
X028999Y033802D01*
X029479Y033802D02*
X029479Y033577D01*
X029704Y033351D01*
X030155Y033351D01*
X030380Y033126D01*
X030380Y032901D01*
X030155Y032676D01*
X029704Y032676D01*
X029479Y032901D01*
X029479Y033802D02*
X029704Y034027D01*
X030155Y034027D01*
X030380Y033802D01*
X030860Y034027D02*
X030860Y032676D01*
X031761Y032676D01*
X032242Y032676D02*
X032242Y034027D01*
X033142Y032676D01*
X033142Y034027D01*
X033623Y033351D02*
X034523Y033351D01*
X035004Y033126D02*
X035905Y034027D01*
X036385Y034027D02*
X036385Y032676D01*
X037286Y032676D01*
X037766Y032676D02*
X037766Y034027D01*
X038667Y032676D01*
X038667Y034027D01*
X037286Y034027D02*
X036385Y034027D01*
X036385Y033351D02*
X036835Y033351D01*
X035905Y032676D02*
X035229Y033351D01*
X035004Y032676D02*
X035004Y034027D01*
X031761Y034027D02*
X030860Y034027D01*
X030860Y033351D02*
X031311Y033351D01*
X026021Y032676D02*
X025796Y032901D01*
D18*
X002721Y023101D03*
M02*
