G75*
G70*
%OFA0B0*%
%FSLAX24Y24*%
%IPPOS*%
%LPD*%
%AMOC8*
5,1,8,0,0,1.08239X$1,22.5*
%
%ADD10C,0.0000*%
D10*
X002721Y000101D02*
X002721Y039471D01*
X065713Y039471D01*
X065713Y000101D01*
X002721Y000101D01*
X004060Y002069D02*
X004062Y002119D01*
X004068Y002169D01*
X004078Y002218D01*
X004092Y002266D01*
X004109Y002313D01*
X004130Y002358D01*
X004155Y002402D01*
X004183Y002443D01*
X004215Y002482D01*
X004249Y002519D01*
X004286Y002553D01*
X004326Y002583D01*
X004368Y002610D01*
X004412Y002634D01*
X004458Y002655D01*
X004505Y002671D01*
X004553Y002684D01*
X004603Y002693D01*
X004652Y002698D01*
X004703Y002699D01*
X004753Y002696D01*
X004802Y002689D01*
X004851Y002678D01*
X004899Y002663D01*
X004945Y002645D01*
X004990Y002623D01*
X005033Y002597D01*
X005074Y002568D01*
X005113Y002536D01*
X005149Y002501D01*
X005181Y002463D01*
X005211Y002423D01*
X005238Y002380D01*
X005261Y002336D01*
X005280Y002290D01*
X005296Y002242D01*
X005308Y002193D01*
X005316Y002144D01*
X005320Y002094D01*
X005320Y002044D01*
X005316Y001994D01*
X005308Y001945D01*
X005296Y001896D01*
X005280Y001848D01*
X005261Y001802D01*
X005238Y001758D01*
X005211Y001715D01*
X005181Y001675D01*
X005149Y001637D01*
X005113Y001602D01*
X005074Y001570D01*
X005033Y001541D01*
X004990Y001515D01*
X004945Y001493D01*
X004899Y001475D01*
X004851Y001460D01*
X004802Y001449D01*
X004753Y001442D01*
X004703Y001439D01*
X004652Y001440D01*
X004603Y001445D01*
X004553Y001454D01*
X004505Y001467D01*
X004458Y001483D01*
X004412Y001504D01*
X004368Y001528D01*
X004326Y001555D01*
X004286Y001585D01*
X004249Y001619D01*
X004215Y001656D01*
X004183Y001695D01*
X004155Y001736D01*
X004130Y001780D01*
X004109Y001825D01*
X004092Y001872D01*
X004078Y001920D01*
X004068Y001969D01*
X004062Y002019D01*
X004060Y002069D01*
X003091Y007601D02*
X003093Y007651D01*
X003099Y007701D01*
X003109Y007750D01*
X003123Y007798D01*
X003140Y007845D01*
X003161Y007890D01*
X003186Y007934D01*
X003214Y007975D01*
X003246Y008014D01*
X003280Y008051D01*
X003317Y008085D01*
X003357Y008115D01*
X003399Y008142D01*
X003443Y008166D01*
X003489Y008187D01*
X003536Y008203D01*
X003584Y008216D01*
X003634Y008225D01*
X003683Y008230D01*
X003734Y008231D01*
X003784Y008228D01*
X003833Y008221D01*
X003882Y008210D01*
X003930Y008195D01*
X003976Y008177D01*
X004021Y008155D01*
X004064Y008129D01*
X004105Y008100D01*
X004144Y008068D01*
X004180Y008033D01*
X004212Y007995D01*
X004242Y007955D01*
X004269Y007912D01*
X004292Y007868D01*
X004311Y007822D01*
X004327Y007774D01*
X004339Y007725D01*
X004347Y007676D01*
X004351Y007626D01*
X004351Y007576D01*
X004347Y007526D01*
X004339Y007477D01*
X004327Y007428D01*
X004311Y007380D01*
X004292Y007334D01*
X004269Y007290D01*
X004242Y007247D01*
X004212Y007207D01*
X004180Y007169D01*
X004144Y007134D01*
X004105Y007102D01*
X004064Y007073D01*
X004021Y007047D01*
X003976Y007025D01*
X003930Y007007D01*
X003882Y006992D01*
X003833Y006981D01*
X003784Y006974D01*
X003734Y006971D01*
X003683Y006972D01*
X003634Y006977D01*
X003584Y006986D01*
X003536Y006999D01*
X003489Y007015D01*
X003443Y007036D01*
X003399Y007060D01*
X003357Y007087D01*
X003317Y007117D01*
X003280Y007151D01*
X003246Y007188D01*
X003214Y007227D01*
X003186Y007268D01*
X003161Y007312D01*
X003140Y007357D01*
X003123Y007404D01*
X003109Y007452D01*
X003099Y007501D01*
X003093Y007551D01*
X003091Y007601D01*
X006551Y011551D02*
X007311Y011551D01*
X007335Y011554D01*
X007358Y011560D01*
X007380Y011569D01*
X007400Y011582D01*
X007418Y011597D01*
X007434Y011615D01*
X007447Y011635D01*
X007457Y011657D01*
X007463Y011680D01*
X007466Y011704D01*
X007465Y011728D01*
X007461Y011751D01*
X007453Y011774D01*
X007442Y011795D01*
X007428Y011815D01*
X007411Y011832D01*
X007392Y011846D01*
X007371Y011857D01*
X007348Y011865D01*
X007325Y011870D01*
X007301Y011871D01*
X007321Y011871D02*
X006541Y011871D01*
X006391Y011711D02*
X006393Y011736D01*
X006399Y011760D01*
X006408Y011782D01*
X006421Y011803D01*
X006437Y011822D01*
X006456Y011838D01*
X006477Y011851D01*
X006499Y011860D01*
X006523Y011866D01*
X006548Y011868D01*
X006573Y011866D01*
X006597Y011860D01*
X006619Y011851D01*
X006640Y011838D01*
X006659Y011822D01*
X006675Y011803D01*
X006688Y011782D01*
X006697Y011760D01*
X006703Y011736D01*
X006705Y011711D01*
X006703Y011686D01*
X006697Y011662D01*
X006688Y011640D01*
X006675Y011619D01*
X006659Y011600D01*
X006640Y011584D01*
X006619Y011571D01*
X006597Y011562D01*
X006573Y011556D01*
X006548Y011554D01*
X006523Y011556D01*
X006499Y011562D01*
X006477Y011571D01*
X006456Y011584D01*
X006437Y011600D01*
X006421Y011619D01*
X006408Y011640D01*
X006399Y011662D01*
X006393Y011686D01*
X006391Y011711D01*
X006541Y011871D02*
X006517Y011868D01*
X006494Y011862D01*
X006472Y011853D01*
X006452Y011840D01*
X006434Y011825D01*
X006418Y011807D01*
X006405Y011787D01*
X006395Y011765D01*
X006389Y011742D01*
X006386Y011718D01*
X006387Y011694D01*
X006391Y011671D01*
X006399Y011648D01*
X006410Y011627D01*
X006424Y011607D01*
X006441Y011590D01*
X006460Y011576D01*
X006481Y011565D01*
X006504Y011557D01*
X006527Y011552D01*
X006551Y011551D01*
X006765Y011711D02*
X006767Y011736D01*
X006773Y011760D01*
X006782Y011782D01*
X006795Y011803D01*
X006811Y011822D01*
X006830Y011838D01*
X006851Y011851D01*
X006873Y011860D01*
X006897Y011866D01*
X006922Y011868D01*
X006947Y011866D01*
X006971Y011860D01*
X006993Y011851D01*
X007014Y011838D01*
X007033Y011822D01*
X007049Y011803D01*
X007062Y011782D01*
X007071Y011760D01*
X007077Y011736D01*
X007079Y011711D01*
X007077Y011686D01*
X007071Y011662D01*
X007062Y011640D01*
X007049Y011619D01*
X007033Y011600D01*
X007014Y011584D01*
X006993Y011571D01*
X006971Y011562D01*
X006947Y011556D01*
X006922Y011554D01*
X006897Y011556D01*
X006873Y011562D01*
X006851Y011571D01*
X006830Y011584D01*
X006811Y011600D01*
X006795Y011619D01*
X006782Y011640D01*
X006773Y011662D01*
X006767Y011686D01*
X006765Y011711D01*
X007139Y011711D02*
X007141Y011736D01*
X007147Y011760D01*
X007156Y011782D01*
X007169Y011803D01*
X007185Y011822D01*
X007204Y011838D01*
X007225Y011851D01*
X007247Y011860D01*
X007271Y011866D01*
X007296Y011868D01*
X007321Y011866D01*
X007345Y011860D01*
X007367Y011851D01*
X007388Y011838D01*
X007407Y011822D01*
X007423Y011803D01*
X007436Y011782D01*
X007445Y011760D01*
X007451Y011736D01*
X007453Y011711D01*
X007451Y011686D01*
X007445Y011662D01*
X007436Y011640D01*
X007423Y011619D01*
X007407Y011600D01*
X007388Y011584D01*
X007367Y011571D01*
X007345Y011562D01*
X007321Y011556D01*
X007296Y011554D01*
X007271Y011556D01*
X007247Y011562D01*
X007225Y011571D01*
X007204Y011584D01*
X007185Y011600D01*
X007169Y011619D01*
X007156Y011640D01*
X007147Y011662D01*
X007141Y011686D01*
X007139Y011711D01*
X007981Y013111D02*
X007981Y014091D01*
X007982Y014073D02*
X007984Y014098D01*
X007990Y014122D01*
X007999Y014144D01*
X008012Y014165D01*
X008028Y014184D01*
X008047Y014200D01*
X008068Y014213D01*
X008090Y014222D01*
X008114Y014228D01*
X008139Y014230D01*
X008164Y014228D01*
X008188Y014222D01*
X008210Y014213D01*
X008231Y014200D01*
X008250Y014184D01*
X008266Y014165D01*
X008279Y014144D01*
X008288Y014122D01*
X008294Y014098D01*
X008296Y014073D01*
X008294Y014048D01*
X008288Y014024D01*
X008279Y014002D01*
X008266Y013981D01*
X008250Y013962D01*
X008231Y013946D01*
X008210Y013933D01*
X008188Y013924D01*
X008164Y013918D01*
X008139Y013916D01*
X008114Y013918D01*
X008090Y013924D01*
X008068Y013933D01*
X008047Y013946D01*
X008028Y013962D01*
X008012Y013981D01*
X007999Y014002D01*
X007990Y014024D01*
X007984Y014048D01*
X007982Y014073D01*
X007981Y014081D02*
X007984Y014105D01*
X007990Y014128D01*
X007999Y014150D01*
X008012Y014170D01*
X008027Y014188D01*
X008045Y014204D01*
X008065Y014217D01*
X008087Y014227D01*
X008110Y014233D01*
X008134Y014236D01*
X008158Y014235D01*
X008181Y014231D01*
X008204Y014223D01*
X008225Y014212D01*
X008245Y014198D01*
X008262Y014181D01*
X008276Y014162D01*
X008287Y014141D01*
X008295Y014118D01*
X008300Y014095D01*
X008301Y014071D01*
X008301Y013121D01*
X008141Y012961D02*
X008118Y012963D01*
X008096Y012967D01*
X008075Y012975D01*
X008054Y012986D01*
X008036Y013000D01*
X008020Y013016D01*
X008006Y013034D01*
X007995Y013055D01*
X007987Y013076D01*
X007983Y013098D01*
X007981Y013121D01*
X007982Y013128D02*
X007984Y013153D01*
X007990Y013177D01*
X007999Y013199D01*
X008012Y013220D01*
X008028Y013239D01*
X008047Y013255D01*
X008068Y013268D01*
X008090Y013277D01*
X008114Y013283D01*
X008139Y013285D01*
X008164Y013283D01*
X008188Y013277D01*
X008210Y013268D01*
X008231Y013255D01*
X008250Y013239D01*
X008266Y013220D01*
X008279Y013199D01*
X008288Y013177D01*
X008294Y013153D01*
X008296Y013128D01*
X008294Y013103D01*
X008288Y013079D01*
X008279Y013057D01*
X008266Y013036D01*
X008250Y013017D01*
X008231Y013001D01*
X008210Y012988D01*
X008188Y012979D01*
X008164Y012973D01*
X008139Y012971D01*
X008114Y012973D01*
X008090Y012979D01*
X008068Y012988D01*
X008047Y013001D01*
X008028Y013017D01*
X008012Y013036D01*
X007999Y013057D01*
X007990Y013079D01*
X007984Y013103D01*
X007982Y013128D01*
X008141Y012961D02*
X008164Y012963D01*
X008186Y012967D01*
X008207Y012975D01*
X008228Y012986D01*
X008246Y013000D01*
X008262Y013016D01*
X008276Y013034D01*
X008287Y013055D01*
X008295Y013076D01*
X008299Y013098D01*
X008301Y013121D01*
X007982Y013601D02*
X007984Y013626D01*
X007990Y013650D01*
X007999Y013672D01*
X008012Y013693D01*
X008028Y013712D01*
X008047Y013728D01*
X008068Y013741D01*
X008090Y013750D01*
X008114Y013756D01*
X008139Y013758D01*
X008164Y013756D01*
X008188Y013750D01*
X008210Y013741D01*
X008231Y013728D01*
X008250Y013712D01*
X008266Y013693D01*
X008279Y013672D01*
X008288Y013650D01*
X008294Y013626D01*
X008296Y013601D01*
X008294Y013576D01*
X008288Y013552D01*
X008279Y013530D01*
X008266Y013509D01*
X008250Y013490D01*
X008231Y013474D01*
X008210Y013461D01*
X008188Y013452D01*
X008164Y013446D01*
X008139Y013444D01*
X008114Y013446D01*
X008090Y013452D01*
X008068Y013461D01*
X008047Y013474D01*
X008028Y013490D01*
X008012Y013509D01*
X007999Y013530D01*
X007990Y013552D01*
X007984Y013576D01*
X007982Y013601D01*
X005901Y013241D02*
X005901Y013971D01*
X005900Y013995D01*
X005895Y014018D01*
X005887Y014041D01*
X005876Y014062D01*
X005862Y014081D01*
X005845Y014098D01*
X005825Y014112D01*
X005804Y014123D01*
X005781Y014131D01*
X005758Y014135D01*
X005734Y014136D01*
X005710Y014133D01*
X005687Y014127D01*
X005665Y014117D01*
X005645Y014104D01*
X005627Y014088D01*
X005612Y014070D01*
X005599Y014050D01*
X005590Y014028D01*
X005584Y014005D01*
X005581Y013981D01*
X005581Y013221D01*
X005584Y013227D02*
X005586Y013252D01*
X005592Y013276D01*
X005601Y013298D01*
X005614Y013319D01*
X005630Y013338D01*
X005649Y013354D01*
X005670Y013367D01*
X005692Y013376D01*
X005716Y013382D01*
X005741Y013384D01*
X005766Y013382D01*
X005790Y013376D01*
X005812Y013367D01*
X005833Y013354D01*
X005852Y013338D01*
X005868Y013319D01*
X005881Y013298D01*
X005890Y013276D01*
X005896Y013252D01*
X005898Y013227D01*
X005896Y013202D01*
X005890Y013178D01*
X005881Y013156D01*
X005868Y013135D01*
X005852Y013116D01*
X005833Y013100D01*
X005812Y013087D01*
X005790Y013078D01*
X005766Y013072D01*
X005741Y013070D01*
X005716Y013072D01*
X005692Y013078D01*
X005670Y013087D01*
X005649Y013100D01*
X005630Y013116D01*
X005614Y013135D01*
X005601Y013156D01*
X005592Y013178D01*
X005586Y013202D01*
X005584Y013227D01*
X005581Y013221D02*
X005584Y013197D01*
X005590Y013174D01*
X005599Y013152D01*
X005612Y013132D01*
X005627Y013114D01*
X005645Y013098D01*
X005665Y013085D01*
X005687Y013075D01*
X005710Y013069D01*
X005734Y013066D01*
X005758Y013067D01*
X005781Y013071D01*
X005804Y013079D01*
X005825Y013090D01*
X005845Y013104D01*
X005862Y013121D01*
X005876Y013140D01*
X005887Y013161D01*
X005895Y013184D01*
X005900Y013207D01*
X005901Y013231D01*
X005584Y013601D02*
X005586Y013626D01*
X005592Y013650D01*
X005601Y013672D01*
X005614Y013693D01*
X005630Y013712D01*
X005649Y013728D01*
X005670Y013741D01*
X005692Y013750D01*
X005716Y013756D01*
X005741Y013758D01*
X005766Y013756D01*
X005790Y013750D01*
X005812Y013741D01*
X005833Y013728D01*
X005852Y013712D01*
X005868Y013693D01*
X005881Y013672D01*
X005890Y013650D01*
X005896Y013626D01*
X005898Y013601D01*
X005896Y013576D01*
X005890Y013552D01*
X005881Y013530D01*
X005868Y013509D01*
X005852Y013490D01*
X005833Y013474D01*
X005812Y013461D01*
X005790Y013452D01*
X005766Y013446D01*
X005741Y013444D01*
X005716Y013446D01*
X005692Y013452D01*
X005670Y013461D01*
X005649Y013474D01*
X005630Y013490D01*
X005614Y013509D01*
X005601Y013530D01*
X005592Y013552D01*
X005586Y013576D01*
X005584Y013601D01*
X005584Y013975D02*
X005586Y014000D01*
X005592Y014024D01*
X005601Y014046D01*
X005614Y014067D01*
X005630Y014086D01*
X005649Y014102D01*
X005670Y014115D01*
X005692Y014124D01*
X005716Y014130D01*
X005741Y014132D01*
X005766Y014130D01*
X005790Y014124D01*
X005812Y014115D01*
X005833Y014102D01*
X005852Y014086D01*
X005868Y014067D01*
X005881Y014046D01*
X005890Y014024D01*
X005896Y014000D01*
X005898Y013975D01*
X005896Y013950D01*
X005890Y013926D01*
X005881Y013904D01*
X005868Y013883D01*
X005852Y013864D01*
X005833Y013848D01*
X005812Y013835D01*
X005790Y013826D01*
X005766Y013820D01*
X005741Y013818D01*
X005716Y013820D01*
X005692Y013826D01*
X005670Y013835D01*
X005649Y013848D01*
X005630Y013864D01*
X005614Y013883D01*
X005601Y013904D01*
X005592Y013926D01*
X005586Y013950D01*
X005584Y013975D01*
X006591Y018101D02*
X006593Y018151D01*
X006599Y018201D01*
X006609Y018250D01*
X006623Y018298D01*
X006640Y018345D01*
X006661Y018390D01*
X006686Y018434D01*
X006714Y018475D01*
X006746Y018514D01*
X006780Y018551D01*
X006817Y018585D01*
X006857Y018615D01*
X006899Y018642D01*
X006943Y018666D01*
X006989Y018687D01*
X007036Y018703D01*
X007084Y018716D01*
X007134Y018725D01*
X007183Y018730D01*
X007234Y018731D01*
X007284Y018728D01*
X007333Y018721D01*
X007382Y018710D01*
X007430Y018695D01*
X007476Y018677D01*
X007521Y018655D01*
X007564Y018629D01*
X007605Y018600D01*
X007644Y018568D01*
X007680Y018533D01*
X007712Y018495D01*
X007742Y018455D01*
X007769Y018412D01*
X007792Y018368D01*
X007811Y018322D01*
X007827Y018274D01*
X007839Y018225D01*
X007847Y018176D01*
X007851Y018126D01*
X007851Y018076D01*
X007847Y018026D01*
X007839Y017977D01*
X007827Y017928D01*
X007811Y017880D01*
X007792Y017834D01*
X007769Y017790D01*
X007742Y017747D01*
X007712Y017707D01*
X007680Y017669D01*
X007644Y017634D01*
X007605Y017602D01*
X007564Y017573D01*
X007521Y017547D01*
X007476Y017525D01*
X007430Y017507D01*
X007382Y017492D01*
X007333Y017481D01*
X007284Y017474D01*
X007234Y017471D01*
X007183Y017472D01*
X007134Y017477D01*
X007084Y017486D01*
X007036Y017499D01*
X006989Y017515D01*
X006943Y017536D01*
X006899Y017560D01*
X006857Y017587D01*
X006817Y017617D01*
X006780Y017651D01*
X006746Y017688D01*
X006714Y017727D01*
X006686Y017768D01*
X006661Y017812D01*
X006640Y017857D01*
X006623Y017904D01*
X006609Y017952D01*
X006599Y018001D01*
X006593Y018051D01*
X006591Y018101D01*
X014091Y014101D02*
X014093Y014151D01*
X014099Y014201D01*
X014109Y014250D01*
X014123Y014298D01*
X014140Y014345D01*
X014161Y014390D01*
X014186Y014434D01*
X014214Y014475D01*
X014246Y014514D01*
X014280Y014551D01*
X014317Y014585D01*
X014357Y014615D01*
X014399Y014642D01*
X014443Y014666D01*
X014489Y014687D01*
X014536Y014703D01*
X014584Y014716D01*
X014634Y014725D01*
X014683Y014730D01*
X014734Y014731D01*
X014784Y014728D01*
X014833Y014721D01*
X014882Y014710D01*
X014930Y014695D01*
X014976Y014677D01*
X015021Y014655D01*
X015064Y014629D01*
X015105Y014600D01*
X015144Y014568D01*
X015180Y014533D01*
X015212Y014495D01*
X015242Y014455D01*
X015269Y014412D01*
X015292Y014368D01*
X015311Y014322D01*
X015327Y014274D01*
X015339Y014225D01*
X015347Y014176D01*
X015351Y014126D01*
X015351Y014076D01*
X015347Y014026D01*
X015339Y013977D01*
X015327Y013928D01*
X015311Y013880D01*
X015292Y013834D01*
X015269Y013790D01*
X015242Y013747D01*
X015212Y013707D01*
X015180Y013669D01*
X015144Y013634D01*
X015105Y013602D01*
X015064Y013573D01*
X015021Y013547D01*
X014976Y013525D01*
X014930Y013507D01*
X014882Y013492D01*
X014833Y013481D01*
X014784Y013474D01*
X014734Y013471D01*
X014683Y013472D01*
X014634Y013477D01*
X014584Y013486D01*
X014536Y013499D01*
X014489Y013515D01*
X014443Y013536D01*
X014399Y013560D01*
X014357Y013587D01*
X014317Y013617D01*
X014280Y013651D01*
X014246Y013688D01*
X014214Y013727D01*
X014186Y013768D01*
X014161Y013812D01*
X014140Y013857D01*
X014123Y013904D01*
X014109Y013952D01*
X014099Y014001D01*
X014093Y014051D01*
X014091Y014101D01*
X006591Y028101D02*
X006593Y028151D01*
X006599Y028201D01*
X006609Y028250D01*
X006623Y028298D01*
X006640Y028345D01*
X006661Y028390D01*
X006686Y028434D01*
X006714Y028475D01*
X006746Y028514D01*
X006780Y028551D01*
X006817Y028585D01*
X006857Y028615D01*
X006899Y028642D01*
X006943Y028666D01*
X006989Y028687D01*
X007036Y028703D01*
X007084Y028716D01*
X007134Y028725D01*
X007183Y028730D01*
X007234Y028731D01*
X007284Y028728D01*
X007333Y028721D01*
X007382Y028710D01*
X007430Y028695D01*
X007476Y028677D01*
X007521Y028655D01*
X007564Y028629D01*
X007605Y028600D01*
X007644Y028568D01*
X007680Y028533D01*
X007712Y028495D01*
X007742Y028455D01*
X007769Y028412D01*
X007792Y028368D01*
X007811Y028322D01*
X007827Y028274D01*
X007839Y028225D01*
X007847Y028176D01*
X007851Y028126D01*
X007851Y028076D01*
X007847Y028026D01*
X007839Y027977D01*
X007827Y027928D01*
X007811Y027880D01*
X007792Y027834D01*
X007769Y027790D01*
X007742Y027747D01*
X007712Y027707D01*
X007680Y027669D01*
X007644Y027634D01*
X007605Y027602D01*
X007564Y027573D01*
X007521Y027547D01*
X007476Y027525D01*
X007430Y027507D01*
X007382Y027492D01*
X007333Y027481D01*
X007284Y027474D01*
X007234Y027471D01*
X007183Y027472D01*
X007134Y027477D01*
X007084Y027486D01*
X007036Y027499D01*
X006989Y027515D01*
X006943Y027536D01*
X006899Y027560D01*
X006857Y027587D01*
X006817Y027617D01*
X006780Y027651D01*
X006746Y027688D01*
X006714Y027727D01*
X006686Y027768D01*
X006661Y027812D01*
X006640Y027857D01*
X006623Y027904D01*
X006609Y027952D01*
X006599Y028001D01*
X006593Y028051D01*
X006591Y028101D01*
X003091Y030601D02*
X003093Y030651D01*
X003099Y030701D01*
X003109Y030750D01*
X003123Y030798D01*
X003140Y030845D01*
X003161Y030890D01*
X003186Y030934D01*
X003214Y030975D01*
X003246Y031014D01*
X003280Y031051D01*
X003317Y031085D01*
X003357Y031115D01*
X003399Y031142D01*
X003443Y031166D01*
X003489Y031187D01*
X003536Y031203D01*
X003584Y031216D01*
X003634Y031225D01*
X003683Y031230D01*
X003734Y031231D01*
X003784Y031228D01*
X003833Y031221D01*
X003882Y031210D01*
X003930Y031195D01*
X003976Y031177D01*
X004021Y031155D01*
X004064Y031129D01*
X004105Y031100D01*
X004144Y031068D01*
X004180Y031033D01*
X004212Y030995D01*
X004242Y030955D01*
X004269Y030912D01*
X004292Y030868D01*
X004311Y030822D01*
X004327Y030774D01*
X004339Y030725D01*
X004347Y030676D01*
X004351Y030626D01*
X004351Y030576D01*
X004347Y030526D01*
X004339Y030477D01*
X004327Y030428D01*
X004311Y030380D01*
X004292Y030334D01*
X004269Y030290D01*
X004242Y030247D01*
X004212Y030207D01*
X004180Y030169D01*
X004144Y030134D01*
X004105Y030102D01*
X004064Y030073D01*
X004021Y030047D01*
X003976Y030025D01*
X003930Y030007D01*
X003882Y029992D01*
X003833Y029981D01*
X003784Y029974D01*
X003734Y029971D01*
X003683Y029972D01*
X003634Y029977D01*
X003584Y029986D01*
X003536Y029999D01*
X003489Y030015D01*
X003443Y030036D01*
X003399Y030060D01*
X003357Y030087D01*
X003317Y030117D01*
X003280Y030151D01*
X003246Y030188D01*
X003214Y030227D01*
X003186Y030268D01*
X003161Y030312D01*
X003140Y030357D01*
X003123Y030404D01*
X003109Y030452D01*
X003099Y030501D01*
X003093Y030551D01*
X003091Y030601D01*
X004060Y037502D02*
X004062Y037552D01*
X004068Y037602D01*
X004078Y037651D01*
X004092Y037699D01*
X004109Y037746D01*
X004130Y037791D01*
X004155Y037835D01*
X004183Y037876D01*
X004215Y037915D01*
X004249Y037952D01*
X004286Y037986D01*
X004326Y038016D01*
X004368Y038043D01*
X004412Y038067D01*
X004458Y038088D01*
X004505Y038104D01*
X004553Y038117D01*
X004603Y038126D01*
X004652Y038131D01*
X004703Y038132D01*
X004753Y038129D01*
X004802Y038122D01*
X004851Y038111D01*
X004899Y038096D01*
X004945Y038078D01*
X004990Y038056D01*
X005033Y038030D01*
X005074Y038001D01*
X005113Y037969D01*
X005149Y037934D01*
X005181Y037896D01*
X005211Y037856D01*
X005238Y037813D01*
X005261Y037769D01*
X005280Y037723D01*
X005296Y037675D01*
X005308Y037626D01*
X005316Y037577D01*
X005320Y037527D01*
X005320Y037477D01*
X005316Y037427D01*
X005308Y037378D01*
X005296Y037329D01*
X005280Y037281D01*
X005261Y037235D01*
X005238Y037191D01*
X005211Y037148D01*
X005181Y037108D01*
X005149Y037070D01*
X005113Y037035D01*
X005074Y037003D01*
X005033Y036974D01*
X004990Y036948D01*
X004945Y036926D01*
X004899Y036908D01*
X004851Y036893D01*
X004802Y036882D01*
X004753Y036875D01*
X004703Y036872D01*
X004652Y036873D01*
X004603Y036878D01*
X004553Y036887D01*
X004505Y036900D01*
X004458Y036916D01*
X004412Y036937D01*
X004368Y036961D01*
X004326Y036988D01*
X004286Y037018D01*
X004249Y037052D01*
X004215Y037089D01*
X004183Y037128D01*
X004155Y037169D01*
X004130Y037213D01*
X004109Y037258D01*
X004092Y037305D01*
X004078Y037353D01*
X004068Y037402D01*
X004062Y037452D01*
X004060Y037502D01*
X041461Y007975D02*
X041463Y008025D01*
X041469Y008075D01*
X041479Y008124D01*
X041493Y008172D01*
X041510Y008219D01*
X041531Y008264D01*
X041556Y008308D01*
X041584Y008349D01*
X041616Y008388D01*
X041650Y008425D01*
X041687Y008459D01*
X041727Y008489D01*
X041769Y008516D01*
X041813Y008540D01*
X041859Y008561D01*
X041906Y008577D01*
X041954Y008590D01*
X042004Y008599D01*
X042053Y008604D01*
X042104Y008605D01*
X042154Y008602D01*
X042203Y008595D01*
X042252Y008584D01*
X042300Y008569D01*
X042346Y008551D01*
X042391Y008529D01*
X042434Y008503D01*
X042475Y008474D01*
X042514Y008442D01*
X042550Y008407D01*
X042582Y008369D01*
X042612Y008329D01*
X042639Y008286D01*
X042662Y008242D01*
X042681Y008196D01*
X042697Y008148D01*
X042709Y008099D01*
X042717Y008050D01*
X042721Y008000D01*
X042721Y007950D01*
X042717Y007900D01*
X042709Y007851D01*
X042697Y007802D01*
X042681Y007754D01*
X042662Y007708D01*
X042639Y007664D01*
X042612Y007621D01*
X042582Y007581D01*
X042550Y007543D01*
X042514Y007508D01*
X042475Y007476D01*
X042434Y007447D01*
X042391Y007421D01*
X042346Y007399D01*
X042300Y007381D01*
X042252Y007366D01*
X042203Y007355D01*
X042154Y007348D01*
X042104Y007345D01*
X042053Y007346D01*
X042004Y007351D01*
X041954Y007360D01*
X041906Y007373D01*
X041859Y007389D01*
X041813Y007410D01*
X041769Y007434D01*
X041727Y007461D01*
X041687Y007491D01*
X041650Y007525D01*
X041616Y007562D01*
X041584Y007601D01*
X041556Y007642D01*
X041531Y007686D01*
X041510Y007731D01*
X041493Y007778D01*
X041479Y007826D01*
X041469Y007875D01*
X041463Y007925D01*
X041461Y007975D01*
X063115Y002069D02*
X063117Y002119D01*
X063123Y002169D01*
X063133Y002218D01*
X063147Y002266D01*
X063164Y002313D01*
X063185Y002358D01*
X063210Y002402D01*
X063238Y002443D01*
X063270Y002482D01*
X063304Y002519D01*
X063341Y002553D01*
X063381Y002583D01*
X063423Y002610D01*
X063467Y002634D01*
X063513Y002655D01*
X063560Y002671D01*
X063608Y002684D01*
X063658Y002693D01*
X063707Y002698D01*
X063758Y002699D01*
X063808Y002696D01*
X063857Y002689D01*
X063906Y002678D01*
X063954Y002663D01*
X064000Y002645D01*
X064045Y002623D01*
X064088Y002597D01*
X064129Y002568D01*
X064168Y002536D01*
X064204Y002501D01*
X064236Y002463D01*
X064266Y002423D01*
X064293Y002380D01*
X064316Y002336D01*
X064335Y002290D01*
X064351Y002242D01*
X064363Y002193D01*
X064371Y002144D01*
X064375Y002094D01*
X064375Y002044D01*
X064371Y001994D01*
X064363Y001945D01*
X064351Y001896D01*
X064335Y001848D01*
X064316Y001802D01*
X064293Y001758D01*
X064266Y001715D01*
X064236Y001675D01*
X064204Y001637D01*
X064168Y001602D01*
X064129Y001570D01*
X064088Y001541D01*
X064045Y001515D01*
X064000Y001493D01*
X063954Y001475D01*
X063906Y001460D01*
X063857Y001449D01*
X063808Y001442D01*
X063758Y001439D01*
X063707Y001440D01*
X063658Y001445D01*
X063608Y001454D01*
X063560Y001467D01*
X063513Y001483D01*
X063467Y001504D01*
X063423Y001528D01*
X063381Y001555D01*
X063341Y001585D01*
X063304Y001619D01*
X063270Y001656D01*
X063238Y001695D01*
X063210Y001736D01*
X063185Y001780D01*
X063164Y001825D01*
X063147Y001872D01*
X063133Y001920D01*
X063123Y001969D01*
X063117Y002019D01*
X063115Y002069D01*
X063115Y037502D02*
X063117Y037552D01*
X063123Y037602D01*
X063133Y037651D01*
X063147Y037699D01*
X063164Y037746D01*
X063185Y037791D01*
X063210Y037835D01*
X063238Y037876D01*
X063270Y037915D01*
X063304Y037952D01*
X063341Y037986D01*
X063381Y038016D01*
X063423Y038043D01*
X063467Y038067D01*
X063513Y038088D01*
X063560Y038104D01*
X063608Y038117D01*
X063658Y038126D01*
X063707Y038131D01*
X063758Y038132D01*
X063808Y038129D01*
X063857Y038122D01*
X063906Y038111D01*
X063954Y038096D01*
X064000Y038078D01*
X064045Y038056D01*
X064088Y038030D01*
X064129Y038001D01*
X064168Y037969D01*
X064204Y037934D01*
X064236Y037896D01*
X064266Y037856D01*
X064293Y037813D01*
X064316Y037769D01*
X064335Y037723D01*
X064351Y037675D01*
X064363Y037626D01*
X064371Y037577D01*
X064375Y037527D01*
X064375Y037477D01*
X064371Y037427D01*
X064363Y037378D01*
X064351Y037329D01*
X064335Y037281D01*
X064316Y037235D01*
X064293Y037191D01*
X064266Y037148D01*
X064236Y037108D01*
X064204Y037070D01*
X064168Y037035D01*
X064129Y037003D01*
X064088Y036974D01*
X064045Y036948D01*
X064000Y036926D01*
X063954Y036908D01*
X063906Y036893D01*
X063857Y036882D01*
X063808Y036875D01*
X063758Y036872D01*
X063707Y036873D01*
X063658Y036878D01*
X063608Y036887D01*
X063560Y036900D01*
X063513Y036916D01*
X063467Y036937D01*
X063423Y036961D01*
X063381Y036988D01*
X063341Y037018D01*
X063304Y037052D01*
X063270Y037089D01*
X063238Y037128D01*
X063210Y037169D01*
X063185Y037213D01*
X063164Y037258D01*
X063147Y037305D01*
X063133Y037353D01*
X063123Y037402D01*
X063117Y037452D01*
X063115Y037502D01*
M02*
